<?xml version="1.0" encoding="UTF-8"?>
<!DOCTYPE svg PUBLIC "-//W3C//DTD SVG 1.1//EN" "http://www.w3.org/Graphics/SVG/1.1/DTD/svg11.dtd">
<!-- Creator: CorelDRAW -->
<svg xmlns="http://www.w3.org/2000/svg" xml:space="preserve" width="42px" height="92px" version="1.1" style="shape-rendering:geometricPrecision; text-rendering:geometricPrecision; image-rendering:optimizeQuality; fill-rule:evenodd; clip-rule:evenodd"
viewBox="0 0 0.624 1.368"
 xmlns:xlink="http://www.w3.org/1999/xlink"
 xmlns:xodm="http://www.corel.com/coreldraw/odm/2003">
 <defs>
  <style type="text/css">
   <![CDATA[
    .fil0 {fill:#242424}
    .fil1 {fill:#38B8D6}
    .fil3 {fill:#7FD073}
    .fil2 {fill:white}
   ]]>
  </style>
 </defs>
 <g id="Camada_x0020_1">
  <metadata id="CorelCorpID_0Corel-Layer"/>
  <g id="duffel_bag">
   <rect class="fil0" x="0.298" y="0.594" width="0.028" height="0.626"/>
   <g>
    <circle class="fil0" cx="0.312" cy="1.285" r="0.082"/>
    <circle class="fil1" cx="0.312" cy="1.285" r="0.055"/>
   </g>
   <g>
    <path class="fil0" d="M0 0.133c0,-0.073 0.06,-0.133 0.133,-0.133l0.358 0c0.073,0 0.133,0.06 0.133,0.133l0 0.358c0,0.073 -0.06,0.133 -0.133,0.133l-0.358 0c-0.073,0 -0.133,-0.06 -0.133,-0.133l0 -0.358z"/>
    <path class="fil2" d="M0.03 0.133l0 0.358c0,0.057 0.046,0.104 0.103,0.104l0.358 0c0.057,0 0.104,-0.047 0.104,-0.104l0 -0.358c0,-0.057 -0.047,-0.103 -0.104,-0.103l-0.358 0c-0.057,0 -0.103,0.046 -0.103,0.103z"/>
    <g>
     <path class="fil0" d="M0.236 0.453c0,0 0,0 0,0.001 -0.006,0.007 -0.024,0.004 -0.033,0.004 -0.004,0 -0.008,-0.002 -0.011,-0.005 -0.001,0 -0.002,0.001 -0.004,0.001 -0.022,0 -0.057,0.003 -0.076,-0.007 -0.011,-0.006 -0.017,-0.016 -0.02,-0.027 -0.003,-0.009 -0.003,-0.025 -0.003,-0.035 0,-0.018 0.001,-0.035 0.003,-0.052 0.001,-0.017 0.005,-0.071 0.016,-0.083 0.005,-0.005 0.011,-0.007 0.017,-0.007 0.012,-0.002 0.025,-0.002 0.037,-0.002 0.011,-0.001 0.023,-0.001 0.035,-0.001 0.005,-0.023 0.014,-0.034 0.037,-0.045 0.004,-0.002 0.008,-0.004 0.013,-0.005 0.001,-0.001 0.002,-0.001 0.003,-0.001 0.002,-0.009 0.006,-0.018 0.016,-0.02 0.031,-0.005 0.062,-0.005 0.093,0 0.01,0.002 0.014,0.011 0.015,0.02 0.001,0 0.002,0 0.004,0.001 0.004,0.001 0.008,0.003 0.013,0.005 0.022,0.011 0.031,0.022 0.037,0.045 0.011,0 0.023,0 0.035,0.001 0.011,0 0.024,0 0.036,0.002 0.006,0 0.012,0.002 0.017,0.007 0.011,0.012 0.015,0.066 0.017,0.083 0.001,0.017 0.002,0.034 0.002,0.052 0,0.01 0,0.026 -0.002,0.035 -0.003,0.011 -0.01,0.021 -0.02,0.027 -0.019,0.01 -0.055,0.007 -0.077,0.007 -0.001,0 -0.003,-0.001 -0.004,-0.001 -0.003,0.003 -0.006,0.005 -0.011,0.005 -0.009,0 -0.027,0.003 -0.033,-0.004 0,-0.001 0,-0.001 0,-0.001 -0.001,0.001 -0.002,0.001 -0.003,0.001 -0.048,0 -0.097,0 -0.146,0 -0.001,0 -0.002,0 -0.003,-0.001zm0.012 -0.21c0,0 0.001,0 0.002,0 0.042,0.004 0.083,0.004 0.124,0 0.001,0 0.002,0 0.003,0 -0.001,-0.001 -0.001,-0.001 -0.001,-0.001 -0.001,-0.009 -0.006,-0.016 -0.012,-0.022 -0.003,0.002 -0.006,0.003 -0.011,0.002 -0.03,-0.007 -0.051,-0.007 -0.082,0 -0.004,0.001 -0.008,0 -0.011,-0.002 -0.005,0.006 -0.01,0.013 -0.012,0.022 0,0 0,0 0,0.001z"/>
     <path class="fil3" d="M0.198 0.251c-0.007,0.028 -0.011,0.056 -0.013,0.085 -0.002,0.036 -0.001,0.072 0.003,0.107 -0.019,0 -0.055,0.003 -0.071,-0.006 -0.008,-0.004 -0.013,-0.011 -0.015,-0.019 -0.006,-0.023 0.002,-0.148 0.014,-0.161 0.003,-0.002 0.007,-0.004 0.011,-0.004 0.015,-0.002 0.055,-0.002 0.071,-0.002zm0.07 -0.04c-0.008,0.003 -0.011,-0.03 -0.001,-0.031 0.03,-0.005 0.06,-0.005 0.09,0 0.01,0.001 0.007,0.034 -0.001,0.031 -0.033,-0.007 -0.055,-0.007 -0.088,0zm0.118 -0.006c-0.004,-0.002 -0.008,-0.004 -0.012,-0.006 -0.001,0.005 -0.002,0.009 -0.003,0.013 0.007,0.007 0.013,0.017 0.016,0.027 0.007,0.033 0.011,0.067 0.013,0.1 0.001,0.034 0,0.069 -0.004,0.103 0,0.002 -0.001,0.003 0,0.005 0.002,0.002 0.022,0.001 0.025,0.001 0.003,0 0.005,-0.004 0.005,-0.007 0.008,-0.063 0.005,-0.131 -0.008,-0.193 -0.005,-0.024 -0.011,-0.033 -0.032,-0.043zm0.04 0.046c0.007,0.028 0.011,0.056 0.013,0.085 0.003,0.036 0.002,0.072 -0.003,0.107 0.019,0 0.055,0.003 0.072,-0.006 0.007,-0.004 0.012,-0.011 0.014,-0.019 0.007,-0.023 -0.002,-0.148 -0.014,-0.161 -0.002,-0.002 -0.006,-0.004 -0.01,-0.004 -0.016,-0.002 -0.055,-0.002 -0.072,-0.002zm-0.051 0.002c-0.042,0.004 -0.083,0.004 -0.126,0 -0.009,0.029 -0.012,0.064 -0.014,0.094 -0.001,0.032 0,0.064 0.004,0.096 0.049,0 0.098,0 0.146,0 0.005,-0.032 0.006,-0.064 0.004,-0.096 -0.001,-0.03 -0.005,-0.065 -0.014,-0.094zm-0.137 -0.048c0.004,-0.002 0.008,-0.004 0.013,-0.006 0,0.005 0.001,0.009 0.003,0.013 -0.008,0.007 -0.014,0.017 -0.016,0.027 -0.008,0.033 -0.012,0.067 -0.013,0.1 -0.002,0.034 -0.001,0.069 0.004,0.103 0,0.002 0,0.003 -0.001,0.005 -0.002,0.002 -0.021,0.001 -0.024,0.001 -0.004,0 -0.005,-0.004 -0.006,-0.007 -0.007,-0.063 -0.005,-0.131 0.008,-0.193 0.005,-0.024 0.011,-0.033 0.032,-0.043z"/>
    </g>
   </g>
  </g>
 </g>
</svg>
