<?xml version="1.0" encoding="UTF-8"?>
<!DOCTYPE svg PUBLIC "-//W3C//DTD SVG 1.1//EN" "http://www.w3.org/Graphics/SVG/1.1/DTD/svg11.dtd">
<!-- Creator: CorelDRAW -->
<svg xmlns="http://www.w3.org/2000/svg" xml:space="preserve" width="42px" height="92px" version="1.1" style="shape-rendering:geometricPrecision; text-rendering:geometricPrecision; image-rendering:optimizeQuality; fill-rule:evenodd; clip-rule:evenodd"
viewBox="0 0 0.691 1.514"
 xmlns:xlink="http://www.w3.org/1999/xlink"
 xmlns:xodm="http://www.corel.com/coreldraw/odm/2003">
 <defs>
  <style type="text/css">
   <![CDATA[
    .fil1 {fill:#242424}
    .fil0 {fill:#242424}
    .fil2 {fill:#38B8D6}
    .fil3 {fill:white}
   ]]>
  </style>
 </defs>
 <g id="Camada_x0020_1">
  <metadata id="CorelCorpID_0Corel-Layer"/>
  <g id="exfil">
   <rect class="fil0" x="0.361" width="0.33" height="0.624"/>
   <rect class="fil1" x="0.33" y="0.585" width="0.031" height="0.767"/>
   <g>
    <circle class="fil1" cx="0.346" cy="1.422" r="0.091"/>
    <circle class="fil2" cx="0.346" cy="1.422" r="0.061"/>
   </g>
   <path class="fil1" d="M0.691 0l0 0.624 -0.081 0 -0.27 0 0 -0.016c-0.034,0.022 -0.091,0.007 -0.091,-0.046l0 -0.109 -0.02 -0.014 0 0.042c0,0.031 -0.018,0.05 -0.049,0.05l-0.124 0c-0.075,0 -0.075,-0.113 0,-0.113l0.06 0 0 -0.051c0,-0.029 0.01,-0.042 0.025,-0.065l0.055 -0.09 -0.034 0 -0.021 0.037c-0.032,0.055 -0.117,0.008 -0.084,-0.049 0.01,-0.017 0.02,-0.033 0.03,-0.049 0.016,-0.026 0.033,-0.032 0.061,-0.032l0.118 0c-0.001,-0.005 -0.002,-0.01 -0.002,-0.015 0,-0.044 0.033,-0.081 0.076,-0.087l0 -0.017 0.009 0 0.261 0 0.081 0z"/>
   <polygon class="fil3" points="0.362,0.567 0.635,0.567 0.635,0.057 0.43,0.057 0.43,0.022 0.669,0.022 0.669,0.602 0.362,0.602 "/>
   <path class="fil2" d="M0.077 0.211c-0.019,0.032 0.028,0.055 0.044,0.026l0.028 -0.047 0.087 0 -0.076 0.123c-0.015,0.024 -0.021,0.032 -0.021,0.054l0 0.073 -0.083 0c-0.045,0 -0.045,0.069 0,0.069l0.083 0 0.041 0c0.017,0 0.027,-0.007 0.027,-0.028l0 -0.041 0 -0.043 0.065 0.044 0 0.121c0,0.045 0.068,0.045 0.068,0l0 -0.139c0,-0.013 -0.002,-0.02 -0.014,-0.028l-0.068 -0.048 0.044 -0.078 0 0.046c0,0.016 0.009,0.025 0.023,0.025l0.103 0c0.037,0 0.037,-0.052 0.001,-0.052l-0.073 0 0 -0.064c0,-0.011 -0.009,-0.023 -0.014,-0.027l-0.074 -0.054 0 -0.001 -0.12 0c-0.018,0 -0.03,0.001 -0.042,0.02 -0.01,0.016 -0.02,0.032 -0.029,0.049zm0.274 -0.172c0.036,0 0.065,0.029 0.065,0.065 0,0.035 -0.029,0.064 -0.065,0.064 -0.035,0 -0.064,-0.029 -0.064,-0.064 0,-0.036 0.029,-0.065 0.064,-0.065z"/>
  </g>
 </g>
</svg>
