<?xml version="1.0" encoding="UTF-8"?>
<!DOCTYPE svg PUBLIC "-//W3C//DTD SVG 1.1//EN" "http://www.w3.org/Graphics/SVG/1.1/DTD/svg11.dtd">
<!-- Creator: CorelDRAW -->
<svg xmlns="http://www.w3.org/2000/svg" xml:space="preserve" width="42px" height="92px" version="1.1" style="shape-rendering:geometricPrecision; text-rendering:geometricPrecision; image-rendering:optimizeQuality; fill-rule:evenodd; clip-rule:evenodd"
viewBox="0 0 0.596 1.305"
 xmlns:xlink="http://www.w3.org/1999/xlink"
 xmlns:xodm="http://www.corel.com/coreldraw/odm/2003">
 <defs>
  <style type="text/css">
   <![CDATA[
    .fil5 {fill:none}
    .fil0 {fill:#242424}
    .fil2 {fill:#242424}
    .fil4 {fill:#38462B}
    .fil1 {fill:#38B8D6}
    .fil3 {fill:#C5EF9F}
   ]]>
  </style>
 </defs>
 <g id="Camada_x0020_1">
  <metadata id="CorelCorpID_0Corel-Layer"/>
  <rect class="fil0" x="0.285" y="0.567" width="0.026" height="0.597"/>
  <g id="_1882190897248">
   <circle class="fil0" cx="0.298" cy="1.226" r="0.079"/>
   <circle class="fil1" cx="0.298" cy="1.226" r="0.052"/>
  </g>
  <g id="_1882190897440">
   <path class="fil2" d="M0.479 0.209l0.022 0c0.016,0 0.029,0.013 0.029,0.028l0 0.33c0,0.016 -0.013,0.029 -0.029,0.029l-0.407 0c-0.015,0 -0.028,-0.013 -0.028,-0.029l0 -0.33c0,-0.015 0.013,-0.028 0.028,-0.028l0.023 0 0 -0.028c0,-0.1 0.081,-0.181 0.181,-0.181 0.1,0 0.181,0.081 0.181,0.181l0 0.028zm-0.113 0l0 -0.028c0,-0.038 -0.031,-0.068 -0.068,-0.068 -0.038,0 -0.068,0.03 -0.068,0.068l0 0.028 0.136 0z"/>
   <path class="fil3" d="M0.145 0.181c0,-0.084 0.069,-0.153 0.153,-0.153 0.084,0 0.152,0.069 0.152,0.153l0 0.056 0.051 0 0 0.33 -0.407 0 0 -0.33 0.051 0 0 -0.056zm0.249 0.056l0 -0.056c0,-0.053 -0.043,-0.096 -0.096,-0.096 -0.053,0 -0.096,0.043 -0.096,0.096l0 0.056 0.192 0z"/>
   <path class="fil4" d="M0.277 0.397l-0.009 0.072 -0.011 0 0.001 0.03 0.081 0 -0.001 -0.03 -0.01 0 -0.01 -0.072c0.014,-0.007 0.023,-0.021 0.023,-0.037 0,-0.024 -0.019,-0.043 -0.043,-0.043 -0.024,0 -0.043,0.019 -0.043,0.043 0,0.016 0.009,0.03 0.022,0.037z"/>
  </g>
  <rect class="fil5" width="0.596" height="0.596"/>
 </g>
</svg>
