<?xml version="1.0" encoding="UTF-8"?>
<!DOCTYPE svg PUBLIC "-//W3C//DTD SVG 1.1//EN" "http://www.w3.org/Graphics/SVG/1.1/DTD/svg11.dtd">
<!-- Creator: CorelDRAW -->
<svg xmlns="http://www.w3.org/2000/svg" xml:space="preserve" width="42px" height="92px" version="1.1" style="shape-rendering:geometricPrecision; text-rendering:geometricPrecision; image-rendering:optimizeQuality; fill-rule:evenodd; clip-rule:evenodd"
viewBox="0 0 0.574 1.257"
 xmlns:xlink="http://www.w3.org/1999/xlink"
 xmlns:xodm="http://www.corel.com/coreldraw/odm/2003">
 <defs>
  <style type="text/css">
   <![CDATA[
    .fil0 {fill:#242424}
    .fil2 {fill:#242424}
    .fil4 {fill:#38462B}
    .fil5 {fill:#38B8D6}
    .fil3 {fill:#C5EF9F}
    .fil1 {fill:white}
   ]]>
  </style>
 </defs>
 <g id="Camada_x0020_1">
  <metadata id="CorelCorpID_0Corel-Layer"/>
  <g id="_1882242765072">
   <path class="fil0" d="M0 0.123c0,-0.068 0.055,-0.123 0.123,-0.123l0.328 0c0.068,0 0.123,0.055 0.123,0.123l0 0.328c0,0.068 -0.055,0.123 -0.123,0.123l-0.328 0c-0.068,0 -0.123,-0.055 -0.123,-0.123l0 -0.328z"/>
   <path class="fil1" d="M0.027 0.123l0 0.328c0,0.052 0.043,0.095 0.096,0.095l0.328 0c0.052,0 0.095,-0.043 0.095,-0.095l0 -0.328c0,-0.053 -0.043,-0.096 -0.095,-0.096l-0.328 0c-0.053,0 -0.096,0.043 -0.096,0.096z"/>
  </g>
  <g id="_1882242768336">
   <path class="fil2" d="M0.42 0.222l0.016 0c0.012,0 0.021,0.009 0.021,0.02l0 0.243c0,0.011 -0.009,0.02 -0.021,0.02l-0.299 0c-0.011,0 -0.02,-0.009 -0.02,-0.02l0 -0.243c0,-0.011 0.009,-0.02 0.02,-0.02l0.017 0 0 -0.021c0,-0.073 0.06,-0.133 0.133,-0.133 0.073,0 0.133,0.06 0.133,0.133l0 0.021zm-0.083 0l0 -0.021c0,-0.028 -0.023,-0.05 -0.05,-0.05 -0.028,0 -0.05,0.022 -0.05,0.05l0 0.021 0.1 0z"/>
   <path class="fil3" d="M0.175 0.201c0,-0.062 0.05,-0.112 0.112,-0.112 0.062,0 0.112,0.05 0.112,0.112l0 0.041 0.037 0 0 0.243 -0.299 0 0 -0.243 0.038 0 0 -0.041zm0.182 0.041l0 -0.041c0,-0.039 -0.031,-0.071 -0.07,-0.071 -0.039,0 -0.071,0.032 -0.071,0.071l0 0.041 0.141 0z"/>
   <path class="fil4" d="M0.272 0.36l-0.007 0.052 -0.008 0 0.001 0.022 0.059 0 0 -0.022 -0.008 0 -0.007 -0.052c0.01,-0.005 0.016,-0.016 0.016,-0.028 0,-0.017 -0.014,-0.031 -0.031,-0.031 -0.018,0 -0.032,0.014 -0.032,0.031 0,0.012 0.007,0.023 0.017,0.028z"/>
  </g>
  <rect class="fil0" x="0.274" y="0.546" width="0.025" height="0.575"/>
  <g id="_1882242774048">
   <circle class="fil0" cx="0.287" cy="1.181" r="0.076"/>
   <circle class="fil5" cx="0.287" cy="1.181" r="0.05"/>
  </g>
 </g>
</svg>
