<?xml version="1.0" encoding="UTF-8"?>
<!DOCTYPE svg PUBLIC "-//W3C//DTD SVG 1.1//EN" "http://www.w3.org/Graphics/SVG/1.1/DTD/svg11.dtd">
<!-- Creator: CorelDRAW -->
<svg xmlns="http://www.w3.org/2000/svg" xml:space="preserve" width="42px" height="92px" version="1.1" style="shape-rendering:geometricPrecision; text-rendering:geometricPrecision; image-rendering:optimizeQuality; fill-rule:evenodd; clip-rule:evenodd"
viewBox="0 0 0.786 1.722"
 xmlns:xlink="http://www.w3.org/1999/xlink"
 xmlns:xodm="http://www.corel.com/coreldraw/odm/2003">
 <defs>
  <style type="text/css">
   <![CDATA[
    .fil0 {fill:#242424}
    .fil2 {fill:#38B8D6}
    .fil1 {fill:white}
    .fil3 {fill:#38B8D6;fill-rule:nonzero}
   ]]>
  </style>
 </defs>
 <g id="Camada_x0020_1">
  <metadata id="CorelCorpID_0Corel-Layer"/>
  <g id="spawn">
   <polygon class="fil0" points="0,0 0.786,0 0.786,0.587 0.393,0.899 0,0.587 "/>
   <polygon class="fil1" points="0.035,0.035 0.752,0.035 0.752,0.57 0.393,0.854 0.035,0.57 "/>
   <rect class="fil0" x="0.376" y="0.87" width="0.035" height="0.668"/>
   <g>
    <circle class="fil0" cx="0.393" cy="1.619" r="0.104"/>
    <circle class="fil2" cx="0.393" cy="1.619" r="0.069"/>
   </g>
   <g>
    <path class="fil0" d="M0.192 0.222c0.108,-0.105 0.271,0.023 0.354,-0.077 0.02,-0.024 0.052,-0.008 0.049,0.022 -0.007,0.05 -0.016,0.099 -0.028,0.148 0.023,0.02 0.049,0.038 0.077,0.052 0.02,0.009 0.018,0.038 0.006,0.053 -0.105,0.125 -0.272,-0.009 -0.361,0.083l-0.004 0.005 0.03 0.107c0.001,0.003 0.001,0.007 0.001,0.011 0,0.017 -0.011,0.032 -0.028,0.037l-0.009 0.002c-0.003,0.001 -0.007,0.002 -0.01,0.002 -0.018,0 -0.033,-0.012 -0.038,-0.029l-0.102 -0.367c-0.001,-0.004 -0.002,-0.008 -0.002,-0.011 0,-0.02 0.013,-0.036 0.031,-0.042l0.001 0c0.004,-0.001 0.008,-0.002 0.012,-0.002 0.008,0 0.015,0.002 0.021,0.006z"/>
    <path class="fil3" d="M0.273 0.644l0.009 -0.003c0.007,-0.002 0.012,-0.008 0.012,-0.015 0,-0.002 0,-0.003 -0.001,-0.005l-0.102 -0.367c-0.003,-0.009 -0.011,-0.015 -0.02,-0.015 -0.002,0 -0.004,0 -0.005,0.001l-0.002 0c-0.008,0.002 -0.014,0.01 -0.014,0.02 0,0.001 0,0.003 0,0.005l0.103 0.367c0.002,0.007 0.008,0.012 0.016,0.012 0.001,0 0.003,0 0.004,0l0 0zm0.361 -0.257c-0.032,-0.016 -0.062,-0.037 -0.089,-0.062 -0.002,-0.001 -0.003,-0.003 -0.003,-0.005 0,-0.001 0,-0.002 0.001,-0.003 0.013,-0.05 0.023,-0.101 0.029,-0.153 0.001,-0.008 -0.003,-0.011 -0.008,-0.005 -0.096,0.115 -0.262,-0.021 -0.36,0.083 0.001,0.002 0.002,0.005 0.003,0.007l0.066 0.239c0.099,-0.103 0.264,0.031 0.359,-0.083 0.005,-0.006 0.006,-0.016 0.002,-0.018l0 0z" data-original="#000000"/>
   </g>
  </g>
 </g>
</svg>
