<?xml version="1.0" encoding="UTF-8"?>
<!DOCTYPE svg PUBLIC "-//W3C//DTD SVG 1.1//EN" "http://www.w3.org/Graphics/SVG/1.1/DTD/svg11.dtd">
<!-- Creator: CorelDRAW 2017 -->
<svg xmlns="http://www.w3.org/2000/svg" xml:space="preserve" width="128px" height="128px" version="1.1" style="shape-rendering:geometricPrecision; text-rendering:geometricPrecision; image-rendering:optimizeQuality; fill-rule:evenodd; clip-rule:evenodd"
viewBox="0 0 128 128"
 xmlns:xlink="http://www.w3.org/1999/xlink">
 <defs>
  <style type="text/css">
   <![CDATA[
    .fil0 {fill:#F5F2D6}
   ]]>
  </style>
 </defs>
 <g id="Camada_x0020_1">
  <metadata id="CorelCorpID_0Corel-Layer"/>
  <path class="fil0" d="M38 21l76 0 0 8 -76 0 0 -8zm1 44l-3 0 0 -12 3 0 0 -4 -3 0 0 -4 -22 0 0 28.973 22 0 0 -4.973 3 0 0 -4zm-9 -0.002l0 -7.998c0,-2.046 -3.504,-7.5 -4.5,-7.5l-0.875 0.001c-1.458,0 -4.625,6.056 -4.625,7.485l0 8.014 10 -0.002zm-10 1.002l10 0 0 1.973 0 0.027 -10 0 0 -0.027 0 -1.973zm59 10l16 0 0 29 -16 0 0 -29zm-21 0l18 0 0 29 -18 0 0 -29zm-3.5 31l-13.5 0 0 -44 70 -0.063 0 44.063 -12.5 0 0 -33.044c0,-1.076 -1.384,-1.956 -2.455,-1.956l-39.045 0c-1.071,0 -2.5,0.884 -2.5,1.956l0 33.044zm-13.5 -51l70 0 0 4 -70 0 0 -4zm0 -20.958l70 0 0 16.958 -70 0 0 -16.958z"/>
 </g>
</svg>
