<?xml version="1.0" encoding="UTF-8"?>
<!DOCTYPE svg PUBLIC "-//W3C//DTD SVG 1.1//EN" "http://www.w3.org/Graphics/SVG/1.1/DTD/svg11.dtd">
<!-- Creator: CorelDRAW 2017 -->
<svg xmlns="http://www.w3.org/2000/svg" xml:space="preserve" width="128px" height="128px" version="1.1" style="shape-rendering:geometricPrecision; text-rendering:geometricPrecision; image-rendering:optimizeQuality; fill-rule:evenodd; clip-rule:evenodd"
viewBox="0 0 128 128"
 xmlns:xlink="http://www.w3.org/1999/xlink">
 <defs>
  <style type="text/css">
   <![CDATA[
    .fil0 {fill:#F5F2D6}
   ]]>
  </style>
 </defs>
 <g id="Camada_x0020_1">
  <metadata id="CorelCorpID_0Corel-Layer"/>
  <path class="fil0" d="M8 58l30 0 0 54.001 -30 0 0 -54.001zm84 -4l26 0c-1.308,-9.665 -0.275,-30.032 -13,-30.001 -13.007,0.031 -11.66,20.098 -13,30.001zm-2 4l30 0 0 54.001 -30 0 0 -54.001zm-80.001 -4l26.001 0c-1.309,-9.665 -0.276,-30.032 -13,-30.001 -13.008,0.031 -11.66,20.098 -13.001,30.001zm36 -14.001l36.002 0c-1.812,-13.381 -0.319,-38.019 -17.938,-37.975 -18.013,0.044 -16.208,24.264 -18.064,37.975zm-1.999 74.001l40 0 0 -68 -40 0 0 68z"/>
 </g>
</svg>
