<?xml version="1.0" encoding="UTF-8"?>
<!DOCTYPE svg PUBLIC "-//W3C//DTD SVG 1.1//EN" "http://www.w3.org/Graphics/SVG/1.1/DTD/svg11.dtd">
<!-- Creator: CorelDRAW 2017 -->
<svg xmlns="http://www.w3.org/2000/svg" xml:space="preserve" width="128px" height="128px" version="1.1" style="shape-rendering:geometricPrecision; text-rendering:geometricPrecision; image-rendering:optimizeQuality; fill-rule:evenodd; clip-rule:evenodd"
viewBox="0 0 128 128"
 xmlns:xlink="http://www.w3.org/1999/xlink">
 <defs>
  <style type="text/css">
   <![CDATA[
    .fil0 {fill:#F5F2D6}
   ]]>
  </style>
 </defs>
 <g id="Camada_x0020_1">
  <metadata id="CorelCorpID_0Corel-Layer"/>
  <path class="fil0" d="M104 65l0 49 -17 0 0 -36 -46 0 0 36 -19 0 0 -49 82 0zm-89 -6l98 0 -18 -31 -30.5 -14 -32.5 14 -17 31zm44 -23l11 0 0 13 -11 0 0 -13zm-12.614 45l35.227 0 -17.614 13.907 -17.613 -13.907zm37.614 1.301l0 28.398 -17.983 -14.199 17.983 -14.199zm-2.385 29.699l-35.228 0 17.614 -13.907 17.614 13.907zm-37.615 -1.301l0 -28.398 17.983 14.199 -17.983 14.199z"/>
 </g>
</svg>
