<?xml version="1.0" encoding="UTF-8"?>
<!DOCTYPE svg PUBLIC "-//W3C//DTD SVG 1.1//EN" "http://www.w3.org/Graphics/SVG/1.1/DTD/svg11.dtd">
<!-- Creator: CorelDRAW 2017 -->
<svg xmlns="http://www.w3.org/2000/svg" xml:space="preserve" width="128px" height="128px" version="1.1" style="shape-rendering:geometricPrecision; text-rendering:geometricPrecision; image-rendering:optimizeQuality; fill-rule:evenodd; clip-rule:evenodd"
viewBox="0 0 128 128"
 xmlns:xlink="http://www.w3.org/1999/xlink">
 <defs>
  <style type="text/css">
   <![CDATA[
    .fil0 {fill:#F5F2D6}
   ]]>
  </style>
 </defs>
 <g id="Camada_x0020_1">
  <metadata id="CorelCorpID_0Corel-Layer"/>
  <path class="fil0" d="M23 63l80 0c1.027,0 2,0.978 2,2l0 37.952c0,1.024 -0.973,2.048 -2,2.048 -5.742,0 -12.258,-0.048 -18,-0.048 -0.932,0 -2,-1.084 -2,-2l0 -26.952c0,-1.001 -1.007,-2 -2,-2l-35 0c-0.995,0 -2,0.998 -2,2 0,8.793 0,18.207 0,27 0,0.926 -1.119,2 -2,2l-19 0c-1.021,0 -2,-0.972 -2,-2l0 -38c0,-1.027 0.973,-2 2,-2zm68.5 -50c1.381,0 2.5,1.343 2.5,3 0,0.981 -0.393,1.854 -1,2.4l0 2.6c7,-5 7.954,0.842 12,0 3.953,-0.823 9,-6 13,-6 -3.5,8 -3,14 -2,19 -6,2 -8.32,4.201 -12,5 -3.985,0.865 0,-4 -11,-1l0 9 5 0 0 -2 12 0 0.001 13 -93.001 0 0 -13 13 0 0 2 13 0 0 -2 14 0 0 2 14 0 0 -2 14 0 0 2 5 0 0 -28c-0.607,-0.548 -1,-1.681 -1,-3 0,-1.319 1.12,-3 2.5,-3z"/>
 </g>
</svg>
