<?xml version="1.0" encoding="UTF-8"?>
<!DOCTYPE svg PUBLIC "-//W3C//DTD SVG 1.1//EN" "http://www.w3.org/Graphics/SVG/1.1/DTD/svg11.dtd">
<!-- Creator: CorelDRAW 2017 -->
<svg xmlns="http://www.w3.org/2000/svg" xml:space="preserve" width="128px" height="128px" version="1.1" style="shape-rendering:geometricPrecision; text-rendering:geometricPrecision; image-rendering:optimizeQuality; fill-rule:evenodd; clip-rule:evenodd"
viewBox="0 0 128 128"
 xmlns:xlink="http://www.w3.org/1999/xlink">
 <defs>
  <style type="text/css">
   <![CDATA[
    .fil0 {fill:#F5F2D6}
   ]]>
  </style>
 </defs>
 <g id="Camada_x0020_1">
  <metadata id="CorelCorpID_0Corel-Layer"/>
  <path class="fil0" d="M20 52.5l86 0c1.129,0 2.051,0.923 2.051,2.051l0 39.898c0,1.128 -0.922,2.051 -2.051,2.051 -6.309,0 -12.668,0 -18.977,0 -1.024,0 -2.024,-1.008 -2.024,-2.015l0 -28.986c0,-1.1 -0.9,-1.999 -1.999,-1.999l-39 0c-1.099,0 -2,0.899 -2,1.999 0,9.661 0,19.323 0,28.984 0,1.017 -1.001,2.017 -1.975,2.017l-20.025 0c-1.128,0 -2.051,-0.923 -2.051,-2.051l0 -39.898c0,-1.129 0.922,-2.051 2.051,-2.051zm-6 -21l13.012 0 0 3 14.988 0 0 -3 15 0 0 3 16.012 0 0 -3 12.988 0 0 3 15.98 0 0 -3 12.02 0 0 15 -100 0 0 -15z"/>
 </g>
</svg>
