<?xml version="1.0" encoding="UTF-8"?>
<!DOCTYPE svg PUBLIC "-//W3C//DTD SVG 1.1//EN" "http://www.w3.org/Graphics/SVG/1.1/DTD/svg11.dtd">
<!-- Creator: CorelDRAW 2017 -->
<svg xmlns="http://www.w3.org/2000/svg" xml:space="preserve" width="128px" height="128px" version="1.1" style="shape-rendering:geometricPrecision; text-rendering:geometricPrecision; image-rendering:optimizeQuality; fill-rule:evenodd; clip-rule:evenodd"
viewBox="0 0 128 128"
 xmlns:xlink="http://www.w3.org/1999/xlink">
 <defs>
  <style type="text/css">
   <![CDATA[
    .fil0 {fill:#F5F2D6}
   ]]>
  </style>
 </defs>
 <g id="Camada_x0020_1">
  <metadata id="CorelCorpID_0Corel-Layer"/>
  <path class="fil0" d="M21 14l26 0 0 38c0,7.15 -5.85,13 -13,13l-1 0c-6.6,0 -12,-5.4 -12,-12l0 -39zm25 50c19.683,0 39.366,0 59.049,0 -0.696,-2.428 -0.999,-5 -16.688,-5 -8.558,0 -17.115,0 -25.673,0 -15.688,0 -15.992,2.572 -16.688,5zm50 50l-70 0c0.469,-3.441 2,-6 7,-6l3 -3 0 -7c-2,0 -7,-3 -6.906,-7.784 -1.061,-5.306 -2.094,-12.216 -3.094,-17.216 0.098,-1.88 1.128,-3.322 2,-4l74 0c4,0 6,1.446 6,3.997 0,11.003 -15,27.003 -30,27.003l0 5 3.062 3.062c5.938,-0.062 12.458,1.15 14.938,5.938zm-66.126 -95l5.626 0c0.825,0 1.5,0.675 1.5,1.5l0 0c0,0.825 -0.675,1.5 -1.5,1.5l-4.538 0c-0.261,1.696 -1.462,3 -3.712,3 -2.25,0 -3.75,-1.567 -3.75,-3.5 0,-1.933 1.5,-3.5 3.75,-3.5 2.25,0 1.948,0.382 2.624,1z"/>
 </g>
</svg>
