<?xml version="1.0" encoding="UTF-8"?>
<!DOCTYPE svg PUBLIC "-//W3C//DTD SVG 1.1//EN" "http://www.w3.org/Graphics/SVG/1.1/DTD/svg11.dtd">
<!-- Creator: CorelDRAW 2017 -->
<svg xmlns="http://www.w3.org/2000/svg" xml:space="preserve" width="128px" height="128px" version="1.1" style="shape-rendering:geometricPrecision; text-rendering:geometricPrecision; image-rendering:optimizeQuality; fill-rule:evenodd; clip-rule:evenodd"
viewBox="0 0 128 128"
 xmlns:xlink="http://www.w3.org/1999/xlink">
 <defs>
  <style type="text/css">
   <![CDATA[
    .fil0 {fill:#F5F2D6}
   ]]>
  </style>
 </defs>
 <g id="Camada_x0020_1">
  <metadata id="CorelCorpID_0Corel-Layer"/>
  <path class="fil0" d="M16 68l96 0 0 -4 -96 0 0 4zm10 -44l10 0 0 -1c0,-0.551 -1.453,-1 -2,-1l-2 0 0 -5.985c0,-1.015 0,-2.015 -1,-2.015 -1,0 -1,1.001 -1,2.015l0 5.985 -2 0c-0.547,0 -2,0.453 -2,1l0 1zm-8 -3l7 0c-1.5,0 -1.5,1.639 -1.5,3 0,1.65 0.821,2 2.471,2l10.029 0c1.65,0 3,-0.35 3,-2 0,-1.239 -1,-3 -2,-3l21.455 0c-1.246,0.363 -1.455,1.639 -1.455,3 0,1.65 0.35,2 2,2l10.455 0c1.65,0 3.045,-0.35 3.045,-2 0,-1.239 -0.322,-2.56 -1.5,-3l21.029 0c-1.245,0.363 -2.029,1.639 -2.029,3 0,1.65 1.35,2 3,2l10.03 0c1.65,0 3,-0.35 3,-2 0,-1.283 -0.861,-2.575 -2.001,-3l5.971 0 0 41 -92 0 0 -41zm79.997 -7c1,0 1.003,1.001 1.003,2.015l0 5.985 1.997 0c0.547,0 2,0.45 2,1l0 1 -10 0 0 -1c0,-0.548 1.453,-1 2,-1l2.003 0 0 -5.985c0,-1.015 -0.003,-2.015 0.997,-2.015zm-33.997 0c1,0 1,1.001 1,2.015l0 5.985 2.5 0c0.547,0 2,0.45 2,1l0 1 -10.5 0 0 -1c0,-0.548 1.453,-1 2,-1l2 0 0 -5.985c0,-1.015 0,-2.015 1,-2.015zm-5 100l10 0 0 -43 -10 0 0 43zm43.013 -40.943l3.975 0 0 -2.057 -3.975 0 0 2.057zm-19.001 0l3.975 0 0 -2.057 -3.975 0 0 2.057zm-41.987 0l3.975 0 0 -2.057 -3.975 0 0 2.057zm-18.966 0l3.975 0 0 -2.057 -3.975 0 0 2.057z"/>
 </g>
</svg>
