<svg class="img-fluid" id="outputsvg" xmlns="http://www.w3.org/2000/svg" style="transform: matrix(0.591716, 0, 0, 0.591716, 0, 0); transform-origin: 50% 50%; cursor: move; transition: transform 200ms ease-in-out 0s;" width="209" height="252" viewBox="0 0 2090 2520"><g id="l55LwEy8zCcORnhJA4Egq4Q" fill="rgb(250,250,250)" style="transform: none;"><g><path id="p19Ie2xaJ9" d="M0 1260 l0 -1260 1045 0 1045 0 0 1260 0 1260 -1045 0 -1045 0 0 -1260z m1046 584 c3 -99 6 -222 7 -274 3 -130 9 -138 100 -142 l72 -3 -3 -35 c-4 -51 7 -100 23 -100 9 0 16 -18 20 -55 7 -49 10 -55 31 -55 20 0 24 -5 24 -30 0 -20 5 -30 15 -30 10 0 15 -10 15 -30 0 -16 -4 -30 -10 -30 -5 0 -10 -9 -10 -20 0 -11 -4 -20 -10 -20 -13 0 -13 -67 0 -72 15 -5 1 -116 -16 -133 -8 -7 -14 -29 -14 -47 0 -25 -8 -40 -31 -61 -17 -15 -35 -27 -40 -27 -5 0 -9 -6 -9 -14 0 -7 -13 -16 -30 -19 -17 -4 -30 -13 -30 -21 0 -10 -17 -17 -55 -21 -30 -4 -55 -11 -55 -16 0 -5 -22 -9 -50 -9 -38 0 -50 4 -50 15 0 10 -10 15 -34 15 -19 0 -41 7 -50 15 -8 8 -27 15 -43 15 -15 0 -44 3 -63 6 l-35 6 0 56 c0 55 -1 57 -30 63 -16 4 -24 7 -17 8 7 1 12 15 12 36 0 32 -3 35 -29 35 -25 0 -30 5 -35 36 -5 22 -3 41 4 49 8 9 11 43 8 92 -3 72 -1 78 17 81 21 3 45 43 45 74 0 15 7 16 49 11 l49 -6 7 86 c5 54 13 91 21 98 8 6 14 17 14 24 0 7 7 15 15 19 12 4 15 28 16 123 1 65 4 109 7 98 15 -44 36 -65 68 -65 34 0 44 16 44 77 0 17 10 49 22 69 20 34 22 53 24 173 2 152 2 146 10 139 3 -3 7 -86 10 -184z"></path></g></g><g id="l2kpMLvP4A3gUy1mNGGXLcU" fill="rgb(62,6,6)" style="transform: none;"><g><path id="pzHv88jXj" d="M1006 2065 c-11 -17 -17 -45 -16 -78 4 -185 1 -208 -26 -254 -16 -28 -24 -53 -20 -66 3 -12 3 -32 -1 -45 l-5 -23 -16 23 c-9 12 -15 33 -13 47 2 14 -1 21 -8 17 -5 -4 -19 -1 -30 6 -15 9 -23 9 -35 -1 -13 -11 -15 -28 -9 -97 4 -60 3 -84 -6 -84 -6 0 -11 -7 -11 -15 0 -8 5 -15 10 -15 18 0 10 -32 -9 -37 -11 -3 -18 -10 -16 -16 3 -7 -6 -25 -19 -40 -21 -27 -24 -27 -40 -12 -15 15 -16 15 -16 -4 0 -14 -6 -21 -19 -21 -26 0 -34 -15 -17 -30 11 -8 20 -8 35 -1 20 11 51 5 51 -10 0 -5 -11 -9 -24 -9 -35 0 -38 -13 -10 -43 30 -33 30 -40 -1 -25 -13 6 -23 15 -22 21 1 5 -4 12 -10 14 -7 3 -13 -2 -13 -11 0 -21 -18 -30 -35 -16 -12 10 -16 9 -21 -4 -4 -10 0 -22 10 -29 16 -12 16 -15 1 -42 -13 -23 -16 -25 -12 -8 5 21 4 22 -16 8 -12 -9 -23 -20 -23 -25 -1 -6 -2 -16 -3 -24 -1 -10 -12 -14 -31 -14 -26 1 -30 5 -30 27 1 25 1 25 15 7 13 -17 15 -17 20 -3 7 17 -27 57 -47 57 -9 0 -9 -3 -1 -11 14 -14 5 -51 -11 -42 -25 16 23 -44 52 -63 29 -20 30 -23 16 -42 -13 -20 -13 -23 5 -39 11 -9 18 -20 15 -25 -3 -4 -16 4 -29 20 -21 23 -26 25 -35 12 -13 -19 -13 -30 0 -30 20 0 49 -35 47 -57 -1 -19 -3 -19 -22 -7 -19 13 -21 12 -20 -14 0 -19 -7 -30 -22 -37 -27 -11 -29 -21 -7 -29 8 -3 13 -10 10 -15 -3 -5 3 -7 14 -4 22 6 26 23 10 39 -8 8 -6 15 5 24 12 10 19 10 27 2 12 -12 18 -62 7 -62 -4 0 -6 -8 -5 -17 1 -14 -5 -17 -26 -15 -31 3 -36 -9 -12 -29 13 -10 13 -14 1 -20 -17 -10 -15 -48 3 -59 11 -7 11 -11 1 -23 -9 -12 -9 -17 0 -23 7 -4 18 1 26 11 12 18 13 18 13 1 0 -13 5 -17 20 -13 11 3 18 1 14 -4 -7 -13 10 -11 23 2 12 12 6 49 -8 49 -18 0 -8 16 11 17 11 1 20 -4 20 -13 0 -8 5 -14 10 -14 6 0 10 -5 10 -11 0 -5 -4 -8 -9 -5 -5 3 -11 -8 -15 -24 -4 -21 -11 -30 -25 -30 -13 0 -18 -5 -15 -14 7 -18 -13 -31 -29 -19 -18 14 -42 10 -42 -6 0 -9 10 -15 25 -14 36 0 82 21 75 33 -3 5 -1 10 4 10 6 0 11 -4 11 -10 0 -5 5 -10 12 -10 6 0 8 3 5 7 -9 8 12 33 27 33 6 0 12 -8 12 -19 0 -11 -5 -17 -13 -14 -7 3 -13 1 -14 -3 -1 -11 -6 -31 -15 -63 -5 -17 -4 -22 5 -17 6 4 8 12 5 18 -4 7 2 8 17 3 30 -9 37 -17 22 -22 -18 -6 -16 -20 2 -27 18 -6 38 32 25 49 -12 16 -8 44 8 50 18 7 19 6 28 -29 4 -19 3 -27 -3 -23 -6 4 -8 -3 -5 -18 2 -15 0 -25 -7 -25 -6 0 -11 -9 -11 -20 0 -11 -3 -19 -7 -19 -21 3 -33 -2 -33 -16 0 -8 5 -15 10 -15 6 0 10 5 10 11 0 7 9 9 21 6 34 -9 50 2 38 25 -12 23 -5 49 13 46 12 -3 12 3 1 45 -4 14 -1 16 18 13 13 -3 30 -5 37 -5 10 -1 9 -6 -3 -18 -16 -16 -16 -17 1 -30 21 -16 40 -17 49 -3 10 16 55 12 55 -5 0 -8 5 -15 11 -15 7 0 5 10 -5 25 -9 14 -13 24 -9 23 4 0 19 3 33 9 58 24 67 24 73 3 5 -20 37 -29 37 -10 0 6 9 10 21 10 11 0 18 4 15 9 -3 4 -17 6 -32 3 -16 -3 -29 1 -35 9 -12 20 -11 31 3 23 6 -4 21 -8 34 -10 17 -1 21 2 17 13 -5 13 -2 13 15 4 29 -15 32 -14 32 14 0 18 7 26 25 31 14 3 32 4 40 0 13 -4 14 -2 5 14 -10 19 -4 25 22 21 4 0 9 8 13 18 3 11 12 22 20 25 8 3 15 13 15 21 0 9 5 13 10 10 6 -3 10 3 10 14 0 10 -5 21 -12 23 -18 6 32 57 62 62 38 7 38 8 1 15 -19 3 -36 12 -39 20 -3 8 0 11 6 8 5 -4 15 0 22 8 11 13 10 18 -5 29 -17 12 -17 13 0 20 14 5 15 9 5 21 -15 18 1 20 18 3 6 -6 14 -9 18 -6 3 4 -4 16 -16 28 -12 12 -19 24 -16 27 3 4 6 3 6 -2 0 -4 7 -2 15 5 12 10 13 16 4 26 -9 11 -8 20 4 38 13 20 14 25 3 29 -8 3 -19 0 -25 -6 -8 -8 -11 -7 -11 4 0 8 9 20 21 27 16 10 18 16 9 27 -9 10 -7 13 6 11 10 -2 20 -8 22 -15 3 -9 7 -9 18 0 21 17 17 31 -7 24 -14 -5 -19 -3 -15 3 3 6 2 13 -4 17 -5 3 -10 0 -10 -8 0 -10 -7 -13 -21 -10 -16 4 -20 12 -16 30 4 20 1 24 -14 20 -10 -3 -20 2 -24 10 -5 14 -8 13 -27 -3 -21 -19 -21 -19 -9 3 16 31 14 54 -4 47 -22 -9 -19 34 5 74 16 26 17 32 5 32 -8 0 -15 9 -15 20 0 11 -4 20 -9 20 -20 0 -41 33 -41 66 0 40 -26 48 -36 10 -3 -14 -12 -27 -19 -30 -9 -3 -11 2 -8 15 4 13 0 19 -12 19 -9 0 -19 -9 -22 -20 -8 -29 -40 -25 -56 8 -14 28 -12 58 5 80 7 8 7 17 -2 27 -6 8 -9 19 -5 24 3 6 0 30 -6 53 -7 25 -13 116 -13 220 -1 97 -3 178 -6 181 -3 2 -15 7 -26 11 -16 5 -26 0 -38 -19z m293 -688 c8 -11 4 -19 -17 -38 -15 -13 -24 -20 -20 -15 4 5 3 15 -3 22 -7 8 -7 14 1 19 5 3 10 1 10 -4 0 -6 4 -11 9 -11 6 0 8 9 6 20 -5 23 -2 25 14 7z m-668 -577 c-17 -18 -31 -17 -31 3 0 7 11 13 24 13 22 2 23 1 7 -16z"></path><path id="p3kOX5FUS" d="M616 1741 c10 -18 20 -27 23 -20 2 6 -2 15 -9 19 -6 4 -11 11 -10 16 1 5 -4 10 -11 13 -7 2 -4 -9 7 -28z"></path><path id="pxbfzqwTp" d="M1153 1583 c0 -7 8 -13 18 -13 11 0 16 5 13 13 -3 8 -11 14 -18 14 -7 0 -13 -6 -13 -14z"></path><path id="p1CVLjpEz" d="M741 1553 c-1 -12 4 -25 9 -28 12 -7 12 2 0 30 -8 19 -9 19 -9 -2z"></path><path id="p18CkNXtjx" d="M1107 1505 c-7 -16 8 -29 23 -20 10 6 2 35 -10 35 -4 0 -10 -7 -13 -15z"></path><path id="pNhGUyF8G" d="M610 1444 c0 -3 6 -12 14 -20 17 -16 46 -19 46 -4 0 6 -7 10 -15 10 -8 0 -15 5 -15 10 0 6 -7 10 -15 10 -8 0 -15 -3 -15 -6z"></path><path id="pad1GxfwH" d="M681 1396 c-11 -13 -16 -14 -22 -4 -7 10 -9 9 -9 -3 0 -20 29 -34 43 -20 5 5 7 17 5 26 -3 17 -4 17 -17 1z"></path><path id="p19YyzdzK" d="M1455 1350 c-3 -5 -1 -18 4 -27 6 -10 11 -16 11 -13 7 31 7 41 0 45 -5 3 -11 1 -15 -5z"></path><path id="pm4s6SMbP" d="M550 1335 c0 -8 9 -15 20 -15 24 0 27 15 4 24 -22 9 -24 8 -24 -9z"></path><path id="pg5NsN7JB" d="M648 1314 c-9 -8 9 -34 23 -34 5 0 9 5 9 11 0 5 -4 8 -9 4 -5 -3 -11 2 -13 11 -2 9 -6 12 -10 8z"></path><path id="pHF8xokQB" d="M615 1302 c-16 -11 -16 -32 -1 -32 8 0 17 4 20 8 7 12 -8 32 -19 24z"></path><path id="pCmXprkQn" d="M550 1231 c0 -10 7 -18 15 -18 8 0 15 6 15 13 0 6 -7 14 -15 18 -10 3 -15 -1 -15 -13z"></path><path id="p17tPBsbtA" d="M580 1190 c-12 -7 -12 -12 -2 -22 9 -9 15 -9 24 0 16 16 -2 34 -22 22z"></path><path id="p6SUhRDcQ" d="M1440 1080 c0 -5 9 -10 20 -10 11 0 20 5 20 10 0 6 -9 10 -20 10 -11 0 -20 -4 -20 -10z"></path><path id="pAFKX8Pxb" d="M453 1061 c1 -12 6 -20 12 -18 14 5 13 29 -2 34 -7 3 -11 -4 -10 -16z"></path><path id="piSCoqRL2" d="M1430 1013 c0 -13 5 -23 10 -23 13 0 13 11 0 30 -8 12 -10 11 -10 -7z"></path><path id="pD4XKn3y7" d="M490 960 c-15 -28 -6 -37 16 -16 12 12 14 20 6 28 -7 7 -14 3 -22 -12z"></path><path id="p11ifdNVar" d="M1420 905 c0 -8 7 -15 15 -15 8 0 15 7 15 15 0 8 -7 15 -15 15 -8 0 -15 -7 -15 -15z"></path><path id="pOH0xC7MQ" d="M440 865 c7 -8 17 -15 22 -15 6 0 5 7 -2 15 -7 8 -17 15 -22 15 -6 0 -5 -7 2 -15z"></path><path id="pAf4ct9ag" d="M596 381 c-7 -10 22 -37 30 -28 9 8 -3 37 -15 37 -5 0 -12 -4 -15 -9z"></path><path id="pVe4fUePH" d="M736 357 c-22 -16 -14 -37 15 -37 20 0 22 5 11 33 -7 15 -10 16 -26 4z"></path></g></g></svg>