<?xml version="1.0" encoding="UTF-8"?>
<!DOCTYPE svg PUBLIC "-//W3C//DTD SVG 1.1//EN" "http://www.w3.org/Graphics/SVG/1.1/DTD/svg11.dtd">
<!-- Creator: CorelDRAW 2020 (64 Bit) -->
<svg xmlns="http://www.w3.org/2000/svg" xml:space="preserve" width="128px" height="128px" version="1.1" style="shape-rendering:geometricPrecision; text-rendering:geometricPrecision; image-rendering:optimizeQuality; fill-rule:evenodd; clip-rule:evenodd"
viewBox="0 0 128 128"
 xmlns:xlink="http://www.w3.org/1999/xlink"
 xmlns:xodm="http://www.corel.com/coreldraw/odm/2003">
 <defs>
  <style type="text/css">
   <![CDATA[
    .fil0 {fill:#F5F2D6}
   ]]>
  </style>
 </defs>
 <g id="Camada_x0020_1">
  <metadata id="CorelCorpID_0Corel-Layer"/>
  <path class="fil0" d="M64 9c-6.657,-0.712 -13.323,1.28 -20,6 5.941,4.514 9.495,8.138 11,11l0 3 -14 9c-8.092,11.638 -14.003,22.917 -17.456,32.883l12.597 -2.699c1.312,-13.14 11.709,-23.603 24.819,-25.019l3.04 -16.166 3.04 16.166c13.11,1.415 23.507,11.879 24.819,25.019l12.597 2.699c-3.452,-9.966 -9.363,-21.245 -17.456,-32.883l-14 -9 0 -3c1.505,-2.862 5.059,-6.486 11,-11 -6.677,-4.72 -13.343,-6.712 -20,-6zm-40.531 62.1c-2.284,6.652 -3.469,12.714 -3.469,17.9 4,9 14,16 24,20l18.871 0 -1.911 -10.165c-13.11,-1.416 -23.507,-11.88 -24.819,-25.019l-12.672 -2.716zm41.66 37.9l18.871 0c10,-4 20,-11 24,-20 0,-5.186 -1.185,-11.248 -3.469,-17.9l-12.672 2.716c-1.312,13.14 -11.709,23.603 -24.819,25.019l-1.911 10.165zm-1.129 -45c4.419,0 8,3.358 8,7.5 0,4.142 -3.581,7.5 -8,7.5 -4.419,0 -8,-3.358 -8,-7.5 0,-4.142 3.581,-7.5 8,-7.5zm4.214 -14.595c8.789,1.705 15.709,8.642 17.392,17.439l-8.606 -1.844 -7 -6.096 -1.786 -9.499zm17.392 25.751c-1.683,8.797 -8.603,15.734 -17.392,17.439l1.786 -9.499 7 -6.096 8.606 -1.844zm-25.82 17.439c-8.789,-1.705 -15.709,-8.643 -17.392,-17.439l8.606 1.844 7 6.096 1.786 9.499zm-17.392 -25.751c1.683,-8.797 8.603,-15.734 17.392,-17.439l-1.786 9.499 -7 6.096 -8.606 1.844z"/>
 </g>
</svg>
