<?xml version="1.0" encoding="UTF-8"?>
<!DOCTYPE svg PUBLIC "-//W3C//DTD SVG 1.1//EN" "http://www.w3.org/Graphics/SVG/1.1/DTD/svg11.dtd">
<!-- Creator: CorelDRAW 2017 -->
<svg xmlns="http://www.w3.org/2000/svg" xml:space="preserve" width="128px" height="128px" version="1.1" style="shape-rendering:geometricPrecision; text-rendering:geometricPrecision; image-rendering:optimizeQuality; fill-rule:evenodd; clip-rule:evenodd"
viewBox="0 0 128 128"
 xmlns:xlink="http://www.w3.org/1999/xlink">
 <defs>
  <style type="text/css">
   <![CDATA[
    .fil0 {fill:#F5F2D6}
   ]]>
  </style>
 </defs>
 <g id="Camada_x0020_1">
  <metadata id="CorelCorpID_0Corel-Layer"/>
  <path class="fil0" d="M24 29l63 0c3.503,0.512 7,4 7.867,5.896l4.133 17.104 4 0c7,0 11,4.955 11,11l0 25 -7 0c0,-11 -6,-19 -17,-19 -11,0 -17,8 -17,19l-19 0c0,-11 -5.668,-19 -17,-19 -11.332,0 -17,8 -17,19l-6 0 0 -36 0 -13c0,-6.05 3.95,-10 10,-10zm12.749 70.5c7.318,0 13.251,-5.933 13.251,-13.249 0,-7.318 -5.933,-13.251 -13.251,-13.251 -7.316,0 -13.249,5.933 -13.249,13.251 0,7.316 5.933,13.249 13.249,13.249zm53 0c7.318,0 13.251,-5.933 13.251,-13.249 0,-7.318 -5.933,-13.251 -13.251,-13.251 -7.316,0 -13.249,5.933 -13.249,13.251 0,7.316 5.933,13.249 13.249,13.249zm4.222 -47.5l-2.971 -13c-0.412,-1.806 -1,-4 -3,-5l-23 0 0 18 28.971 0zm-34.917 0l0 -18 -24.054 0 0 18 24.054 0z"/>
 </g>
</svg>
