<?xml version="1.0" encoding="UTF-8"?>
<!DOCTYPE svg PUBLIC "-//W3C//DTD SVG 1.1//EN" "http://www.w3.org/Graphics/SVG/1.1/DTD/svg11.dtd">
<!-- Creator: CorelDRAW 2017 -->
<svg xmlns="http://www.w3.org/2000/svg" xml:space="preserve" width="128px" height="128px" version="1.1" style="shape-rendering:geometricPrecision; text-rendering:geometricPrecision; image-rendering:optimizeQuality; fill-rule:evenodd; clip-rule:evenodd"
viewBox="0 0 128 128"
 xmlns:xlink="http://www.w3.org/1999/xlink">
 <defs>
  <style type="text/css">
   <![CDATA[
    .fil0 {fill:#F5F2D6}
   ]]>
  </style>
 </defs>
 <g id="Camada_x0020_1">
  <metadata id="CorelCorpID_0Corel-Layer"/>
  <path class="fil0" d="M111 47c0,17 0,34 0,51l-6 0 0 -31 -37 0 0 31 -6.999 0 0 -31 -38.001 0 0 31 -6 0 0 -51 29.001 0 0 2.999c0,2.201 1.8,4.001 4.001,4.001l26.997 0c2.201,0 4.001,-1.799 4.001,-4.001l0 -2.999 30 0zm-30 -13l33.054 0 0 8 -33.054 0 0 -8zm-32 -4l28 0 0 20 -28 0 0 -20zm7 9l7 0 0 -7 7.001 0 0 7 -7.001 0 0 7.001 -7 0 0 -7.001zm-42 -5l32 0 0 8 -32 0 0 -8zm25.001 26.5l7 0 0 4 -7 0 0 -4zm43.999 0l7 0 0 4 -7 0 0 -4zm-12.006 27.499l29.999 0 0 5.001 -29.999 0 0 -5.001zm0 -7.999l29.999 0 0 5.001 -29.999 0 0 -5.001zm0 -9.001l29.999 0 0 5.001 -29.999 0 0 -5.001zm-43.993 17l29.999 0 0 5.001 -29.999 0 0 -5.001zm0 -7.999l29.999 0 0 5.001 -29.999 0 0 -5.001zm0 -9.001l29.999 0 0 5.001 -29.999 0 0 -5.001z"/>
 </g>
</svg>
