<?xml version="1.0" encoding="UTF-8"?>
<!DOCTYPE svg PUBLIC "-//W3C//DTD SVG 1.1//EN" "http://www.w3.org/Graphics/SVG/1.1/DTD/svg11.dtd">
<!-- Creator: CorelDRAW 2017 -->
<svg xmlns="http://www.w3.org/2000/svg" xml:space="preserve" width="128px" height="128px" version="1.1" style="shape-rendering:geometricPrecision; text-rendering:geometricPrecision; image-rendering:optimizeQuality; fill-rule:evenodd; clip-rule:evenodd"
viewBox="0 0 128 128"
 xmlns:xlink="http://www.w3.org/1999/xlink">
 <defs>
  <style type="text/css">
   <![CDATA[
    .fil0 {fill:#F5F2D6}
   ]]>
  </style>
 </defs>
 <g id="Camada_x0020_1">
  <metadata id="CorelCorpID_0Corel-Layer"/>
  <path class="fil0" d="M85 26l21.001 30 7.999 0 -29 -42 -24.999 42 7.999 0 17 -30zm-71 40l52 0 19 -34 19.001 26 0 56 -4 0 0 -19.999c0,-8 -5.515,-16.001 -13.913,-16.001 -8.372,0 -14.088,8.001 -14.088,16.001l0.177 19.999 -58.177 0 0 -48zm81.999 26c0,-4.838 -3.435,-8.873 -7.998,-9.799 0,9.934 0,19.867 0,29.8l7.999 0c0,-6.691 -0.001,-13.566 -0.001,-20.001zm-19.999 20.001l8 0c0,-9.933 0,-19.868 0,-29.801 -4.565,0.927 -8,4.962 -8,9.8 0,6.436 0,13.31 0,20.001zm9 -63c2.762,0 5,2.238 5,5l0 9.999 -10 0 0 -9.999c0,-2.762 2.239,-5 5,-5zm-37 26.999c3.314,0 6,2.686 6,6l0 12.001 -12.001 0 0 -12.001c0,-3.314 2.686,-6 6.001,-6zm-20.001 0c3.314,0 6,2.686 6,6l0 12.001 -12 0 0 -12.001c0,-3.314 2.686,-6 6,-6z"/>
 </g>
</svg>
