<?xml version="1.0" encoding="UTF-8"?>
<!DOCTYPE svg PUBLIC "-//W3C//DTD SVG 1.1//EN" "http://www.w3.org/Graphics/SVG/1.1/DTD/svg11.dtd">
<!-- Creator: CorelDRAW 2017 -->
<svg xmlns="http://www.w3.org/2000/svg" xml:space="preserve" width="128px" height="128px" version="1.1" style="shape-rendering:geometricPrecision; text-rendering:geometricPrecision; image-rendering:optimizeQuality; fill-rule:evenodd; clip-rule:evenodd"
viewBox="0 0 128 128"
 xmlns:xlink="http://www.w3.org/1999/xlink">
 <defs>
  <style type="text/css">
   <![CDATA[
    .fil0 {fill:#F5F2D6}
   ]]>
  </style>
 </defs>
 <g id="Camada_x0020_1">
  <metadata id="CorelCorpID_0Corel-Layer"/>
  <path class="fil0" d="M16 51l0 52 25.935 0 0.065 -33c0.002,-1.1 0.9,-2 2,-2l39 0c1.1,0 2,0.902 2,2l0.007 33 23.993 0 0 -52 -26.891 0c-4.109,6 -9.108,10 -17.609,10 -8.5,0 -13.5,-4 -17.608,-10l-30.892 0zm46.999 -21l3.002 0c1.099,0 1.999,0.9 1.999,1.999l0 5.002 5.001 0c1.099,0 1.999,0.899 1.999,1.999l0 3.001c0,1.1 -0.9,1.999 -1.999,1.999l-5.001 0 0 5.001c0,1.1 -0.9,1.999 -1.999,1.999l-3.002 0c-1.1,0 -1.999,-0.899 -1.999,-1.999l0 -5.001 -5.001 0c-1.1,0 -1.999,-0.899 -1.999,-1.999l0 -3.001c0,-1.1 0.899,-1.999 1.999,-1.999l5.001 0 0 -5.002c0,-1.099 0.899,-1.999 1.999,-1.999zm3.001 42l16 0 0 29 -16 0 0 -29zm-21 0l18 0 0 29 -18 0 0 -29zm19.5 -15c8.56,0 16.5,-7.94 16.5,-16.5 0,-8.561 -7.94,-16.5 -16.5,-16.5 -8.56,0 -16.5,7.939 -16.5,16.5 0,8.56 7.94,16.5 16.5,16.5zm-51.5 -20l32 0 0 8 -32 0 0 -8zm71 0l29 0 0 8 -29 0 0 -8zm-49 36l-11 0 0 18 11 0 0 -18z"/>
 </g>
</svg>
