<?xml version="1.0" encoding="UTF-8"?>
<!DOCTYPE svg PUBLIC "-//W3C//DTD SVG 1.1//EN" "http://www.w3.org/Graphics/SVG/1.1/DTD/svg11.dtd">
<!-- Creator: CorelDRAW 2017 -->
<svg xmlns="http://www.w3.org/2000/svg" xml:space="preserve" width="128px" height="128px" version="1.1" style="shape-rendering:geometricPrecision; text-rendering:geometricPrecision; image-rendering:optimizeQuality; fill-rule:evenodd; clip-rule:evenodd"
viewBox="0 0 128 128"
 xmlns:xlink="http://www.w3.org/1999/xlink">
 <defs>
  <style type="text/css">
   <![CDATA[
    .fil0 {fill:#F5F2D6}
   ]]>
  </style>
 </defs>
 <g id="Camada_x0020_1">
  <metadata id="CorelCorpID_0Corel-Layer"/>
  <path class="fil0" d="M36 110l35 0 0 -8 -6 0 0 -8 18 0 0 8 -6 0 0 8 14 0c0,-21.667 0,-43.333 0,-65 -3,0 -6,1 -10,-3l-2 0c-2,4 -11,4 -14,0l-2 0c-2,4 -12,4 -14,0l-2 0c-3,4 -8,3 -11,3 0,21.667 0,43.333 0,65zm17 -96l23 0 0 20 -23 0 0 -20zm16 3c-0.668,0.666 -0.996,1.501 -2,2 -6,2 -3,10 -7.954,9.965 -4.046,-2.965 0.954,-11.965 9.954,-11.965zm2 2c0,5 -2.5,11 -9,11l0 0c3.5,-4 1.37,-8.246 7.976,-10.998l1.024 -0.002zm-40 14c6.334,0 12.667,0 19,0l0 3c9.667,0 19.333,0 29,0l0 -3c6,0 12,0 18,0l0 3 -1.04 0c-0.146,3.611 -3.445,7 -7.494,7 -4.049,0 -7.466,-3 -7.494,-7l-0.972 0c0,4 -4.139,7 -8,7 -3.86,0 -7,-2 -7,-6l-2 0c0,3 -3.639,6 -7.5,6 -3.86,0 -7.347,-3.389 -7.494,-7l-1.012 0c0.006,4 -3.445,7 -7.494,7 -4.049,0 -7.348,-3.389 -7.494,-7l-1.006 0 0 -3zm7 42l8 0 0 -19 0 -3 16 0 2.999 0 16.001 0 0 3 0 19 7 0 -5 8 -40 0 -5 -8zm11 0l13 0 0 -19 -13 0 0 19zm15.999 0l13.001 0 0 -19 -13 0 -0.001 0 0 19zm-20.999 3l18 0 2.999 0 18.001 0 -1.25 2 -36.5 0 -1.25 -2zm29 36l2 0 0 -14 6 0 0 -4 -14 0 0 4 6 0 0 14z"/>
 </g>
</svg>
