<?xml version="1.0" encoding="UTF-8"?>
<!DOCTYPE svg PUBLIC "-//W3C//DTD SVG 1.1//EN" "http://www.w3.org/Graphics/SVG/1.1/DTD/svg11.dtd">
<!-- Creator: CorelDRAW 2017 -->
<svg xmlns="http://www.w3.org/2000/svg" xml:space="preserve" width="128px" height="128px" version="1.1" style="shape-rendering:geometricPrecision; text-rendering:geometricPrecision; image-rendering:optimizeQuality; fill-rule:evenodd; clip-rule:evenodd"
viewBox="0 0 128 128"
 xmlns:xlink="http://www.w3.org/1999/xlink">
 <defs>
  <style type="text/css">
   <![CDATA[
    .fil0 {fill:#F5F2D6}
   ]]>
  </style>
 </defs>
 <g id="Camada_x0020_1">
  <metadata id="CorelCorpID_0Corel-Layer"/>
  <path class="fil0" d="M44 51c2.436,-0.857 4.882,-1.566 7.338,-2.126 -0.22,1.49 -0.338,3.037 -0.338,4.625 0,1.229 0.07,2.433 0.204,3.605 -2.736,-0.545 -5.469,-1.246 -8.204,-2.104l1 -4zm-12.5 -20.5c4.833,0 8.5,5.546 8.5,13 0,7.455 -3.667,13 -8.5,13 -4.832,0 -8.5,-5.544 -8.5,-12.998 0,-7.455 3.668,-13.002 8.5,-13.002zm-22 33.5c14.36,-5.744 28.719,-5.988 43.079,-0.735 0.606,1.758 1.37,3.376 2.264,4.812 -6.51,0.859 -13.294,2.498 -20.843,4.923l-1.081 15.85c-8.817,0.075 -17.623,-0.542 -26.419,-1.85l3 -23zm56 -25c5.247,0 9.5,6.716 9.5,15 0,8.284 -4.253,15 -9.5,15 -5.247,0 -9.5,-6.716 -9.5,-15 0,-8.284 4.253,-15 9.5,-15zm-25.5 37c16.878,-5.422 33.875,-5.463 51,0l2 27c-18.374,2.727 -36.706,2.72 -55,0l2 -27zm59 -45.5c4.833,0 8.5,5.546 8.5,13 0,7.455 -3.667,13 -8.5,13 -4.832,0 -8.5,-5.544 -8.5,-12.998 0,-7.455 3.668,-13.002 8.5,-13.002zm-20.654 32.978c14.552,-5.473 29.103,-5.298 43.654,0.522l2 23c-8.65,1.284 -17.289,1.901 -25.919,1.855l-1.081 -15.855c-7.431,-2.37 -14.121,-3.995 -20.539,-4.87l0.094 -0.72c0.69,-1.204 1.291,-2.522 1.791,-3.932zm1.326 -14.542c2.432,0.55 4.875,1.237 7.328,2.064l1 4c-2.735,0.857 -5.47,1.558 -8.204,2.103 0.133,-1.172 0.204,-2.375 0.204,-3.604 0,-1.566 -0.114,-3.092 -0.328,-4.563zm-14.172 -29.936c8,0 8.532,11.506 7.5,17 -2.228,-2.07 -4.677,-3.5 -7.5,-3.5 -2.823,0 -5.272,1.43 -7.5,3.5 -0.859,-4.832 -0.5,-17 7.5,-17z"/>
 </g>
</svg>
