<?xml version="1.0" encoding="UTF-8"?>
<!DOCTYPE svg PUBLIC "-//W3C//DTD SVG 1.1//EN" "http://www.w3.org/Graphics/SVG/1.1/DTD/svg11.dtd">
<!-- Creator: CorelDRAW 2017 -->
<svg xmlns="http://www.w3.org/2000/svg" xml:space="preserve" width="128px" height="128px" version="1.1" style="shape-rendering:geometricPrecision; text-rendering:geometricPrecision; image-rendering:optimizeQuality; fill-rule:evenodd; clip-rule:evenodd"
viewBox="0 0 128 128"
 xmlns:xlink="http://www.w3.org/1999/xlink">
 <defs>
  <style type="text/css">
   <![CDATA[
    .fil0 {fill:#F5F2D6}
   ]]>
  </style>
 </defs>
 <g id="Camada_x0020_1">
  <metadata id="CorelCorpID_0Corel-Layer"/>
  <path class="fil0" d="M46 84l17 0 0 28 -17 0 0 -28zm44 -50l12 0 0 12 -3 -2 -9 4 0 -14zm-70 80l23 0 0 -32c0,-1.1 0.9,-2 2,-2l38 0c1.1,0 2,0.901 2,2l0 32 23 0 0 -60.918 -3 -2.082 0 -37 -3 0 0 17 -12 0 0 -7 -3 0 0 7 -13 0 0 3 13 0 0 15 -17 -7 0 9 -11 0 0 -13 -6 -2 -6 3 0 12 -11 0 0 -6 -10 6 0 -12 -4 0 0 14 -2 2 0 59zm16 -58l11 0 0 18 -11 0 0 -18zm23 0l11 0 0 18 -11 0 0 -18zm23 0l10 0 0 18 -10 0 0 -18z"/>
 </g>
</svg>
