<?xml version="1.0" encoding="UTF-8"?>
<!DOCTYPE svg PUBLIC "-//W3C//DTD SVG 1.1//EN" "http://www.w3.org/Graphics/SVG/1.1/DTD/svg11.dtd">
<!-- Creator: CorelDRAW 2017 -->
<svg xmlns="http://www.w3.org/2000/svg" xml:space="preserve" width="128px" height="128px" version="1.1" style="shape-rendering:geometricPrecision; text-rendering:geometricPrecision; image-rendering:optimizeQuality; fill-rule:evenodd; clip-rule:evenodd"
viewBox="0 0 128 128"
 xmlns:xlink="http://www.w3.org/1999/xlink">
 <defs>
  <style type="text/css">
   <![CDATA[
    .fil0 {fill:#F5F2D6}
   ]]>
  </style>
 </defs>
 <g id="Camada_x0020_1">
  <metadata id="CorelCorpID_0Corel-Layer"/>
  <path class="fil0" d="M14 49l45 0 0 -28 -8 0 0 4 -15 0 -3 -4 -14 0 -5 4.942 0 23.058zm61.999 11l2.001 0 0 -14 3 0 0 14 7 0 0 -14 3 0 0 14 2.001 0c0.55,0 0.999,0.451 0.999,0.999l0 4.001 -6.964 8.915c-0.036,1.085 1.965,3.543 1.965,5.086 0,2.761 -2.239,5 -5.001,5 -2.761,0 -4,-2.24 -4,-5.001 0,-1.5 1,-2.5 2,-3l1 1c-0.777,0.424 -1,0.836 -1,2 0,1.164 0.62,2.501 2,2.501 1.381,0 2.501,-1.12 2.501,-2.5 0,-2.197 -1.501,-0.991 -1.501,-4.001l-1.107 -0.996 -8.893 -8.004 0 -5.001c0,-0.549 0.45,-0.999 0.999,-0.999zm-13.999 -35l39 0 13 13.902 0 3.098 -2 1 -50 0 0 -5 2.956 0 8 -8 -10.956 0 0 -5zm8.614 13l13.764 0 -6.882 -6.882 -6.882 6.882zm29.694 -6.886l-6.885 6.886 12.577 0 -5.692 -6.886zm-11.408 5.751l6.865 -6.865 -13.73 0 6.865 6.865zm-70.9 16.135l5 0 15.025 10.074 15.026 -10.074 4.949 0 0 53c-1.667,0 -3.334,0 -5,0l0 -6.172 -14.975 -10.04 -15.025 10.075 0 6.137c-1.667,0 -3.333,0 -5,0 0,-17.515 0,-35.259 0,-53zm5 42.648l0 -15.934 11.882 7.967 -11.882 7.967zm0 -22.5l0 -15.934 11.882 7.967 -11.882 7.967zm30 -15.9l0 15.866 -11.832 -7.933 11.832 -7.933zm0 22.5l0 15.866 -11.832 -7.933 11.832 -7.933zm-1.338 -3.317l-13.637 9.143 -13.636 -9.143 13.636 -9.143 13.637 9.143z"/>
 </g>
</svg>
