<?xml version="1.0" encoding="UTF-8"?>
<!DOCTYPE svg PUBLIC "-//W3C//DTD SVG 1.1//EN" "http://www.w3.org/Graphics/SVG/1.1/DTD/svg11.dtd">
<!-- Creator: CorelDRAW 2017 -->
<svg xmlns="http://www.w3.org/2000/svg" xml:space="preserve" width="128px" height="128px" version="1.1" style="shape-rendering:geometricPrecision; text-rendering:geometricPrecision; image-rendering:optimizeQuality; fill-rule:evenodd; clip-rule:evenodd"
viewBox="0 0 128 128"
 xmlns:xlink="http://www.w3.org/1999/xlink">
 <defs>
  <style type="text/css">
   <![CDATA[
    .fil0 {fill:#F5F2D6}
   ]]>
  </style>
 </defs>
 <g id="Camada_x0020_1">
  <metadata id="CorelCorpID_0Corel-Layer"/>
  <path class="fil0" d="M64 110.5c25.681,0 46.5,-20.819 46.5,-46.5 0,-25.681 -20.819,-46.5 -46.5,-46.5 -25.681,0 -46.5,20.819 -46.5,46.5 0,25.681 20.819,46.5 46.5,46.5zm0 16.001c34.518,0 62.501,-27.983 62.501,-62.501 0,-34.518 -27.983,-62.501 -62.501,-62.501 -34.518,0 -62.501,27.983 -62.501,62.501 0,34.518 27.983,62.501 62.501,62.501zm0 -9.501c29.271,0 53,-23.729 53,-53 0,-29.271 -23.729,-53 -53,-53 -29.271,0 -53,23.729 -53,53 0,29.271 23.729,53 53,53zm-10 -88l20 0 0 48 -20 0 0 -48zm0 57l20 0 0 13 -20 0 0 -13z"/>
 </g>
</svg>
