<?xml version="1.0" encoding="UTF-8"?>
<!DOCTYPE svg PUBLIC "-//W3C//DTD SVG 1.1//EN" "http://www.w3.org/Graphics/SVG/1.1/DTD/svg11.dtd">
<!-- Creator: CorelDRAW 2017 -->
<svg xmlns="http://www.w3.org/2000/svg" xml:space="preserve" width="128px" height="128px" version="1.1" style="shape-rendering:geometricPrecision; text-rendering:geometricPrecision; image-rendering:optimizeQuality; fill-rule:evenodd; clip-rule:evenodd"
viewBox="0 0 128 128"
 xmlns:xlink="http://www.w3.org/1999/xlink">
 <defs>
  <style type="text/css">
   <![CDATA[
    .fil0 {fill:#F5F2D6}
   ]]>
  </style>
 </defs>
 <g id="Camada_x0020_1">
  <metadata id="CorelCorpID_0Corel-Layer"/>
  <path class="fil0" d="M5.001 113c-3.979,-6.63 -3.019,-4.969 0.999,-12 17,-28.667 34.001,-57.333 51.001,-86 2.927,-4.881 1.611,-5.001 7.037,-5.001 5.355,0 4.068,0.175 6.961,5.001 17,28.667 34.001,57.333 51.001,86 4.016,7.029 4.98,5.37 1,12 -3.296,5.492 -1.739,5 -8,5l-102 0c-6.255,0 -4.707,0.49 -7.999,-5zm50.999 -75l18 0 0 48.001 -18 0 0 -48.001zm0 56.001l18 0 0 12 -18 0 0 -12z"/>
 </g>
</svg>
