<?xml version="1.0" encoding="UTF-8"?>
<!DOCTYPE svg PUBLIC "-//W3C//DTD SVG 1.1//EN" "http://www.w3.org/Graphics/SVG/1.1/DTD/svg11.dtd">
<!-- Creator: CorelDRAW 2017 -->
<svg xmlns="http://www.w3.org/2000/svg" xml:space="preserve" width="128px" height="128px" version="1.1" style="shape-rendering:geometricPrecision; text-rendering:geometricPrecision; image-rendering:optimizeQuality; fill-rule:evenodd; clip-rule:evenodd"
viewBox="0 0 128 128"
 xmlns:xlink="http://www.w3.org/1999/xlink">
 <defs>
  <style type="text/css">
   <![CDATA[
    .fil0 {fill:#F5F2D6}
   ]]>
  </style>
 </defs>
 <g id="Camada_x0020_1">
  <metadata id="CorelCorpID_0Corel-Layer"/>
  <path class="fil0" d="M16 49l24 0 0 -17 31 28.49 -31 28.51 0 -17 -24 0 0 -23zm85 -38l-23 17 0 98 23 -17 0 -98zm-50 -9l62 0 0 106 -7 0 0 -99 -48 0 0 33.022 -7 -6.022 0 -34zm7 77l0 29 -7 0 0 -23 7 -6zm28 -13c3,0 3.5,3.134 3.5,7 0,3.866 -0.5,7 -3.5,7 -3,0 -3.5,-3.134 -3.5,-7 0,-3.866 0.5,-7 3.5,-7z"/>
 </g>
</svg>
