<?xml version="1.0" encoding="UTF-8"?>
<!DOCTYPE svg PUBLIC "-//W3C//DTD SVG 1.1//EN" "http://www.w3.org/Graphics/SVG/1.1/DTD/svg11.dtd">
<!-- Creator: CorelDRAW 2017 -->
<svg xmlns="http://www.w3.org/2000/svg" xml:space="preserve" width="128px" height="128px" version="1.1" style="shape-rendering:geometricPrecision; text-rendering:geometricPrecision; image-rendering:optimizeQuality; fill-rule:evenodd; clip-rule:evenodd"
viewBox="0 0 128 128"
 xmlns:xlink="http://www.w3.org/1999/xlink">
 <defs>
  <style type="text/css">
   <![CDATA[
    .fil0 {fill:#F5F2D6}
   ]]>
  </style>
 </defs>
 <g id="Camada_x0020_1">
  <metadata id="CorelCorpID_0Corel-Layer"/>
  <path class="fil0" d="M22 61l84 0 0 53 -8 0 0 -25c0,-1.099 -0.9,-2 -2,-2l-22 0c-1.1,0 -2,0.9 -2,2l0 25 -50 0 0 -53zm59 -40l18 0 0 36 -18 0 0 -36zm0 -7l18 0 0 3 -18 0 0 -3zm-27 7l18 0 0 36 -18 0 0 -36zm0 -7l18 0 0 3 -18 0 0 -3zm-26 7l18 0 0 36 -18 0 0 -36zm0 -7l18 0 0 3 -18 0 0 -3zm46 75l22 0 0 6 -22 0 0 -6zm0 8l22 0 0 7 -22 0 0 -7zm0 9l22 0 0 7 -22 0 0 -7zm-19 -19l7 0 0 13 -7 0.001 0 -13.001zm-12 0l7 0 0 13.001 -7 0 0 -13.001zm-13 0l7 0 0 13 -7 0.001 0 -13.001zm25 -19l7 -0.001 0 13.001 -7 0 0 -13zm-12 0l7 0 0 13 -7 0 0 -13zm-13 0l7 -0.001 0 13.001 -7 0 0 -13z"/>
 </g>
</svg>
