<?xml version="1.0" encoding="UTF-8"?>
<!DOCTYPE svg PUBLIC "-//W3C//DTD SVG 1.1//EN" "http://www.w3.org/Graphics/SVG/1.1/DTD/svg11.dtd">
<!-- Creator: CorelDRAW 2017 -->
<svg xmlns="http://www.w3.org/2000/svg" xml:space="preserve" width="128px" height="128px" version="1.1" style="shape-rendering:geometricPrecision; text-rendering:geometricPrecision; image-rendering:optimizeQuality; fill-rule:evenodd; clip-rule:evenodd"
viewBox="0 0 128 128"
 xmlns:xlink="http://www.w3.org/1999/xlink">
 <defs>
  <style type="text/css">
   <![CDATA[
    .fil0 {fill:#F5F2D6}
   ]]>
  </style>
 </defs>
 <g id="Camada_x0020_1">
  <metadata id="CorelCorpID_0Corel-Layer"/>
  <path class="fil0" d="M21 114l8 0 0 -20 20 0 0 20 4 0 0 -23.98 0 -24.02 21 0 0 23.937 0 4.063 0 20 4 0 0 -20 21 0 0 20 8 0 0 -61c-2.249,-21.634 -20.771,-39 -43,-39 -22.229,0 -40.751,17.366 -43,39l0 61zm57 -24.053l0 -23.947 21 0 0 23.996 -21 -0.049zm-49 0.054l0 -24.001 20 0 0 24.017 -20 -0.016zm0 -28.001l0 -9c1.545,-12.041 9.351,-22.411 20,-27.551l0 36.551 -20 0zm24 0l0 -38.187c3.47,-1.173 7.17,-1.813 11,-1.813 3.465,0 6.823,0.525 10,1.496l0 38.504 -21 0zm25 0l0 -37.009c11.159,4.971 19.406,15.626 21,28.04l0 8.969 -21 0z"/>
 </g>
</svg>
