<?xml version="1.0" encoding="UTF-8"?>
<!DOCTYPE svg PUBLIC "-//W3C//DTD SVG 1.1//EN" "http://www.w3.org/Graphics/SVG/1.1/DTD/svg11.dtd">
<!-- Creator: CorelDRAW 2017 -->
<svg xmlns="http://www.w3.org/2000/svg" xml:space="preserve" width="128px" height="128px" version="1.1" style="shape-rendering:geometricPrecision; text-rendering:geometricPrecision; image-rendering:optimizeQuality; fill-rule:evenodd; clip-rule:evenodd"
viewBox="0 0 128 128"
 xmlns:xlink="http://www.w3.org/1999/xlink">
 <defs>
  <style type="text/css">
   <![CDATA[
    .fil0 {fill:#F5F2D6}
   ]]>
  </style>
 </defs>
 <g id="Camada_x0020_1">
  <metadata id="CorelCorpID_0Corel-Layer"/>
  <path class="fil0" d="M66 25l33 0 0 24 -33 0 0 -24zm37 13c0,1 2.131,2 5.501,2 3.368,0 5.499,-1 5.499,-2 0,-3 0,-6 0,-9l-11 0c0.001,3 0,6 0,9zm-44.657 0.048l-0.69 0c-0.779,1.14 -2.793,1.952 -5.155,1.952 -2.361,0 -4.376,-0.812 -5.155,-1.952l-0.689 0c-0.779,1.14 -2.794,1.952 -5.155,1.952 -2.362,0 -4.376,-0.812 -5.155,-1.952l-0.69 0c-0.779,1.14 -2.793,1.952 -5.155,1.952 -2.362,0 -4.376,-0.812 -5.155,-1.952l-0.69 0c-0.779,1.14 -2.793,1.952 -5.155,1.952 -2.361,0 -4.376,-0.812 -5.154,-1.952l-0.345 0c0,-3.016 0,-6.032 0,-9.048l48 0c0,3.629 0,7.258 0,10.887 -1.69,-0.26 -3.049,-0.95 -3.657,-1.839zm-41.343 4.952l45 0 0 7c0,1.65 1.35,3 3,3l35 0c1.65,0 3,-1.35 3,-3l0 -7 7.001 0 0 60 -60.001 0 0 -34c0,-1.1 -0.9,-2 -2,-2l-22 0c-1.1,0 -2,0.9 -2,2l0 34 -7 0 0 -60zm40 22l24 0 0 20 -24 0 0 -20zm26 0l24 0 0 20 -24 0 0 -20zm-55 6l18 0 0 30 -18 0 0 -30zm45 -29l18 0 0 3 -18 0 0 -3zm9 -13c2,0 9,2 9,6l-18 0c0,-4 7,-6 9,-6zm-8.5 8l17 0c0.825,0 1.5,0.675 1.5,1.5 0,0.825 -0.675,1.5 -1.5,1.5l-17 0c-0.825,0 -1.5,-0.675 -1.5,-1.5 0,-0.825 0.675,-1.5 1.5,-1.5z"/>
 </g>
</svg>
