<?xml version="1.0" encoding="UTF-8"?>
<!DOCTYPE svg PUBLIC "-//W3C//DTD SVG 1.1//EN" "http://www.w3.org/Graphics/SVG/1.1/DTD/svg11.dtd">
<!-- Creator: CorelDRAW 2017 -->
<svg xmlns="http://www.w3.org/2000/svg" xml:space="preserve" width="128px" height="128px" version="1.1" style="shape-rendering:geometricPrecision; text-rendering:geometricPrecision; image-rendering:optimizeQuality; fill-rule:evenodd; clip-rule:evenodd"
viewBox="0 0 128 128"
 xmlns:xlink="http://www.w3.org/1999/xlink">
 <defs>
  <style type="text/css">
   <![CDATA[
    .fil0 {fill:#F2EFD4}
   ]]>
  </style>
 </defs>
 <g id="Camada_x0020_1">
  <metadata id="CorelCorpID_0Corel-Layer"/>
  <path class="fil0" d="M65.5 80.5c0,-7.776 5.433,-12.689 12.5,-12.501 16.216,0.436 17.351,23.976 0.009,24.296 -7.512,0.14 -12.509,-4.795 -12.509,-11.795zm-56.65 -32.5l8.15 8c25.416,-22.877 44.999,-35.999 81,-43l-2 -11c-28.001,0 -75.624,27.03 -87.15,46zm74.149 -17.001c7,0 12.002,5.501 12.002,12.001 0.001,7.261 -6.001,13.002 -13.001,13 -6,0 -12,-3.383 -12,-12 0,-8.307 4.993,-13.001 12.999,-13.001zm-62.149 28.001l87.002 67 -10.001 -107.001c-30.779,5.675 -57.032,18.846 -77.001,40.001z"/>
 </g>
</svg>
