<?xml version="1.0" encoding="UTF-8"?>
<!DOCTYPE svg PUBLIC "-//W3C//DTD SVG 1.1//EN" "http://www.w3.org/Graphics/SVG/1.1/DTD/svg11.dtd">
<!-- Creator: CorelDRAW 2017 -->
<svg xmlns="http://www.w3.org/2000/svg" xml:space="preserve" width="128px" height="128px" version="1.1" style="shape-rendering:geometricPrecision; text-rendering:geometricPrecision; image-rendering:optimizeQuality; fill-rule:evenodd; clip-rule:evenodd"
viewBox="0 0 128 128"
 xmlns:xlink="http://www.w3.org/1999/xlink">
 <defs>
  <style type="text/css">
   <![CDATA[
    .fil0 {fill:#F5F2D6}
   ]]>
  </style>
 </defs>
 <g id="Camada_x0020_1">
  <metadata id="CorelCorpID_0Corel-Layer"/>
  <path class="fil0" d="M14 29l32 0 0 8 -32 0 0 -8zm36 -4l31 0 0 23 -31 0 0 -23zm15.5 4c4.142,0 7.5,3.358 7.5,7.5 0,4.142 -3.358,7.5 -7.5,7.5 -4.142,0 -7.5,-3.358 -7.5,-7.5l7.5 0 0 -7.5zm29.5 59l15.001 0 0 15 -15.001 0 0 -15zm-20 -17l17 0 0 30 -17 0 0 -30zm-19 0l16 0 0 30 -16 0 0 -30zm-20 0l17 0 0 30 -17 0 0 -30zm-19 14l15 0 0 -16c0,-1.1 0.9,-2 2,-2l59 0c1.1,0 2,0.901 2,2l0 16 15.001 0 0 -42 -25.001 0 0 5.001c0,2.198 -1.801,3.999 -3.999,3.999l-31.001 0c-2.199,0 -3.999,-1.799 -3.999,-3.999l0 -5.001 -29.001 0 0 42zm0 3l15 0 0 15 -15 0 0 -15zm68 -59l29 0 0 8 -29 0 0 -8z"/>
 </g>
</svg>
