<?xml version="1.0" encoding="UTF-8"?>
<!DOCTYPE svg PUBLIC "-//W3C//DTD SVG 1.1//EN" "http://www.w3.org/Graphics/SVG/1.1/DTD/svg11.dtd">
<!-- Creator: CorelDRAW 2017 -->
<svg xmlns="http://www.w3.org/2000/svg" xml:space="preserve" width="128px" height="128px" version="1.1" style="shape-rendering:geometricPrecision; text-rendering:geometricPrecision; image-rendering:optimizeQuality; fill-rule:evenodd; clip-rule:evenodd"
viewBox="0 0 128 128"
 xmlns:xlink="http://www.w3.org/1999/xlink">
 <defs>
  <style type="text/css">
   <![CDATA[
    .fil0 {fill:#F5F2D6}
   ]]>
  </style>
 </defs>
 <g id="Camada_x0020_1">
  <metadata id="CorelCorpID_0Corel-Layer"/>
  <path class="fil0" d="M20 98l17 0 0 -46 55.094 0 -0.092 46 15.998 0 0 -55 -44 -10 -44 10 0 55zm-6 -60l50 -12 50 12 0 -8 -48 -12 -4 0 -48 12 0 8zm26 45l49 0 0 10 -49 0 0 -10zm0 -13l49 0 0 10 -49 0 0 -10zm0 -14l49 0 0 11 -49 0 0 -11z"/>
 </g>
</svg>
