<?xml version="1.0" encoding="UTF-8"?>
<!DOCTYPE svg PUBLIC "-//W3C//DTD SVG 1.1//EN" "http://www.w3.org/Graphics/SVG/1.1/DTD/svg11.dtd">
<!-- Creator: CorelDRAW 2017 -->
<svg xmlns="http://www.w3.org/2000/svg" xml:space="preserve" width="128px" height="128px" version="1.1" style="shape-rendering:geometricPrecision; text-rendering:geometricPrecision; image-rendering:optimizeQuality; fill-rule:evenodd; clip-rule:evenodd"
viewBox="0 0 128 128"
 xmlns:xlink="http://www.w3.org/1999/xlink">
 <defs>
  <style type="text/css">
   <![CDATA[
    .fil0 {fill:#F5F2D6}
   ]]>
  </style>
 </defs>
 <g id="Camada_x0020_1">
  <metadata id="CorelCorpID_0Corel-Layer"/>
  <path class="fil0" d="M45 98l60 0 0 -72c0,-7.151 -5.851,-12 -13,-12l-33.999 0c-7.15,0 -13.001,4.85 -13.001,12l0 24 -7 0 0 6 7 0 0 16.068c-8.234,1.113 -7,16.072 -7,19.682 0,2.907 0,14.75 -3,14.75 -2,0 -3.5,-4.5 -3.5,-12.5l-0.5 -20 -3 0 0 19c0,9 2,17 6.5,17 6.5,0 6.5,-10 6.5,-12l0 -6.25 0.5 -8.75c0.263,-4.247 1.121,-6.36 3.5,-7l0 22zm-5 -69l-2 -3 -7 4 -4 10 6 0 2 -6.5 5 -4.5zm-12 39l3 0c1.1,0 2,0.9 2,2l0 1c0,1.1 -0.9,2 -2,2l-3 0c-1.1,0 -2,-0.9 -2,-2l0 -1c0,-1.1 0.9,-2 2,-2zm-1.001 -26l5.001 0c2.201,0 4,1.8 4,4l0 18c0,2.2 -1.8,3 -4,3l-5.001 0c-2.199,0 -3.999,-0.8 -3.999,-3l0 -18c0,-2.2 1.799,-4 3.999,-4zm18.001 59l60 0 0 10c0,1.65 -1.35,3 -3,3l-54 0c-1.65,0 -3,-1.35 -3,-3l0 -10zm11 -79l38 0c1.65,0 3,1.352 3,3l0 18c0,1.648 -1.352,3 -3,3l-38 0c-1.648,0 -3,-1.35 -3,-3l0 -18c0,-1.65 1.35,-3 3,-3z"/>
 </g>
</svg>
