<?xml version="1.0" encoding="UTF-8"?>
<!DOCTYPE svg PUBLIC "-//W3C//DTD SVG 1.1//EN" "http://www.w3.org/Graphics/SVG/1.1/DTD/svg11.dtd">
<!-- Creator: CorelDRAW 2017 -->
<svg xmlns="http://www.w3.org/2000/svg" xml:space="preserve" width="128px" height="128px" version="1.1" style="shape-rendering:geometricPrecision; text-rendering:geometricPrecision; image-rendering:optimizeQuality; fill-rule:evenodd; clip-rule:evenodd"
viewBox="0 0 128 128"
 xmlns:xlink="http://www.w3.org/1999/xlink">
 <defs>
  <style type="text/css">
   <![CDATA[
    .fil0 {fill:#F5F2D6}
   ]]>
  </style>
 </defs>
 <g id="Camada_x0020_1">
  <metadata id="CorelCorpID_0Corel-Layer"/>
  <path class="fil0" d="M18.001 17.999l37 0.001 42.999 43 0.001 57c0,4.393 -3.606,8 -8.001,8l-71.999 0c-4.401,0 -8.001,-3.6 -8.001,-8l0 -92c0,-4.401 3.601,-8.001 8.001,-8.001zm56.999 1.001l8 8c16.447,-15.074 20.65,-24.998 43.002,-25.002l-0.001 8.001c-19.28,4.452 -20.921,10.922 -35.002,25.001l8.001 8 -6 6 -24.999 -24.001 6.999 -5.999zm-48.002 13l23.002 0c2.201,0 4,1.799 4,3.999 0,2.202 -1.799,4 -4.001,4l-23.002 0c-2.192,0 -3.997,-1.798 -3.997,-3.999 0,-2.201 1.798,-4 3.998,-4z"/>
 </g>
</svg>
