<svg class="img-fluid" id="outputsvg" xmlns="http://www.w3.org/2000/svg" style="transform: matrix(1, 0, 0, 1, -34, 109); transform-origin: 50% 50%; cursor: move; max-height: none; transition: none 0s ease 0s;" width="64" height="64" viewBox="0 0 640 640"><g id="l2kaU34VvCF1fnCChOyMbm8" fill="rgb(0,203,102)" style="transform: none;"><g><path id="p15pmMYRM9" d="M124 612 c-48 -35 -102 -96 -115 -129 -12 -32 -12 -295 1 -328 14 -36 95 -120 135 -139 25 -12 66 -16 173 -16 78 0 152 4 165 9 33 13 94 67 129 115 28 39 28 40 28 195 0 168 -1 170 -59 235 -14 16 -44 41 -65 57 l-39 29 -157 0 c-156 0 -157 0 -196 -28z"></path></g></g><g id="l5ebJ4qAsrz3iRBLo6BZ4DU" fill="rgb(255,255,255)" style="transform: none;"><g><path id="pxYvCnL0j" d="M0 320 l0 -320 320 0 320 0 0 320 0 320 -320 0 -320 0 0 -320z m420 294 c76 -23 171 -118 194 -194 20 -68 20 -132 0 -200 -12 -42 -29 -67 -77 -115 -93 -91 -196 -117 -318 -78 -76 24 -168 116 -192 192 -22 68 -22 134 0 202 24 74 119 171 189 192 65 20 138 21 204 1z"></path><path id="p1195HLDmC" d="M242 473 c-41 -20 -82 -78 -82 -115 0 -31 18 -38 26 -10 23 76 66 112 134 112 68 0 111 -36 134 -112 8 -28 26 -21 26 10 0 38 -42 96 -83 116 -44 20 -112 20 -155 -1z"></path><path id="p1C4r8bwzD" d="M170 226 c0 -18 27 -46 45 -46 18 0 45 28 45 47 0 14 -3 14 -20 -2 -18 -17 -21 -17 -45 -1 -21 14 -25 14 -25 2z"></path><path id="p8jKyLLUh" d="M380 227 c0 -19 27 -47 45 -47 15 0 45 27 45 41 0 12 -7 11 -31 -2 -16 -8 -25 -7 -40 7 -17 15 -19 15 -19 1z"></path></g></g></svg>