<?xml version="1.0" encoding="UTF-8"?>
<!DOCTYPE svg PUBLIC "-//W3C//DTD SVG 1.1//EN" "http://www.w3.org/Graphics/SVG/1.1/DTD/svg11.dtd">
<!-- Creator: CorelDRAW 2017 -->
<svg xmlns="http://www.w3.org/2000/svg" xml:space="preserve" width="128px" height="128px" version="1.1" style="shape-rendering:geometricPrecision; text-rendering:geometricPrecision; image-rendering:optimizeQuality; fill-rule:evenodd; clip-rule:evenodd"
viewBox="0 0 128 128"
 xmlns:xlink="http://www.w3.org/1999/xlink">
 <defs>
  <style type="text/css">
   <![CDATA[
    .fil0 {fill:#F5F2D6}
   ]]>
  </style>
 </defs>
 <g id="Camada_x0020_1">
  <metadata id="CorelCorpID_0Corel-Layer"/>
  <path class="fil0" d="M46 2l36 0c0,13.333 0,26.667 0,40 0,2.201 1.799,4 4,4l40 0 0 36 -40 0c-2.201,0 -4,1.799 -4,4l0 40 -36 0 0 -40c0,-2.201 -1.799,-4 -4,-4l-40 0 0 -36 40 0c2.201,0 4,-1.799 4,-4 0,-13.333 0,-26.667 0,-40z"/>
 </g>
</svg>
