<?xml version="1.0" encoding="UTF-8"?>
<!DOCTYPE svg PUBLIC "-//W3C//DTD SVG 1.1//EN" "http://www.w3.org/Graphics/SVG/1.1/DTD/svg11.dtd">
<!-- Creator: CorelDRAW 2017 -->
<svg xmlns="http://www.w3.org/2000/svg" xml:space="preserve" width="128px" height="128px" version="1.1" style="shape-rendering:geometricPrecision; text-rendering:geometricPrecision; image-rendering:optimizeQuality; fill-rule:evenodd; clip-rule:evenodd"
viewBox="0 0 128 128"
 xmlns:xlink="http://www.w3.org/1999/xlink">
 <defs>
  <style type="text/css">
   <![CDATA[
    .fil0 {fill:#CBE615}
   ]]>
  </style>
 </defs>
 <g id="Camada_x0020_1">
  <metadata id="CorelCorpID_0Corel-Layer"/>
  <path id="p1BRhhSb00" class="fil0" d="M62 71l-1 -29c0,-3 0,-7.061 4.987,-7.046l15.013 0.046 28.022 15.044c1.978,1.456 1.978,1.456 -1.022,2.956 -3,2 -3.622,0.556 -13,-3 -7.301,-2.6 -9,-5 -10.279,-2.056 -0.499,0.8 -3,-0.2 -7.999,-3.1 -11.601,-6.8 -8.901,-4.1 4.8,4.6 6.899,4.4 13.278,8.457 13.478,9.056 0.2,0.5 -0.7,1.9 -2,2.5 -4,2 -8.109,-2.893 -9,-2l-1 11 9 43 -7 0 -12.5 -35 -2.5 36 -7 0 -1 -43zm-13.177 -19.056c4.163,-2.887 5.551,-9.543 2.612,-12.431 -2.285,-2.245 -4.407,-2.004 -6.856,0.803 -5.386,6.335 -1.958,15.879 4.244,11.628l0 0zm6.177 7.056c0,-2.249 -1,-5 -4,-5l-11 0 -21 12c-1.484,1.091 -2.249,1.875 0,3 2.249,1.5 3.97,-0.333 11,-3 4,-1 6.041,-4.207 7,-2 0.374,0.6 2.46,-0.446 6.208,-2.62 8.696,-5.098 7.063,-2.902 -3.208,3.62 -5.172,3.299 -9.688,6.012 -11,7 -0.15,0.375 1.025,1.55 2,2 2.999,1.499 6.083,-2.677 6.751,-2.008l1.249 8.008 -6 34 5 0 8.5 -27 3.252 27 5.248 0 0 -55zm12.75 -27.75c-5.1,-3.6 -6.629,-11.806 -3.029,-15.406 2.8,-2.8 5.401,-2.5 8.4,1 7.879,8.156 3.12,20.847 -5.371,14.406z"/>
 </g>
</svg>
