<?xml version="1.0" encoding="UTF-8"?>
<!DOCTYPE svg PUBLIC "-//W3C//DTD SVG 1.1//EN" "http://www.w3.org/Graphics/SVG/1.1/DTD/svg11.dtd">
<!-- Creator: CorelDRAW 2017 -->
<svg xmlns="http://www.w3.org/2000/svg" xml:space="preserve" width="128px" height="128px" version="1.1" style="shape-rendering:geometricPrecision; text-rendering:geometricPrecision; image-rendering:optimizeQuality; fill-rule:evenodd; clip-rule:evenodd"
viewBox="0 0 128 128"
 xmlns:xlink="http://www.w3.org/1999/xlink">
 <defs>
  <style type="text/css">
   <![CDATA[
    .fil0 {fill:#F5F2D6}
   ]]>
  </style>
 </defs>
 <g id="Camada_x0020_1">
  <metadata id="CorelCorpID_0Corel-Layer"/>
  <path class="fil0" d="M53 106l0 -13 21 0 0 13 -21 0zm1 -27c0,-7.7 2.4,-13.05 10.4,-22.45 8.001,-9.4 9.4,-12.8 7.6,-18.3 -1.3,-3.9 -3.499,-5.5 -7.5,-5.5 -5.7,0 -9.5,5 -9.5,12.5l0 3.75 -18 0 0 -4.65c0,-5.401 2.4,-12.301 5.3,-15.401 5,-5.4 9.3,-7.449 21.7,-7.449 10.8,0 11.8,0.949 16.7,3.65 6.9,3.799 10.3,10.1 10.3,19 0,7.7 -2.5,13.2 -9.2,20.9 -5.2,6 -7.7,11.1 -7.8,16l0 2.95 -20 0 0 -5z"/>
 </g>
</svg>
