<?xml version="1.0" encoding="UTF-8"?>
<!DOCTYPE svg PUBLIC "-//W3C//DTD SVG 1.1//EN" "http://www.w3.org/Graphics/SVG/1.1/DTD/svg11.dtd">
<!-- Creator: CorelDRAW 2020 (64 Bit) -->
<svg xmlns="http://www.w3.org/2000/svg" xml:space="preserve" width="128px" height="128px" version="1.1" style="shape-rendering:geometricPrecision; text-rendering:geometricPrecision; image-rendering:optimizeQuality; fill-rule:evenodd; clip-rule:evenodd"
viewBox="0 0 128 128"
 xmlns:xlink="http://www.w3.org/1999/xlink"
 xmlns:xodm="http://www.corel.com/coreldraw/odm/2003">
 <defs>
  <style type="text/css">
   <![CDATA[
    .fil0 {fill:#F5F2D6}
   ]]>
  </style>
 </defs>
 <g id="Camada_x0020_1">
  <metadata id="CorelCorpID_0Corel-Layer"/>
  <path class="fil0" d="M32 35l13 0 9 60 -3 0 -19 -60zm-4 70l72 0 -17 -7 -38 0 -17 7zm70 -30l-11 0 -7 20 4 0 14 -20zm-68 0l11 0 7 20 -4 0 -14 -20zm18 -52c10.667,0 21.334,0 32,0l-10 72c-4,0 -8,0 -12,0l-10 -72zm48 12l-13 0 -9 60 3 0 19 -60z"/>
 </g>
</svg>
