<?xml version="1.0" encoding="UTF-8"?>
<!DOCTYPE svg PUBLIC "-//W3C//DTD SVG 1.1//EN" "http://www.w3.org/Graphics/SVG/1.1/DTD/svg11.dtd">
<!-- Creator: CorelDRAW 2017 -->
<svg xmlns="http://www.w3.org/2000/svg" xml:space="preserve" width="128px" height="128px" version="1.1" style="shape-rendering:geometricPrecision; text-rendering:geometricPrecision; image-rendering:optimizeQuality; fill-rule:evenodd; clip-rule:evenodd"
viewBox="0 0 128 128"
 xmlns:xlink="http://www.w3.org/1999/xlink">
 <defs>
  <style type="text/css">
   <![CDATA[
    .fil0 {fill:#F5F2D6}
   ]]>
  </style>
 </defs>
 <g id="Camada_x0020_1">
  <metadata id="CorelCorpID_0Corel-Layer"/>
  <path class="fil0" d="M27.5 1l73 0c9.075,0 16.5,7.425 16.5,16.5l0 93c0,9.075 -7.425,16.5 -16.5,16.5l-73 0c-9.075,0 -16.5,-7.425 -16.5,-16.5l0 -93c0,-9.075 7.425,-16.5 16.5,-16.5zm6.5 16l60.001 0c3.85,0 6.999,3.149 6.999,6.999l0 80.002c0,3.85 -3.149,6.999 -6.999,6.999l-60.001 0c-3.851,0 -7,-3.149 -7,-6.999l0 -80.002c0,-3.85 3.149,-6.999 7,-6.999zm40 65l17 0 0 9 -17 0 0 -9zm-37 -55l54 0 0 9 -54 0 0 -9zm0 14l54 0 0 9 -54 0 0 -9zm-5.113 -30l64.226 0c6.05,0 11,4.949 11,10.999l0 84.002c0,6.05 -4.95,10.999 -11,10.999l-64.226 0c-6.05,0 -11,-4.949 -11,-10.999l0 -84.002c0,-6.05 4.95,-10.999 11,-10.999z"/>
 </g>
</svg>
