<?xml version="1.0" encoding="UTF-8"?>
<!DOCTYPE svg PUBLIC "-//W3C//DTD SVG 1.1//EN" "http://www.w3.org/Graphics/SVG/1.1/DTD/svg11.dtd">
<!-- Creator: CorelDRAW 2017 -->
<svg xmlns="http://www.w3.org/2000/svg" xml:space="preserve" width="128px" height="128px" version="1.1" style="shape-rendering:geometricPrecision; text-rendering:geometricPrecision; image-rendering:optimizeQuality; fill-rule:evenodd; clip-rule:evenodd"
viewBox="0 0 128 128"
 xmlns:xlink="http://www.w3.org/1999/xlink">
 <defs>
  <style type="text/css">
   <![CDATA[
    .fil0 {fill:#F5F2D6}
   ]]>
  </style>
 </defs>
 <g id="Camada_x0020_1">
  <metadata id="CorelCorpID_0Corel-Layer"/>
  <path class="fil0" d="M20 41l88 0 0 19 -88 0 0 -19zm-6 -4l100 0 -5 -7 -22 -6 -46 0 -22 6 -5 7zm42 61l17 0 0 6 -17 0 0 -6zm-41 -35l98 0 0 41 -9.999 0 -0.001 -25c0,-5 -5.634,-10 -11.5,-10 -5.027,0 -11.501,5.003 -11.5,10l0 25 -5 0 0 -22.001c0,-1.1 -0.903,-1.999 -2,-1.999l-17 0c-1.097,0 -2,0.903 -2,1.999l0 22.001 -5 0 0 -25c0,-4.997 -6.473,-10 -11.5,-10 -4.708,0 -11.5,5 -11.5,10l0 25 -11 0 0 -41zm41 20l17 0 0 5 -17 0 0 -5zm0 7l17 0 0 6 -17 0 0 -6zm-20 -46l6 0 0 12 -6 0 0 -12zm49 0l7 0 0 12 -7 0 0 -12zm-11.968 0l6 0 0 12 -6 0 0 -12zm-12.032 0l6 0 0 12 -6 0 0 -12zm-13 0l7 0 0 12 -7 0 0 -12z"/>
 </g>
</svg>
