<?xml version="1.0" encoding="UTF-8"?>
<!DOCTYPE svg PUBLIC "-//W3C//DTD SVG 1.1//EN" "http://www.w3.org/Graphics/SVG/1.1/DTD/svg11.dtd">
<!-- Creator: CorelDRAW 2017 -->
<svg xmlns="http://www.w3.org/2000/svg" xml:space="preserve" width="128px" height="128px" version="1.1" style="shape-rendering:geometricPrecision; text-rendering:geometricPrecision; image-rendering:optimizeQuality; fill-rule:evenodd; clip-rule:evenodd"
viewBox="0 0 128 128"
 xmlns:xlink="http://www.w3.org/1999/xlink">
 <defs>
  <style type="text/css">
   <![CDATA[
    .fil0 {fill:#F5F2D6}
   ]]>
  </style>
 </defs>
 <g id="Camada_x0020_1">
  <metadata id="CorelCorpID_0Corel-Layer"/>
  <path class="fil0" d="M54 41.999l46.001 0 0 34.001 -46.001 0 0 -34.001zm-30.001 76.002l-21.999 -32 0 -34.001 22 29 -0.001 37.001zm26.001 -44.001l-26.001 -30 0 -30 26.001 25.999 0 34.001zm-24 2l-22.001 -28 18 0 24.001 28 -20 0zm28 -38l-26.001 -26.001 44.001 0 26.001 26.001 -44.001 0zm70.001 38l-18 -14.001 -2 0.001 0 14 20 0zm-44.001 6l46.002 0 0 36.001 -46.002 0 0 -36.001zm-52.001 0l46 0 0 36.001 -46 0 0 -36.001z"/>
 </g>
</svg>
