<?xml version="1.0" encoding="UTF-8"?>
<!DOCTYPE svg PUBLIC "-//W3C//DTD SVG 1.1//EN" "http://www.w3.org/Graphics/SVG/1.1/DTD/svg11.dtd">
<!-- Creator: CorelDRAW 2017 -->
<svg xmlns="http://www.w3.org/2000/svg" xml:space="preserve" width="128px" height="128px" version="1.1" style="shape-rendering:geometricPrecision; text-rendering:geometricPrecision; image-rendering:optimizeQuality; fill-rule:evenodd; clip-rule:evenodd"
viewBox="0 0 128 128"
 xmlns:xlink="http://www.w3.org/1999/xlink">
 <defs>
  <style type="text/css">
   <![CDATA[
    .fil0 {fill:#F5F2D6}
   ]]>
  </style>
 </defs>
 <g id="Camada_x0020_1">
  <metadata id="CorelCorpID_0Corel-Layer"/>
  <path class="fil0" d="M21 89l-7 0c7.598,-17.009 13.716,-34.776 17,-54 23.91,3.459 47.898,4.174 72,1 0.662,22.742 4.743,41.225 11,57l-75 0c-4.594,-11.56 -7.171,-25.471 -7.5,-42 -2.932,13.061 -5,25.5 -10.5,38zm48.5 -45c10.042,0 19.59,8.683 21,18.5 1.41,9.817 -5.958,18.5 -16,18.5 -10.042,0 -21.5,-9.971 -21.5,-22 0,-7.467 6.457,-15 16.5,-15zm4.5 5l-9 0 1 9 -9 0 2 9 9 0 1 9 9 0 -1.5 -9 9.5 0 -2 -9 -9 0 -1 -9zm-5.107 -8c12.105,0 22.907,9.666 24.607,21.5 1.7,11.833 -6.395,21.5 -18.5,21.5 -12.104,0 -25,-11 -25,-25.5 0,-9 6.788,-17.5 18.893,-17.5z"/>
 </g>
</svg>
