<?xml version="1.0" encoding="UTF-8"?>
<!DOCTYPE svg PUBLIC "-//W3C//DTD SVG 1.1//EN" "http://www.w3.org/Graphics/SVG/1.1/DTD/svg11.dtd">
<!-- Creator: CorelDRAW 2017 -->
<svg xmlns="http://www.w3.org/2000/svg" xml:space="preserve" width="128px" height="128px" version="1.1" style="shape-rendering:geometricPrecision; text-rendering:geometricPrecision; image-rendering:optimizeQuality; fill-rule:evenodd; clip-rule:evenodd"
viewBox="0 0 128 128"
 xmlns:xlink="http://www.w3.org/1999/xlink">
 <defs>
  <style type="text/css">
   <![CDATA[
    .fil0 {fill:#F5F2D6}
   ]]>
  </style>
 </defs>
 <g id="Camada_x0020_1">
  <metadata id="CorelCorpID_0Corel-Layer"/>
  <path class="fil0" d="M83 74l6 -6 0 -6 -7 -7 3 -3 7 7 5 0 14 -13 3 3 -13 13 0 5 13 14 -3.144 3.303 -12.856 -14.303 -6 0 -6 7 -3 -3zm-38 0l-6 -6 0 -6 7 -7 -3 -3 -7 7 -5 0 -14 -13 -3 3 13 13 0 5 -13 14 3.144 3.303 12.856 -14.303 6 0 6 7 3 -3zm-15 -13l0 7 7 0 -7 -7zm9 24l17 -17 0 -8 -17 -17 4 -4 17 17 8 0 17 -17 4 4 -18 18 0 7 18 17 -4 4 -17 -17 -8 0 -17 17 -4 -4zm20 -26l10 10 -10 0 0 -10zm33 2l7 7 -7 0 0 -7z"/>
 </g>
</svg>
