<?xml version="1.0" encoding="UTF-8"?>
<!DOCTYPE svg PUBLIC "-//W3C//DTD SVG 1.1//EN" "http://www.w3.org/Graphics/SVG/1.1/DTD/svg11.dtd">
<!-- Creator: CorelDRAW 2017 -->
<svg xmlns="http://www.w3.org/2000/svg" xml:space="preserve" width="128px" height="128px" version="1.1" style="shape-rendering:geometricPrecision; text-rendering:geometricPrecision; image-rendering:optimizeQuality; fill-rule:evenodd; clip-rule:evenodd"
viewBox="0 0 128 128"
 xmlns:xlink="http://www.w3.org/1999/xlink">
 <defs>
  <style type="text/css">
   <![CDATA[
    .fil0 {fill:#F5F2D6}
   ]]>
  </style>
 </defs>
 <g id="Camada_x0020_1">
  <metadata id="CorelCorpID_0Corel-Layer"/>
  <path class="fil0" d="M17 14l94 0 0 7 -94 0 0 -7zm3 13l87 0 0 87 -23 0 0 -30c0,-1.65 -1.353,-3 -3,-3l-35 0c-1.647,0 -3,1.354 -3,3l0 30 -23 0 0 -87zm46 57l15 0 0 28 -15 0 0 -28zm-20 0l17 0 0 28 -17 0 0 -28zm-10 -28l11 0 0 18 -11 0 0 -18zm45 -23l11 0 0 18 -11 0 0 -18zm0 23l11 0 0 18 -11 0 0 -18zm-22 -23l10 0 0 18 -10 0 0 -18zm0 23l10 0 0 18 -10 0 0 -18zm-23 -23l11 0 0 18 -11 0 0 -18z"/>
 </g>
</svg>
