<?xml version="1.0" encoding="UTF-8"?>
<!DOCTYPE svg PUBLIC "-//W3C//DTD SVG 1.1//EN" "http://www.w3.org/Graphics/SVG/1.1/DTD/svg11.dtd">
<!-- Creator: CorelDRAW 2017 -->
<svg xmlns="http://www.w3.org/2000/svg" xml:space="preserve" width="128px" height="128px" version="1.1" style="shape-rendering:geometricPrecision; text-rendering:geometricPrecision; image-rendering:optimizeQuality; fill-rule:evenodd; clip-rule:evenodd"
viewBox="0 0 128 128"
 xmlns:xlink="http://www.w3.org/1999/xlink">
 <defs>
  <style type="text/css">
   <![CDATA[
    .fil0 {fill:black}
    .fil1 {fill:#FF1D1D}
   ]]>
  </style>
 </defs>
 <g id="Camada_x0020_1">
  <metadata id="CorelCorpID_0Corel-Layer"/>
  <g id="_1386869852688">
   <path class="fil0" d="M64.283 30.502c14.505,0 25.983,14.464 25.983,31.999 0,17.534 -11.495,30 -26,30 -14.505,0 -26.001,-12.466 -26.001,-30 0,-17.535 11.513,-31.999 26.018,-31.999z"/>
   <path class="fil1" d="M65.496 97.97c0.857,-0.036 2.666,-0.376 3.504,-0.47l0.5 5.501c0.292,3.209 -1.04,5.735 -1.5,8.5 0,3 1.619,3.999 3,3.999 1.381,0 3,-0.999 3,-3.999 -0.46,-2.757 -1.804,-5.297 -1.5,-8.5l0.585 -6.172c0.731,-0.194 1.451,-0.412 2.161,-0.652 0.352,0.788 1.047,1.323 1.847,1.323 1.527,0 2.186,-1.604 2.07,-2.931 10.596,-5.165 17.837,-15.767 17.837,-29.068 0,-19.001 -27,-48.001 -33,-55.001 -6,7 -33,37.563 -33,55.001 0,17.437 9.976,27.47 24,30.999 0,4 -1,7.33 -1,8.501 0,1.171 1.119,2.5 2.5,2.5 1.381,0 2.5,-1.36 2.5,-2.5 0,-1.14 -0.811,-4.428 -0.5,-7.501 1.212,0.213 1.756,0.329 3.011,0.415 -0.23,1.482 0.077,3.586 1.989,3.586 1.88,0 2.219,-2.058 1.996,-3.531zm-1.055 -15.47l-0.928 0c-0.444,0.608 -1.159,1.001 -2.013,1.001 -1.324,0 -2,-1.12 -2,-2.501 0,-0.418 1.935,-3.274 3.444,-4.563 1.06,-0.906 1.07,-0.795 2.12,0.004 1.579,1.2 3.436,4.132 3.436,4.559 0,1.381 -0.721,2.501 -2.045,2.501 -0.855,0 -1.57,-0.393 -2.014,-1.001zm9.809 -16.999c-3.175,0 -6.25,0.79 -6.25,3 0,2.209 4.825,6 8,6 3.175,0 4,-3.501 4,-6 0,-2.5 -2.574,-3 -5.75,-3zm-20.5 0c3.175,0 6.25,0.79 6.25,3 0,2.209 -4.825,6 -8,6 -3.175,0 -4,-3.501 -4,-6 0,-2.5 2.574,-3 5.75,-3zm10.25 -33.001c13.255,0 24,12.001 24,25 0,4.137 -1.089,7.412 -3,9.955l0 1.6c1.618,1.04 2,2.05 2,4.445 0,2.788 -4.608,7.824 -11.064,7.995 0.042,0.983 0.064,2.065 0.064,3.255 0,3.728 -5.373,6.75 -12,6.75 -6.627,0 -12,-3.022 -12,-6.75 0,-1.186 0.021,-2.266 0.06,-3.251 -6.576,-0.049 -11.06,-5.184 -11.06,-7.999 0,-2.419 0.382,-3.411 2,-4.447l0 -1.598c-1.911,-2.543 -3,-5.818 -3,-9.955 0,-12.999 10.745,-25 24,-25z"/>
  </g>
 </g>
</svg>
