<?xml version="1.0" encoding="UTF-8"?>
<!DOCTYPE svg PUBLIC "-//W3C//DTD SVG 1.1//EN" "http://www.w3.org/Graphics/SVG/1.1/DTD/svg11.dtd">
<!-- Creator: CorelDRAW 2017 -->
<svg xmlns="http://www.w3.org/2000/svg" xml:space="preserve" width="128px" height="128px" version="1.1" style="shape-rendering:geometricPrecision; text-rendering:geometricPrecision; image-rendering:optimizeQuality; fill-rule:evenodd; clip-rule:evenodd"
viewBox="0 0 128 128"
 xmlns:xlink="http://www.w3.org/1999/xlink">
 <defs>
  <style type="text/css">
   <![CDATA[
    .fil0 {fill:#3E0606}
    .fil1 {fill:#FF1D1D}
   ]]>
  </style>
 </defs>
 <g id="Camada_x0020_1">
  <metadata id="CorelCorpID_0Corel-Layer"/>
  <path id="pzHv88jXj" class="fil0" d="M67.635 125.388c-0.816,-1.262 -1.262,-3.341 -1.187,-5.791 0.296,-13.734 0.074,-15.441 -1.931,-18.856 -1.187,-2.078 -1.781,-3.935 -1.485,-4.9 0.223,-0.891 0.223,-2.375 -0.074,-3.341l-0.371 -1.707 -1.188 1.707c-0.667,0.892 -1.113,2.45 -0.965,3.489 0.149,1.04 -0.074,1.56 -0.594,1.263 -0.371,-0.297 -1.411,-0.074 -2.227,0.445 -1.114,0.668 -1.707,0.668 -2.598,-0.074 -0.966,-0.817 -1.114,-2.079 -0.668,-7.201 0.297,-4.455 0.222,-6.236 -0.446,-6.236 -0.445,0 -0.816,-0.52 -0.816,-1.114 0,-0.594 0.371,-1.114 0.743,-1.114 1.336,0 0.741,-2.375 -0.669,-2.746 -0.817,-0.223 -1.336,-0.743 -1.188,-1.188 0.223,-0.52 -0.445,-1.856 -1.41,-2.969 -1.559,-2.005 -1.782,-2.005 -2.97,-0.892 -1.113,1.114 -1.187,1.114 -1.187,-0.296 0,-1.039 -0.446,-1.559 -1.411,-1.559 -1.93,0 -2.523,-1.113 -1.262,-2.227 0.817,-0.594 1.485,-0.594 2.598,-0.074 1.486,0.816 3.787,0.37 3.787,-0.743 0,-0.372 -0.817,-0.668 -1.782,-0.668 -2.598,0 -2.821,-0.965 -0.743,-3.193 2.227,-2.449 2.227,-2.969 -0.074,-1.855 -0.965,0.446 -1.707,1.113 -1.633,1.559 0.074,0.371 -0.297,0.89 -0.743,1.039 -0.519,0.223 -0.965,-0.149 -0.965,-0.817 0,-1.559 -1.336,-2.227 -2.598,-1.187 -0.891,0.742 -1.188,0.668 -1.559,-0.297 -0.297,-0.742 0,-1.634 0.743,-2.153 1.187,-0.891 1.187,-1.114 0.074,-3.119 -0.965,-1.706 -1.187,-1.855 -0.89,-0.593 0.37,1.558 0.296,1.633 -1.188,0.593 -0.891,-0.668 -1.708,-1.484 -1.708,-1.855 -0.074,-0.446 -0.149,-1.188 -0.222,-1.782 -0.074,-0.742 -0.892,-1.039 -2.301,-1.039 -1.931,0.074 -2.228,0.371 -2.228,2.005 0.074,1.855 0.074,1.855 1.113,0.519 0.966,-1.262 1.115,-1.262 1.486,-0.223 0.519,1.262 -2.005,4.232 -3.49,4.232 -0.667,0 -0.667,-0.223 -0.074,-0.817 1.039,-1.04 0.371,-3.786 -0.817,-3.118 -1.855,1.188 1.708,-3.267 3.861,-4.677 2.153,-1.485 2.227,-1.708 1.187,-3.118 -0.965,-1.485 -0.965,-1.707 0.371,-2.896 0.818,-0.667 1.337,-1.485 1.114,-1.855 -0.222,-0.297 -1.187,0.296 -2.152,1.484 -1.56,1.708 -1.93,1.857 -2.598,0.891 -0.966,-1.41 -0.966,-2.227 0,-2.227 1.484,0 3.637,-2.598 3.488,-4.232 -0.074,-1.41 -0.223,-1.41 -1.633,-0.519 -1.411,0.965 -1.559,0.891 -1.485,-1.04 0,-1.41 -0.519,-2.227 -1.633,-2.746 -2.005,-0.817 -2.153,-1.56 -0.52,-2.153 0.594,-0.223 0.965,-0.743 0.743,-1.114 -0.223,-0.371 0.222,-0.519 1.039,-0.297 1.633,0.445 1.93,1.707 0.742,2.895 -0.594,0.595 -0.445,1.114 0.371,1.782 0.891,0.743 1.411,0.743 2.005,0.149 0.891,-0.892 1.337,-4.603 0.519,-4.603 -0.296,0 -0.445,-0.594 -0.371,-1.262 0.075,-1.039 -0.37,-1.262 -1.93,-1.113 -2.301,0.222 -2.672,-0.669 -0.891,-2.154 0.965,-0.742 0.965,-1.039 0.075,-1.484 -1.262,-0.743 -1.114,-3.564 0.223,-4.38 0.816,-0.52 0.816,-0.817 0.074,-1.708 -0.668,-0.89 -0.668,-1.262 0,-1.708 0.52,-0.295 1.337,0.075 1.93,0.818 0.891,1.336 0.965,1.336 0.965,0.074 0,-0.965 0.372,-1.262 1.485,-0.965 0.817,0.222 1.336,0.073 1.039,-0.297 -0.519,-0.966 0.743,-0.817 1.708,0.148 0.891,0.891 0.445,3.638 -0.594,3.638 -1.337,0 -0.594,1.187 0.816,1.262 0.817,0.074 1.485,-0.297 1.485,-0.965 0,-0.594 0.371,-1.04 0.742,-1.04 0.446,0 0.743,-0.371 0.743,-0.816 0,-0.371 -0.297,-0.594 -0.668,-0.371 -0.371,0.222 -0.816,-0.594 -1.114,-1.781 -0.297,-1.56 -0.816,-2.228 -1.856,-2.228 -0.965,0 -1.336,-0.371 -1.113,-1.04 0.519,-1.336 -0.965,-2.301 -2.153,-1.41 -1.336,1.04 -3.119,0.743 -3.119,-0.445 0,-0.668 0.743,-1.114 1.856,-1.04 2.673,0 6.088,1.559 5.568,2.45 -0.222,0.372 -0.074,0.742 0.297,0.742 0.445,0 0.817,-0.297 0.817,-0.742 0,-0.371 0.371,-0.743 0.89,-0.743 0.446,0 0.595,0.223 0.372,0.52 -0.669,0.595 0.89,2.45 2.004,2.45 0.446,0 0.891,-0.594 0.891,-1.41 0,-0.817 -0.371,-1.262 -0.965,-1.04 -0.52,0.223 -0.965,0.075 -1.04,-0.222 -0.074,-0.817 -0.445,-2.302 -1.113,-4.678 -0.372,-1.262 -0.297,-1.633 0.371,-1.262 0.445,0.297 0.594,0.891 0.371,1.337 -0.296,0.519 0.149,0.594 1.262,0.222 2.228,-0.667 2.747,-1.262 1.634,-1.633 -1.337,-0.445 -1.188,-1.484 0.148,-2.004 1.337,-0.446 2.821,2.375 1.856,3.637 -0.891,1.189 -0.594,3.267 0.595,3.713 1.336,0.519 1.409,0.445 2.078,-2.153 0.297,-1.411 0.222,-2.005 -0.223,-1.708 -0.446,0.297 -0.595,-0.222 -0.371,-1.336 0.148,-1.114 0,-1.856 -0.52,-1.856 -0.445,0 -0.816,-0.668 -0.816,-1.485 0,-0.816 -0.223,-1.411 -0.52,-1.411 -1.559,0.223 -2.45,-0.148 -2.45,-1.187 0,-1.435 1.485,-1.395 1.485,-0.297 0,0.519 0.668,0.668 1.559,0.445 2.524,-0.668 3.712,0.149 2.821,1.856 -0.891,1.708 -0.372,3.638 0.965,3.416 0.891,-0.224 0.891,0.222 0.074,3.34 -0.297,1.039 -0.074,1.187 1.336,0.965 0.966,-0.223 2.228,-0.372 2.748,-0.372 0.742,-0.074 0.668,-0.444 -0.223,-1.336 -1.188,-1.188 -1.188,-1.262 0.074,-2.227 1.559,-1.188 2.969,-1.262 3.638,-0.223 0.742,1.188 4.083,0.891 4.083,-0.371 0,-0.594 0.371,-1.113 0.816,-1.113 0.52,0 0.371,0.742 -0.37,1.855 -0.669,1.04 -0.966,1.782 -0.669,1.708 0.297,0 1.41,0.222 2.45,0.668 4.305,1.781 4.974,1.781 5.419,0.223 0.371,-1.485 2.747,-2.153 2.747,-0.743 0,0.446 0.668,0.743 1.558,0.743 0.818,0 1.337,0.297 1.115,0.668 -0.223,0.297 -1.262,0.445 -2.376,0.223 -1.188,-0.223 -2.153,0.074 -2.598,0.667 -0.891,1.485 -0.817,2.302 0.223,1.708 0.445,-0.297 1.558,-0.594 2.524,-0.742 1.261,-0.075 1.558,0.148 1.261,0.965 -0.371,0.965 -0.147,0.965 1.115,0.297 2.152,-1.114 2.375,-1.039 2.375,1.039 0,1.336 0.519,1.93 1.856,2.301 1.039,0.223 2.376,0.297 2.969,0 0.965,-0.297 1.04,-0.148 0.372,1.04 -0.743,1.41 -0.297,1.855 1.633,1.559 0.297,0 0.668,0.593 0.965,1.336 0.222,0.816 0.891,1.633 1.485,1.856 0.594,0.223 1.113,0.965 1.113,1.558 0,0.669 0.371,0.966 0.743,0.743 0.445,-0.222 0.742,0.223 0.742,1.04 0,0.742 -0.371,1.559 -0.89,1.706 -1.337,0.446 2.375,4.232 4.602,4.604 2.821,0.519 2.821,0.593 0.074,1.113 -1.41,0.222 -2.673,0.891 -2.895,1.484 -0.222,0.595 0,0.818 0.446,0.595 0.371,-0.297 1.113,0 1.633,0.594 0.816,0.965 0.742,1.336 -0.371,2.153 -1.262,0.891 -1.262,0.965 0,1.484 1.039,0.372 1.113,0.669 0.371,1.559 -1.114,1.337 0.074,1.486 1.336,0.224 0.446,-0.446 1.04,-0.669 1.336,-0.446 0.224,0.297 -0.296,1.187 -1.187,2.078 -0.891,0.891 -1.411,1.782 -1.188,2.005 0.223,0.296 0.446,0.222 0.446,-0.148 0,-0.297 0.52,-0.149 1.113,0.37 0.891,0.743 0.965,1.189 0.297,1.93 -0.668,0.817 -0.594,1.486 0.297,2.822 0.965,1.484 1.04,1.856 0.223,2.153 -0.594,0.223 -1.41,0 -1.856,-0.446 -0.594,-0.594 -0.816,-0.52 -0.816,0.297 0,0.594 0.668,1.485 1.558,2.004 1.188,0.743 1.337,1.188 0.669,2.005 -0.669,0.742 -0.521,0.965 0.445,0.816 0.742,-0.148 1.485,-0.594 1.633,-1.113 0.223,-0.668 0.519,-0.668 1.337,0 1.558,1.262 1.262,2.302 -0.52,1.781 -1.039,-0.371 -1.411,-0.222 -1.114,0.223 0.223,0.445 0.149,0.965 -0.297,1.262 -0.371,0.223 -0.742,0 -0.742,-0.594 0,-0.742 -0.519,-0.965 -1.559,-0.742 -1.187,0.297 -1.485,0.891 -1.187,2.227 0.296,1.485 0.074,1.782 -1.04,1.485 -0.742,-0.223 -1.485,0.148 -1.782,0.742 -0.371,1.039 -0.594,0.966 -2.004,-0.223 -1.559,-1.41 -1.559,-1.41 -0.668,0.223 1.188,2.301 1.039,4.009 -0.296,3.489 -1.634,-0.667 -1.411,2.525 0.37,5.493 1.188,1.931 1.262,2.376 0.371,2.376 -0.594,0 -1.113,0.669 -1.113,1.485 0,0.817 -0.297,1.485 -0.668,1.485 -1.485,0 -3.044,2.45 -3.044,4.9 0,2.969 -1.93,3.564 -2.672,0.742 -0.223,-1.039 -0.892,-2.004 -1.411,-2.227 -0.668,-0.222 -0.816,0.148 -0.594,1.114 0.297,0.965 0,1.41 -0.891,1.41 -0.668,0 -1.41,-0.668 -1.633,-1.484 -0.594,-2.154 -2.969,-1.857 -4.157,0.594 -1.04,2.078 -0.891,4.305 0.371,5.939 0.519,0.593 0.519,1.262 -0.149,2.004 -0.445,0.594 -0.667,1.41 -0.371,1.781 0.223,0.446 0,2.228 -0.445,3.935 -0.52,1.857 -0.966,8.612 -0.966,16.332 -0.073,7.202 -0.222,13.215 -0.445,13.438 -0.223,0.148 -1.113,0.519 -1.93,0.816 -1.188,0.372 -1.93,0 -2.821,-1.411l-0.003 0.002zm-42.017 -89.085c0.519,-0.594 1.262,-1.114 1.633,-1.114 0.446,0 0.372,0.52 -0.149,1.114 -0.519,0.594 -1.262,1.113 -1.633,1.113 -0.445,0 -0.371,-0.519 0.149,-1.113zm72.752 2.97c0,-0.595 0.519,-1.114 1.113,-1.114 0.594,0 1.114,0.519 1.114,1.114 0,0.593 -0.52,1.113 -1.114,1.113 -0.594,0 -1.113,-0.52 -1.113,-1.113zm-69.041 4.082c-1.113,-2.078 -0.446,-2.746 1.188,-1.187 0.891,0.891 1.039,1.484 0.446,2.079 -0.52,0.519 -1.039,0.222 -1.634,-0.892zm69.782 3.935c0,-0.965 0.372,-1.708 0.743,-1.708 0.965,0 0.965,0.818 0,2.229 -0.594,0.89 -0.743,0.816 -0.743,-0.521l0 0zm-72.528 3.564c0.074,-0.891 0.445,-1.486 0.891,-1.337 1.039,0.372 0.965,2.153 -0.149,2.524 -0.52,0.223 -0.817,-0.297 -0.742,-1.187zm73.271 1.41c0,-0.371 0.668,-0.742 1.484,-0.742 0.817,0 1.486,0.371 1.486,0.742 0,0.445 -0.669,0.742 -1.486,0.742 -0.816,0 -1.484,-0.297 -1.484,-0.742zm-63.843 8.166c-0.891,-0.52 -0.891,-0.89 -0.149,-1.633 0.668,-0.668 1.114,-0.668 1.782,0 1.188,1.187 -0.149,2.524 -1.633,1.633zm-2.228 3.044c0,-0.743 0.52,-1.337 1.114,-1.337 0.594,0 1.114,0.446 1.114,0.966 0,0.445 -0.52,1.039 -1.114,1.336 -0.742,0.222 -1.114,-0.075 -1.114,-0.965zm4.826 5.271c-1.188,-0.816 -1.188,-2.376 -0.074,-2.376 0.593,0 1.262,0.297 1.484,0.594 0.52,0.892 -0.594,2.376 -1.41,1.782zm2.45 0.891c-0.669,-0.594 0.668,-2.524 1.707,-2.524 0.371,0 0.668,0.371 0.668,0.816 0,0.371 -0.297,0.594 -0.668,0.297 -0.371,-0.223 -0.817,0.149 -0.965,0.816 -0.149,0.668 -0.446,0.892 -0.742,0.595l0 0zm-7.276 1.559c0,-0.594 0.668,-1.113 1.485,-1.113 1.782,0 2.005,1.113 0.297,1.781 -1.633,0.668 -1.782,0.594 -1.782,-0.668zm8.093 4.231c-0.521,0.742 -0.668,0.668 -0.668,-0.223 0,-1.485 2.152,-2.524 3.192,-1.485 0.371,0.372 0.519,1.262 0.371,1.931 -0.524,2.96 -1.648,-2.302 -2.895,-0.223zm-2.6 2.375c1.263,-1.187 3.416,-1.41 3.416,-0.296 0,0.445 -0.519,0.742 -1.114,0.742 -0.594,0 -1.113,0.371 -1.113,0.742 0,0.446 -0.52,0.743 -1.114,0.743 -0.594,0 -1.114,-0.223 -1.114,-0.446 0,0 0.939,-1.383 1.039,-1.485zm37.564 4.529c0.743,0.446 0.149,2.599 -0.742,2.599 -0.297,0 -0.742,-0.521 -0.965,-1.114 -0.521,-1.193 0.601,-2.149 1.707,-1.485zm-28.209 2.97c0.89,-0.52 0.89,0.148 0,2.227 -0.594,1.411 -0.668,1.411 -0.668,-0.148 0,-0.587 0.09,-1.733 0.668,-2.079zm29.917 4.305c0,-0.519 0.594,-0.965 1.337,-0.965 0.816,0 1.187,0.371 0.965,0.965 -0.223,0.595 -0.816,1.04 -1.337,1.04 -0.52,0 -0.965,-0.446 -0.965,-1.04zm10.838 -15.293c0.594,-0.816 0.297,-1.41 -1.262,-2.821 -1.114,-0.965 -1.781,-1.484 -1.485,-1.114 0.297,0.372 0.224,1.114 -0.222,1.634 -0.52,0.594 -0.52,1.039 0.074,1.411 0.372,0.223 0.743,0.074 0.743,-0.297 0,-0.446 0.297,-0.817 0.668,-0.817 0.445,0 0.594,0.668 0.445,1.485 -0.371,1.707 -0.149,1.856 1.039,0.52l0 -0.001zm-49.589 -42.834c-1.262,-1.336 -2.302,-1.263 -2.302,0.222 0,0.52 0.817,0.965 1.781,0.965 1.635,0.149 1.708,0.075 0.521,-1.187l0 0z"/>
  <path class="fil1" d="M66.691 61.523c0.415,-0.017 1.29,-0.182 1.696,-0.228l0.242 2.662c0.141,1.554 -0.503,2.776 -0.727,4.114 0,1.452 0.784,1.936 1.453,1.936 0.667,0 1.451,-0.484 1.451,-1.936 -0.222,-1.334 -0.873,-2.563 -0.726,-4.114l0.284 -2.987c0.353,-0.093 0.702,-0.199 1.046,-0.315 0.17,0.381 0.506,0.64 0.893,0.64 0.74,0 1.058,-0.776 1.002,-1.418 5.128,-2.5 8.632,-7.631 8.632,-14.068 0,-9.195 -13.066,-23.23 -15.97,-26.618 -2.904,3.388 -15.97,18.179 -15.97,26.618 0,8.439 4.827,13.295 11.614,15.003 0,1.935 -0.483,3.546 -0.483,4.113 0,0.567 0.541,1.21 1.209,1.21 0.669,0 1.21,-0.657 1.21,-1.21 0,-0.551 -0.392,-2.143 -0.241,-3.63 0.586,0.104 0.849,0.159 1.456,0.201 -0.111,0.718 0.038,1.736 0.963,1.736 0.909,0 1.074,-0.997 0.966,-1.709zm-0.511 -7.487l-0.449 0c-0.215,0.294 -0.561,0.484 -0.974,0.484 -0.641,0 -0.968,-0.542 -0.968,-1.21 0,-0.202 0.937,-1.585 1.667,-2.208 0.513,-0.438 0.518,-0.385 1.026,0.002 0.764,0.58 1.663,1.999 1.663,2.206 0,0.668 -0.35,1.21 -0.99,1.21 -0.414,0 -0.76,-0.19 -0.975,-0.484zm4.748 -8.227c-1.537,0 -3.026,0.383 -3.026,1.452 0,1.069 2.335,2.904 3.873,2.904 1.536,0 1.935,-1.694 1.935,-2.904 0,-1.21 -1.246,-1.452 -2.782,-1.452zm-9.922 0c1.537,0 3.025,0.383 3.025,1.452 0,1.069 -2.335,2.904 -3.871,2.904 -1.537,0 -1.936,-1.694 -1.936,-2.904 0,-1.21 1.246,-1.452 2.782,-1.452zm4.961 -15.971c6.415,0 11.615,5.808 11.615,12.1 0,2.001 -0.527,3.586 -1.452,4.817l0 0.774c0.782,0.503 0.968,0.993 0.968,2.151 0,1.35 -2.23,3.787 -5.355,3.87 0.02,0.476 0.032,0.999 0.032,1.575 0,1.804 -2.601,3.267 -5.808,3.267 -3.207,0 -5.807,-1.463 -5.807,-3.267 0,-0.574 0.01,-1.097 0.029,-1.573 -3.183,-0.024 -5.353,-2.509 -5.353,-3.872 0,-1.17 0.185,-1.65 0.968,-2.152l0 -0.773c-0.925,-1.231 -1.452,-2.816 -1.452,-4.817 0,-6.292 5.2,-12.1 11.615,-12.1z"/>
 </g>
</svg>
