<?xml version="1.0" encoding="UTF-8"?>
<!DOCTYPE svg PUBLIC "-//W3C//DTD SVG 1.1//EN" "http://www.w3.org/Graphics/SVG/1.1/DTD/svg11.dtd">
<!-- Creator: CorelDRAW 2017 -->
<svg xmlns="http://www.w3.org/2000/svg" xml:space="preserve" width="128px" height="128px" version="1.1" style="shape-rendering:geometricPrecision; text-rendering:geometricPrecision; image-rendering:optimizeQuality; fill-rule:evenodd; clip-rule:evenodd"
viewBox="0 0 128 128"
 xmlns:xlink="http://www.w3.org/1999/xlink">
 <defs>
  <style type="text/css">
   <![CDATA[
    .fil0 {fill:#FF1D1D}
   ]]>
  </style>
 </defs>
 <g id="Camada_x0020_1">
  <metadata id="CorelCorpID_0Corel-Layer"/>
  <path class="fil0" d="M65.496 98.469c0.857,-0.035 2.666,-0.375 3.504,-0.469l0.5 5.5c0.292,3.209 -1.04,5.735 -1.5,8.5 0,3 1.619,4 3,4 1.381,0 3,-1 3,-4 -0.46,-2.757 -1.804,-5.296 -1.5,-8.5l0.585 -6.172c0.731,-0.193 1.451,-0.412 2.161,-0.652 0.352,0.788 1.047,1.324 1.847,1.324 1.527,0 2.186,-1.604 2.07,-2.932 10.596,-5.165 17.837,-15.767 17.837,-29.068 0,-19 -27,-48.001 -33,-55 -6,7 -33,37.562 -33,55 0,17.438 9.976,27.471 24,31 0,4 -1,7.329 -1,8.501 0,1.171 1.119,2.499 2.5,2.499 1.381,0 2.5,-1.359 2.5,-2.499 0,-1.141 -0.811,-4.428 -0.5,-7.501 1.212,0.213 1.756,0.328 3.011,0.414 -0.23,1.483 0.077,3.586 1.989,3.586 1.88,0 2.219,-2.058 1.996,-3.531zm-1.055 -15.469l-0.928 0c-0.444,0.608 -1.159,1 -2.013,1 -1.324,0 -2,-1.119 -2,-2.5 0,-0.418 1.935,-3.275 3.444,-4.563 1.06,-0.906 1.07,-0.795 2.12,0.003 1.579,1.2 3.436,4.132 3.436,4.56 0,1.381 -0.721,2.5 -2.045,2.5 -0.855,0 -1.57,-0.392 -2.014,-1zm9.809 -17c-3.175,0 -6.25,0.791 -6.25,3 0,2.209 4.825,6 8,6 3.175,0 4,-3.5 4,-6 0,-2.5 -2.574,-3 -5.75,-3zm-20.5 0c3.175,0 6.25,0.791 6.25,3 0,2.209 -4.825,6 -8,6 -3.175,0 -4,-3.5 -4,-6 0,-2.5 2.574,-3 5.75,-3zm10.25 -33c13.255,0 24,12 24,25 0,4.136 -1.089,7.411 -3,9.955l0 1.599c1.618,1.04 2,2.051 2,4.446 0,2.788 -4.608,7.823 -11.064,7.994 0.042,0.984 0.064,2.065 0.064,3.256 0,3.728 -5.373,6.75 -12,6.75 -6.627,0 -12,-3.022 -12,-6.75 0,-1.187 0.021,-2.267 0.06,-3.251 -6.576,-0.049 -11.06,-5.184 -11.06,-7.999 0,-2.419 0.382,-3.412 2,-4.447l0 -1.598c-1.911,-2.544 -3,-5.819 -3,-9.955 0,-13 10.745,-25 24,-25z"/>
 </g>
</svg>
