<?xml version="1.0" encoding="UTF-8"?>
<!DOCTYPE svg PUBLIC "-//W3C//DTD SVG 1.1//EN" "http://www.w3.org/Graphics/SVG/1.1/DTD/svg11.dtd">
<!-- Creator: CorelDRAW 2017 -->
<svg xmlns="http://www.w3.org/2000/svg" xml:space="preserve" width="128px" height="128px" version="1.1" style="shape-rendering:geometricPrecision; text-rendering:geometricPrecision; image-rendering:optimizeQuality; fill-rule:evenodd; clip-rule:evenodd"
viewBox="0 0 128 128"
 xmlns:xlink="http://www.w3.org/1999/xlink">
 <defs>
  <style type="text/css">
   <![CDATA[
    .fil0 {fill:#F5F2D6}
   ]]>
  </style>
 </defs>
 <g id="Camada_x0020_1">
  <metadata id="CorelCorpID_0Corel-Layer"/>
  <path class="fil0" d="M23 83l82 0 0 31 -7.923 0 -3.077 -20 -60 0 -3.077 20 -7.923 0 0 -31zm69.25 -68.937c2.347,0 4.249,1.092 4.249,2.437 0,0.682 -0.487,1.297 -1.274,1.74l0.23 3.281c3.255,0.322 5.544,1.087 5.544,1.978 0,0.867 -2.162,1.613 -5.27,1.951l0.183 2.62c3.01,0.346 5.087,1.08 5.087,1.93 0,0.824 -1.955,1.538 -4.82,1.898l0.225 3.233c2.742,0.368 4.595,1.066 4.595,1.868 0,0.777 -1.736,1.458 -4.336,1.834l0.2 2.864c2.488,0.38 4.136,1.045 4.136,1.803 0,0.731 -1.539,1.376 -3.888,1.763l0.889 12.737 -12.001 0 0.889 -12.736c-2.349,-0.387 -3.889,-1.033 -3.889,-1.764 0,-0.758 1.649,-1.423 4.138,-1.803l0.199 -2.864c-2.6,-0.376 -4.337,-1.057 -4.337,-1.834 0,-0.802 1.853,-1.501 4.596,-1.868l0.226 -3.233c-2.866,-0.358 -4.822,-1.074 -4.822,-1.898 0,-0.85 2.077,-1.583 5.088,-1.93l0.184 -2.62c-3.11,-0.338 -5.272,-1.084 -5.272,-1.951 0,-0.891 2.29,-1.656 5.546,-1.978l0.251 -3.6c-0.501,-0.4 -0.797,-0.891 -0.797,-1.421 0,-1.345 1.903,-2.437 4.251,-2.437zm-27 0c2.348,0 4.25,1.092 4.25,2.437 0,0.682 -0.488,1.297 -1.274,1.74l0.229 3.281c3.255,0.322 5.545,1.087 5.545,1.978 0,0.867 -2.162,1.613 -5.271,1.951l0.183 2.62c3.011,0.346 5.088,1.08 5.088,1.93 0,0.824 -1.955,1.538 -4.821,1.898l0.226 3.233c2.742,0.368 4.595,1.066 4.595,1.868 0,0.777 -1.737,1.458 -4.337,1.834l0.2 2.864c2.489,0.38 4.137,1.045 4.137,1.803 0,0.731 -1.54,1.376 -3.888,1.763l0.888 12.737 -12 0 0.889 -12.736c-2.35,-0.387 -3.889,-1.033 -3.889,-1.764 0,-0.758 1.648,-1.423 4.137,-1.803l0.2 -2.864c-2.6,-0.376 -4.337,-1.057 -4.337,-1.834 0,-0.802 1.853,-1.501 4.595,-1.868l0.226 -3.233c-2.866,-0.358 -4.821,-1.074 -4.821,-1.898 0,-0.85 2.077,-1.583 5.088,-1.93l0.183 -2.62c-3.109,-0.338 -5.271,-1.084 -5.271,-1.951 0,-0.891 2.289,-1.656 5.545,-1.978l0.251 -3.6c-0.501,-0.4 -0.796,-0.891 -0.796,-1.421 0,-1.345 1.902,-2.437 4.25,-2.437zm-22.692 3.155c0.901,0.504 1.442,1.146 1.442,1.844 0,0.652 -0.472,1.255 -1.269,1.743l0.236 4.912c1.26,0.335 2.033,0.786 2.033,1.283 0,0.48 -0.723,0.918 -1.911,1.25l0.157 3.277c1.693,0.365 2.754,0.89 2.754,1.473 0,0.567 -1.002,1.079 -2.613,1.443l0.187 3.896c1.501,0.428 2.426,1.014 2.426,1.661 0,0.624 -0.86,1.191 -2.268,1.615l0.17 3.538c1.904,0.458 3.098,1.115 3.098,1.847 0,0.708 -1.121,1.349 -2.922,1.803l0.138 2.891c2.312,0.55 3.784,1.379 3.784,2.306 0,0.898 -1.379,1.702 -3.564,2.252l0.118 2.461c2.117,0.503 3.446,1.229 3.446,2.037 0,0.783 -1.249,1.489 -3.253,1.99l0.253 5.26 -16 0 0.371 -5.51c-1.482,-0.474 -2.371,-1.08 -2.371,-1.74 0,-0.695 0.986,-1.33 2.61,-1.814l0.195 -2.895c-1.74,-0.536 -2.805,-1.252 -2.805,-2.041 0,-0.83 1.18,-1.58 3.085,-2.123l0.219 -3.246c-1.435,-0.437 -2.304,-1.008 -2.304,-1.631 0,-0.656 0.959,-1.252 2.527,-1.698l0.259 -3.845c-1.12,-0.402 -1.786,-0.908 -1.786,-1.457 0,-0.581 0.747,-1.113 1.987,-1.526l0.277 -4.115c-1.406,-0.357 -2.264,-0.834 -2.264,-1.359 0,-0.547 0.935,-1.043 2.45,-1.405l0.23 -3.413c-1.05,-0.322 -1.68,-0.734 -1.68,-1.182 0,-0.471 0.695,-0.901 1.842,-1.231l0.338 -5.019c-0.744,-0.477 -1.18,-1.06 -1.18,-1.688 0,-0.692 0.53,-1.328 1.417,-1.83l0.083 -1.232 10 0 0.058 1.218zm-16.558 61.782l23 0 0 -6c0,-1.1 -0.9,-2 -2,-2l-19 0c-1.1,0 -2,0.9 -2,2l0 6zm28 0l49 0 0 -14c0,-2.201 -1.799,-4 -4,-4l-41 0c-2.2,0 -4,1.799 -4,4l0 14z"/>
 </g>
</svg>
