<?xml version="1.0" encoding="UTF-8"?>
<!DOCTYPE svg PUBLIC "-//W3C//DTD SVG 1.1//EN" "http://www.w3.org/Graphics/SVG/1.1/DTD/svg11.dtd">
<!-- Creator: CorelDRAW 2017 -->
<svg xmlns="http://www.w3.org/2000/svg" xml:space="preserve" width="128px" height="128px" version="1.1" style="shape-rendering:geometricPrecision; text-rendering:geometricPrecision; image-rendering:optimizeQuality; fill-rule:evenodd; clip-rule:evenodd"
viewBox="0 0 128 128"
 xmlns:xlink="http://www.w3.org/1999/xlink">
 <defs>
  <style type="text/css">
   <![CDATA[
    .fil0 {fill:#F5F2D6}
   ]]>
  </style>
 </defs>
 <g id="Camada_x0020_1">
  <metadata id="CorelCorpID_0Corel-Layer"/>
  <path class="fil0" d="M64 23c3.002,0 5.434,2.432 5.434,5.433 0,2.211 -1.318,4.111 -3.212,4.96l24.278 78.607 -4.5 0 -2.524 -7.965 -19.476 -20.553 -19.476 20.553 -2.524 7.965 -4.5 0 24.278 -78.607c-1.894,-0.849 -3.212,-2.749 -3.212,-4.96 0,-3.001 2.432,-5.433 5.434,-5.433zm-27.17 0l-19.925 -3.623 25.359 9.056 -1.811 -5.433 10.868 3.622 -16.302 -10.868 1.811 7.246zm54.34 0l19.925 -3.623 -25.359 9.056 1.811 -5.433 -10.868 3.622 16.302 -10.868 -1.811 7.246zm-1.811 23.546l20.829 14.49 -24.452 -21.735 0 7.245 -10.868 -9.057 12.679 18.115 1.812 -9.058zm-50.718 0l-19.923 14.49 23.546 -21.735 0 7.245 10.868 -9.057 -12.679 18.115 -1.812 -9.058zm28.576 1.937l-3.217 2.527 -3.217 -2.527 3.217 -10.994 3.217 10.994zm-5.323 4.182l-3.033 2.382 1.118 -3.818 1.915 1.436zm-4.394 7.335l6.5 -6 6.5 6 2.545 8.394 -9.045 9.548 -9.045 -9.548 2.545 -8.394zm8.606 -7.335l1.915 -1.436 1.118 3.819 -3.033 -2.383zm-4.731 28.048l-7.66 -8.084 -6.848 23.398 14.508 -15.314zm5.25 0l7.66 -8.084 6.848 23.398 -14.508 -15.314z"/>
 </g>
</svg>
