<?xml version="1.0" encoding="UTF-8"?>
<!DOCTYPE svg PUBLIC "-//W3C//DTD SVG 1.1//EN" "http://www.w3.org/Graphics/SVG/1.1/DTD/svg11.dtd">
<!-- Creator: CorelDRAW 2017 -->
<svg xmlns="http://www.w3.org/2000/svg" xml:space="preserve" width="128px" height="128px" version="1.1" style="shape-rendering:geometricPrecision; text-rendering:geometricPrecision; image-rendering:optimizeQuality; fill-rule:evenodd; clip-rule:evenodd"
viewBox="0 0 128 128"
 xmlns:xlink="http://www.w3.org/1999/xlink">
 <defs>
  <style type="text/css">
   <![CDATA[
    .fil0 {fill:#F5F2D6}
   ]]>
  </style>
 </defs>
 <g id="Camada_x0020_1">
  <metadata id="CorelCorpID_0Corel-Layer"/>
  <path class="fil0" d="M64 126.028c34.257,0 62.028,-27.771 62.028,-62.028 0,-34.257 -27.771,-62.028 -62.028,-62.028 -34.257,0 -62.028,27.771 -62.028,62.028 0,34.257 27.771,62.028 62.028,62.028zm0 -102.029l14 26.001 28.001 0 -22.001 25.999 8.001 28.002 -28.001 -14 -28.001 14 8.001 -28.002 -22.001 -25.999 28.001 0 14 -26.001zm0 92.002c28.72,0 52.001,-23.281 52.001,-52.001 0,-28.72 -23.281,-52.001 -52.001,-52.001 -28.72,0 -52.001,23.281 -52.001,52.001 0,28.72 23.281,52.001 52.001,52.001z"/>
 </g>
</svg>
