<?xml version="1.0" encoding="UTF-8"?>
<!DOCTYPE svg PUBLIC "-//W3C//DTD SVG 1.1//EN" "http://www.w3.org/Graphics/SVG/1.1/DTD/svg11.dtd">
<!-- Creator: CorelDRAW 2017 -->
<svg xmlns="http://www.w3.org/2000/svg" xml:space="preserve" width="128px" height="128px" version="1.1" style="shape-rendering:geometricPrecision; text-rendering:geometricPrecision; image-rendering:optimizeQuality; fill-rule:evenodd; clip-rule:evenodd"
viewBox="0 0 128 128"
 xmlns:xlink="http://www.w3.org/1999/xlink">
 <defs>
  <style type="text/css">
   <![CDATA[
    .fil0 {fill:#CBE615}
   ]]>
  </style>
 </defs>
 <g id="Camada_x0020_1">
  <metadata id="CorelCorpID_0Corel-Layer"/>
  <path id="pFTaj0i6x" class="fil0" d="M55 60c0,-10 -1,-12 -1,-15 -3,-4 -3,-6 -3,-9 2.018,-1.461 7,-2 13,-2 6,0 12.048,1.048 13,2 0,3 0,5 -3,9 0,3 -1,6 -1,15 2,17 5,34 6,54l-4 0c-5,-15 -9,-43 -11,-43 -2,0 -7,28 -11,43l-4 0c0,-20 4,-36 6,-54zm12.5 -43.5c3.5,0.5 7.5,5 7.5,8.5l-4 0c0,-2 -1.5,-4.5 -4,-5l0.5 -3.5zm3 -6c6,1.5 10,7 11.5,13.5l-4.5 0c-1.5,-5 -4,-8 -8.5,-10l1.5 -3.5zm-13.395 18.5c-1.998,-2.866 -3.635,-6.344 -2.105,-8.5 1.603,-2.258 4.521,-2.562 7,-0.5 0.792,0.495 1.636,0.976 2.137,1.719 0.863,1.281 -0.637,3.78 -0.637,5.781 1,1.5 3.5,-0.5 3.5,0.5 0,3 0,4 -4,4 -3,0 -4.5,-1.001 -5.895,-3z"/>
 </g>
</svg>
