<?xml version="1.0" encoding="UTF-8"?>
<!DOCTYPE svg PUBLIC "-//W3C//DTD SVG 1.1//EN" "http://www.w3.org/Graphics/SVG/1.1/DTD/svg11.dtd">
<!-- Creator: CorelDRAW 2017 -->
<svg xmlns="http://www.w3.org/2000/svg" xml:space="preserve" width="128px" height="128px" version="1.1" style="shape-rendering:geometricPrecision; text-rendering:geometricPrecision; image-rendering:optimizeQuality; fill-rule:evenodd; clip-rule:evenodd"
viewBox="0 0 128 128"
 xmlns:xlink="http://www.w3.org/1999/xlink">
 <defs>
  <style type="text/css">
   <![CDATA[
    .fil0 {fill:#F5F2D6}
   ]]>
  </style>
 </defs>
 <g id="Camada_x0020_1">
  <metadata id="CorelCorpID_0Corel-Layer"/>
  <path class="fil0" d="M35 86l-21 0 0 17 21 0 0 -17zm-4 -33l35.5 -21 35.5 21 0 -8 -35.5 -20 -35.5 20 0 8zm66 16l3 -1 14 32 -6 3 -11 -25 0 -9zm-42 -6l23 0 0 37 -23 0 0 -37zm-17 40l13 0 0 -43 31 0 0 43 13 0 0 -49 -28.5 -17 -28.5 17 0 49zm-18 -31l13 0 0 12 -13 0 0 -12z"/>
 </g>
</svg>
