<?xml version="1.0" encoding="UTF-8"?>
<!DOCTYPE svg PUBLIC "-//W3C//DTD SVG 1.1//EN" "http://www.w3.org/Graphics/SVG/1.1/DTD/svg11.dtd">
<!-- Creator: CorelDRAW 2017 -->
<svg xmlns="http://www.w3.org/2000/svg" xml:space="preserve" width="128px" height="128px" version="1.1" style="shape-rendering:geometricPrecision; text-rendering:geometricPrecision; image-rendering:optimizeQuality; fill-rule:evenodd; clip-rule:evenodd"
viewBox="0 0 128 128"
 xmlns:xlink="http://www.w3.org/1999/xlink">
 <defs>
  <style type="text/css">
   <![CDATA[
    .fil0 {fill:#F5F2D6}
   ]]>
  </style>
 </defs>
 <g id="Camada_x0020_1">
  <metadata id="CorelCorpID_0Corel-Layer"/>
  <path class="fil0" d="M64 21.999c9.389,0 17,7.611 17,17.001 0,4.904 -2.077,9.322 -5.399,12.425l18.399 74.575 -8 0 -4.645 -19.096 -16.355 -10.903 -16.355 10.903 -4.645 19.096 -8.001 0 17.846 -73.365c-4.155,-3.099 -6.845,-8.053 -6.845,-13.635 0,-9.39 7.611,-17.001 17,-17.001zm8.162 47.109l-2.937 1.966 4.048 2.602 -1.111 -4.568zm-7.183 4.807l-9.925 6.642 -0.589 2.42 10.535 7.024 10.535 -7.024 -0.574 -2.359 -9.982 -6.703zm-8.252 -0.239l4.034 -2.593 -2.925 -1.963 -1.109 4.556zm8.273 -5.318l6.035 -3.88 -2.23 -9.167c-1.523,0.448 -3.136,0.689 -4.805,0.689 -0.993,0 -1.966,-0.086 -2.912,-0.249l-2.123 8.727 6.035 3.88zm-4.5 24.643l-7.291 -4.86 -2.822 11.602 10.113 -6.742zm16.291 -4.86l-7.291 4.86 10.114 6.742 -2.823 -11.602zm23.271 -85.204c9.228,9.23 14.936,21.98 14.936,36.064 0,14.083 -5.707,26.832 -14.935,36.061l-4.242 -4.241c8.145,-8.144 13.18,-19.393 13.18,-31.82 0,-12.428 -5.037,-23.679 -13.181,-31.822l4.242 -4.242zm-72.125 72.125c-9.228,-9.229 -14.935,-21.978 -14.935,-36.061 0,-14.084 5.708,-26.834 14.936,-36.064l4.241 4.242c-8.143,8.143 -13.18,19.394 -13.18,31.822 0,12.427 5.035,23.676 13.179,31.82l-4.241 4.241zm60.106 -60.106c6.152,6.153 9.957,14.654 9.957,24.044 0,9.389 -3.805,17.891 -9.957,24.043l-4.244 -4.243c5.067,-5.067 8.201,-12.068 8.201,-19.8 0,-7.733 -3.134,-14.732 -8.201,-19.8l4.244 -4.244zm-48.086 48.087c-6.153,-6.152 -9.958,-14.654 -9.958,-24.043 0,-9.39 3.805,-17.891 9.958,-24.044l4.244 4.244c-5.067,5.068 -8.202,12.067 -8.202,19.8 0,7.732 3.135,14.733 8.202,19.8l-4.244 4.243z"/>
 </g>
</svg>
