<?xml version="1.0" encoding="UTF-8"?>
<!DOCTYPE svg PUBLIC "-//W3C//DTD SVG 1.1//EN" "http://www.w3.org/Graphics/SVG/1.1/DTD/svg11.dtd">
<!-- Creator: CorelDRAW 2017 -->
<svg xmlns="http://www.w3.org/2000/svg" xml:space="preserve" width="128px" height="128px" version="1.1" style="shape-rendering:geometricPrecision; text-rendering:geometricPrecision; image-rendering:optimizeQuality; fill-rule:evenodd; clip-rule:evenodd"
viewBox="0 0 128 128"
 xmlns:xlink="http://www.w3.org/1999/xlink">
 <defs>
  <style type="text/css">
   <![CDATA[
    .fil0 {fill:#F5F2D6}
   ]]>
  </style>
 </defs>
 <g id="Camada_x0020_1">
  <metadata id="CorelCorpID_0Corel-Layer"/>
  <path class="fil0" d="M45 114l50 0 0 -12 -50 0 0 12zm-9 -66l5 0 0 3 -5 0 0 11 5 0 0 3 -5 0 0 11 5 0 0 3 -5 0 0 11 5 0 0 3 -5 0 0 10.986 5 0 0 4.014 -5 0 0 6 -3 0 0 -71 3 0 0 5zm34 -34c12.366,0 22.633,8.645 24.642,20l-49.284 0c2.009,-11.355 12.276,-20 24.642,-20zm-4.612 5l-5.551 0c-2.867,1.832 -5.318,4.218 -7.19,7l6.363 0c1.637,-2.714 3.809,-5.093 6.378,-7zm-20.388 32l50 0 0 -12 -50 0 0 12zm0 15.999l50 0 0 -13 -50 0 0 13zm0 16.001l50 0 0 -13.001 -50 0 0 13.001zm0 16l50 0 0 -13 -50 0 0 13z"/>
 </g>
</svg>
