<?xml version="1.0" encoding="UTF-8"?>
<!DOCTYPE svg PUBLIC "-//W3C//DTD SVG 1.1//EN" "http://www.w3.org/Graphics/SVG/1.1/DTD/svg11.dtd">
<!-- Creator: CorelDRAW 2017 -->
<svg xmlns="http://www.w3.org/2000/svg" xml:space="preserve" width="128px" height="128px" version="1.1" style="shape-rendering:geometricPrecision; text-rendering:geometricPrecision; image-rendering:optimizeQuality; fill-rule:evenodd; clip-rule:evenodd"
viewBox="0 0 128 128"
 xmlns:xlink="http://www.w3.org/1999/xlink">
 <defs>
  <style type="text/css">
   <![CDATA[
    .fil0 {fill:#F5F2D6}
   ]]>
  </style>
 </defs>
 <g id="Camada_x0020_1">
  <metadata id="CorelCorpID_0Corel-Layer"/>
  <path id="pgJcwwpUS" class="fil0" d="M94.925 115.837c-2.121,-3.183 -1.433,-7.57 -5.228,-7.57 -1.259,0 -2.453,-0.806 -2.453,-1.837 0,-7.911 8.629,-16.541 8.629,-18.698 -0.213,-0.153 -5.753,0 -7.784,-2.02 -0.155,0 -1.8,1.923 -2.5,1.923 -0.088,0 -7.316,-5.595 -6.067,-3.899 0.926,1.276 2.604,5.333 3.375,8.2 0.558,2.081 1.083,7.308 0.751,7.518 -1.243,0.68 -6.397,-9.896 -10.281,-9.896 -0.023,0 4.03,9.058 5.247,10.4 2.046,2.202 1.38,2.906 0.138,2.294 -0.775,-0.365 -2.297,-1.576 -3.735,-1.576 -1.438,0 -1.792,2.128 -2.876,2.158 -1.073,-0.03 -6.352,-9.879 -6.659,-9.691 -0.935,0.698 1.464,11.13 0.906,11.13 -0.857,0 -3.049,-3.616 -7.192,-1.439 -3.228,-5.548 -1.716,-12.445 -2.157,-12.225 -2.929,1.527 -1.958,13.112 -5.632,13.112 -0.016,0 -1.296,-4.105 -1.312,-4.564 0,-2.607 2.973,-7.533 2.973,-8.287 0,-2.373 -5.302,6.157 -5.963,6.818 -0.261,0.263 -0.519,-2.826 -0.134,-5.641 1.068,-7.968 5.849,-9.483 5.748,-9.483 -2.779,0 -4.742,2.304 -6.453,4.11 -0.658,-1.556 -2.915,-1.602 -3.426,-1.155 -1.827,1.605 -6.154,1.462 -8.55,1.504 0.038,0.686 0.184,1.711 -0.193,2.29 -0.777,1.218 14.95,19.971 14.95,21.576 0,1.666 -5.495,2.046 -6.977,2.151 -1.233,-8.017 -6.709,-14.502 -11.714,-20.579 -0.542,-0.647 -1.102,-1.154 -1.276,-1.154 -1.32,0.057 -2.469,0.873 -3.684,-0.698 -3.595,-2.877 -2.312,-6.347 -2.876,-7.192 -0.472,-0.7 -5.473,-5.753 -5.754,-5.753 -0.313,0 -3.19,11.059 -4.314,11.507 -1.784,0.656 -11.506,-7.646 -11.506,-10.069 0,-0.006 7.191,-5.753 10.068,-5.753 0,-1.438 0,-2.877 1.438,-4.315 1.438,-1.438 5.586,-1.459 7.192,0 1.816,1.649 6.033,11.507 7.191,11.507 3.596,-2.157 4.315,1.438 5.753,2.876 0.489,0.175 4.284,0.192 5.753,0 3.315,-0.392 3.152,-2.805 4.551,-5.538 0.352,-0.703 3.939,-4.54 3.829,-4.703 -2.988,-2.746 -13.821,1.558 -14.197,1.153 -1.227,-1.227 -0.139,-5.572 0.455,-7.151 0.052,-0.209 -7.827,-2.843 -8.882,-5.244 -1.325,-2.983 2.857,-0.809 1.975,-2.256 -0.122,-0.184 -3.371,-1.467 -3.847,-2.763 -0.169,-0.425 0.595,-0.663 0.595,-0.892 0,-0.049 -7.492,-5.686 -7.492,-10.72 -0.505,-2.115 5.754,0.719 2.878,-3.596 -0.377,-0.47 -7.192,-2.877 -7.192,-4.315 0.478,-4.356 -0.426,-6.611 -4.349,-8.521 -3.015,-1.431 -6.794,-7.429 -5.719,-7.3 1.146,0.073 5.396,1.438 7.191,1.438 0.024,0 -5.58,-7.732 -7.644,-10.066 -1.136,-1.277 -0.225,-1.44 1.891,-1.44 7.169,0 15.764,5.753 15.822,5.753 1.152,0 -1.774,-2.877 1.438,-2.877 3.89,0 10.067,5.754 11.506,5.754 0.364,-3.193 7.401,2.015 8.63,2.876 4.801,3.364 6.294,6.983 6.294,12.96 0,2.102 0.899,5.723 0.897,5.738 -0.128,1.318 -5.455,1.77 -7.471,6.414 -6.819,15.821 16.762,18.185 19.425,4.843 0.612,-2.851 0.176,-7.258 -2.797,-8.795 -2.663,-1.427 -4.149,1.94 -4.843,0.414 -0.594,-1.294 0.192,-3.753 1.014,-4.872 0.664,-0.892 2.255,-1.871 3.899,-2.378 0.645,-0.195 7.155,-4.665 7.955,-2.571 0.105,0.281 4.118,0.233 4.738,0.56 4.76,2.596 6.996,10.364 4.704,11.225 -4.82,12.57 6.254,13.864 9.333,13.858 1.438,0 10.258,-1.457 10.068,-8.63 0,-9.905 -11.506,-5.753 -12.944,-11.507 0,-2.876 2.648,-2.767 4.314,-2.876 0,-8.314 6.225,-20.136 15.822,-20.136 1.108,0.257 1.438,1.438 2.876,1.438 0,-2.742 9.779,-4.315 11.507,-4.315 0,0.883 -0.72,0.719 0,1.439 1.438,0 5.292,-4.102 11.506,-4.315 1.364,-0.053 2.434,1.212 1.666,2.279 -1.242,1.677 -9.442,12.335 -9.442,13.725 -0.044,0.179 2.225,0.231 2.379,0.385 1.184,1.184 -5.659,6.343 -5.666,6.364 -0.384,1.074 3.609,-0.058 3.759,0.14 1.93,1.682 -6.624,6.349 -5.35,7.535 0.324,0.324 3.869,-0.144 3.584,0.664 -0.184,0.561 -6.006,4.252 -7.482,8.62 -0.491,1.469 0.248,2.961 0.104,3.2 -0.59,0.957 -3.934,-1.198 -3.934,-0.385 0,1.023 3.322,2.619 3.322,2.815 0,1.182 -3.335,0.575 -3.462,1.626 -0.219,1.763 4.681,3.265 -3.094,6.644 -1.693,0.719 -5.635,0.826 -4.879,2.273 0.507,0.974 0.468,7.049 -0.559,7.43 -0.27,0.102 -14.969,-2.443 -12.624,-1.206 0.822,0.438 4.302,3.655 4.441,4.109 0.071,0.21 0.332,0.822 0.595,1.382 0.262,0.542 0.576,1.52 0.699,2.185 0.621,3.365 5.739,3.568 7.177,0.691 1.221,-1.425 1.438,-2.877 4.315,0 0.73,0.802 1.464,-1.175 2.157,-2.157 0.448,-0.71 10.425,-13.051 12.226,-15.103 1.363,-1.574 2.419,-2.404 2.157,-2.876 -0.426,-0.8 -0.719,-3.596 1.439,-2.158 1.071,1.213 3.525,-1.134 3.05,3.472 1.292,0 1.984,-0.037 1.984,1.562 0,1.93 -3.741,4.497 -3.698,6.777 0.018,0.735 -0.052,1.05 -0.349,1.417 -1.544,1.775 -13.828,17.109 -13.918,17.869 -0.348,2.876 -1.149,2.441 -3.566,2.22 -0.965,1.077 -1.812,2.129 -2.676,3.288 0.589,8.942 -2.662,6.751 -3.182,10.892 -0.141,1.068 3.389,4.401 2.588,5.963 -0.262,0.489 -2.36,2.587 -3.061,3.059 -0.733,0.489 -1.345,0.367 -1.853,-0.367l0.001 0zm2.386 -13.722c1.399,-1.154 1.438,-1.355 1.438,-2.877 0,-3.541 -3.632,1.643 -3.596,2.158 0.123,1.591 0.882,1.768 2.158,0.719z"/>
 </g>
</svg>
