<?xml version="1.0" encoding="UTF-8"?>
<!DOCTYPE svg PUBLIC "-//W3C//DTD SVG 1.1//EN" "http://www.w3.org/Graphics/SVG/1.1/DTD/svg11.dtd">
<!-- Creator: CorelDRAW 2017 -->
<svg xmlns="http://www.w3.org/2000/svg" xml:space="preserve" width="128px" height="128px" version="1.1" style="shape-rendering:geometricPrecision; text-rendering:geometricPrecision; image-rendering:optimizeQuality; fill-rule:evenodd; clip-rule:evenodd"
viewBox="0 0 128 128"
 xmlns:xlink="http://www.w3.org/1999/xlink">
 <defs>
  <style type="text/css">
   <![CDATA[
    .fil0 {fill:#F5F2D6}
   ]]>
  </style>
 </defs>
 <g id="Camada_x0020_1">
  <metadata id="CorelCorpID_0Corel-Layer"/>
  <path id="pgJcwwpUS" class="fil0" d="M85.501 100.041c-1.475,-2.213 -0.996,-5.264 -3.634,-5.264 -0.876,0 -1.707,-0.56 -1.707,-1.277 0,-5.5 6.001,-11.5 6.001,-13 -0.149,-0.106 -4.001,0 -5.413,-1.404 -0.107,0 -1.251,1.337 -1.738,1.337 -0.061,0 -5.086,-3.89 -4.218,-2.711 0.644,0.887 1.811,3.708 2.346,5.701 0.389,1.447 0.754,5.081 0.523,5.227 -0.865,0.473 -4.448,-6.88 -7.148,-6.88 -0.016,0 2.801,6.298 3.647,7.23 1.423,1.532 0.96,2.021 0.097,1.596 -0.539,-0.254 -1.597,-1.096 -2.597,-1.096 -1,0 -1.246,1.479 -2,1.5 -0.746,-0.021 -4.416,-6.868 -4.629,-6.738 -0.651,0.485 1.017,7.738 0.629,7.738 -0.595,0 -2.119,-2.514 -5,-1 -2.244,-3.857 -1.193,-8.653 -1.5,-8.5 -2.036,1.062 -1.361,9.117 -3.916,9.117 -0.011,0 -0.901,-2.855 -0.911,-3.173 0,-1.813 2.067,-5.238 2.067,-5.762 0,-1.65 -3.687,4.281 -4.146,4.741 -0.182,0.182 -0.362,-1.966 -0.094,-3.923 0.742,-5.539 4.067,-6.593 3.996,-6.593 -1.932,0 -3.297,1.602 -4.486,2.857 -0.457,-1.082 -2.027,-1.113 -2.382,-0.802 -1.27,1.115 -4.278,1.016 -5.944,1.045 0.026,0.477 0.127,1.189 -0.134,1.593 -0.541,0.847 10.393,13.885 10.393,15 0,1.159 -3.82,1.423 -4.85,1.496 -0.857,-5.573 -4.665,-10.082 -8.145,-14.308 -0.377,-0.45 -0.766,-0.802 -0.887,-0.802 -0.918,0.04 -1.716,0.607 -2.561,-0.486 -2.5,-2 -1.608,-4.412 -2,-5 -0.328,-0.487 -3.805,-4 -4,-4 -0.218,0 -2.219,7.689 -3,8 -1.24,0.457 -8,-5.316 -8,-7 0,-0.004 5,-4 7,-4 0,-1 0,-2 1,-3 1,-1 3.884,-1.014 5,0 1.263,1.146 4.195,8 5,8 2.5,-1.5 3,1 4,2 0.34,0.122 2.979,0.134 4,0 2.305,-0.272 2.192,-1.95 3.164,-3.85 0.245,-0.489 2.739,-3.157 2.662,-3.27 -2.077,-1.91 -9.609,1.083 -9.87,0.802 -0.853,-0.854 -0.097,-3.874 0.316,-4.972 0.036,-0.146 -5.442,-1.977 -6.176,-3.647 -0.921,-2.073 1.987,-0.562 1.374,-1.568 -0.085,-0.128 -2.344,-1.02 -2.675,-1.921 -0.118,-0.296 0.414,-0.461 0.414,-0.62 0,-0.034 -5.209,-3.954 -5.209,-7.454 -0.351,-1.47 4,0.5 2,-2.5 -0.261,-0.326 -5,-2 -5,-3 0.333,-3.029 -0.296,-4.597 -3.024,-5.924 -2.095,-0.995 -4.723,-5.166 -3.976,-5.076 0.797,0.051 3.752,1 5,1 0.017,0 -3.88,-5.376 -5.314,-6.999 -0.791,-0.887 -0.157,-1.001 1.314,-1.001 4.984,0 10.96,4 11,4 0.802,0 -1.233,-2 1,-2 2.705,0 7,4 8,4 0.253,-2.22 5.146,1.402 6,2 3.339,2.339 4.377,4.855 4.377,9.011 0,1.461 0.624,3.979 0.623,3.989 -0.089,0.916 -3.793,1.231 -5.194,4.46 -4.741,10.999 11.654,12.643 13.505,3.367 0.426,-1.982 0.123,-5.046 -1.944,-6.115 -1.852,-0.992 -2.885,1.349 -3.367,0.288 -0.413,-0.899 0.133,-2.61 0.705,-3.387 0.461,-0.621 1.567,-1.301 2.71,-1.654 0.449,-0.136 4.975,-3.243 5.531,-1.787 0.074,0.195 2.864,0.162 3.294,0.389 3.31,1.805 4.865,7.206 3.271,7.804 -3.352,8.74 4.348,9.639 6.489,9.635 1,0 7.132,-1.012 7,-6 0,-6.886 -8,-4 -9,-8 0,-2 1.842,-1.924 3,-2 0,-5.78 4.328,-14 11.001,-14 0.77,0.179 0.999,1 1.999,1 0,-1.906 6.799,-3 8,-3 0,0.613 -0.5,0.5 0,1 1,0 3.68,-2.851 8.001,-3 0.947,-0.036 1.692,0.843 1.158,1.585 -0.864,1.166 -6.565,8.576 -6.565,9.542 -0.031,0.125 1.547,0.161 1.654,0.268 0.823,0.824 -3.935,4.41 -3.939,4.424 -0.267,0.747 2.509,-0.04 2.613,0.098 1.342,1.17 -4.605,4.415 -3.719,5.239 0.225,0.225 2.689,-0.1 2.492,0.462 -0.129,0.39 -4.177,2.956 -5.203,5.993 -0.341,1.022 0.172,2.059 0.073,2.225 -0.411,0.665 -2.735,-0.833 -2.735,-0.268 0,0.711 2.309,1.821 2.309,1.958 0,0.821 -2.319,0.399 -2.407,1.13 -0.152,1.225 3.254,2.27 -2.151,4.619 -1.177,0.5 -3.918,0.574 -3.392,1.581 0.352,0.676 0.325,4.901 -0.389,5.166 -0.188,0.07 -10.408,-1.699 -8.777,-0.839 0.571,0.304 2.991,2.541 3.088,2.857 0.049,0.146 0.231,0.571 0.413,0.961 0.183,0.376 0.401,1.057 0.486,1.519 0.432,2.34 3.991,2.48 4.99,0.48 0.849,-0.991 1,-2 3,0 0.508,0.558 1.018,-0.816 1.5,-1.5 0.312,-0.493 7.248,-9.074 8.5,-10.5 0.948,-1.094 1.683,-1.672 1.5,-2 -0.296,-0.556 -0.499,-2.5 1.001,-1.5 0.744,0.843 2.45,-0.788 2.12,2.414 0.898,0 1.379,-0.026 1.379,1.086 0,1.341 -2.601,3.127 -2.571,4.712 0.013,0.511 -0.036,0.73 -0.242,0.985 -1.074,1.234 -9.614,11.895 -9.677,12.424 -0.242,1.999 -0.799,1.697 -2.48,1.543 -0.671,0.749 -1.259,1.48 -1.859,2.286 0.408,6.218 -1.852,4.694 -2.213,7.573 -0.098,0.742 2.356,3.06 1.799,4.146 -0.182,0.34 -1.641,1.799 -2.128,2.127 -0.51,0.34 -0.936,0.255 -1.288,-0.255l0 0zm1.659 -9.541c0.973,-0.802 1,-0.942 1,-2 0,-2.462 -2.525,1.142 -2.5,1.5 0.085,1.106 0.613,1.23 1.5,0.5z"/>
 </g>
</svg>
