<?xml version="1.0" encoding="UTF-8"?>
<!DOCTYPE svg PUBLIC "-//W3C//DTD SVG 1.1//EN" "http://www.w3.org/Graphics/SVG/1.1/DTD/svg11.dtd">
<!-- Creator: CorelDRAW 2017 -->
<svg xmlns="http://www.w3.org/2000/svg" xml:space="preserve" width="128px" height="128px" version="1.1" style="shape-rendering:geometricPrecision; text-rendering:geometricPrecision; image-rendering:optimizeQuality; fill-rule:evenodd; clip-rule:evenodd"
viewBox="0 0 128 128"
 xmlns:xlink="http://www.w3.org/1999/xlink">
 <defs>
  <style type="text/css">
   <![CDATA[
    .fil0 {fill:#F5F2D6}
   ]]>
  </style>
 </defs>
 <g id="Camada_x0020_1">
  <metadata id="CorelCorpID_0Corel-Layer"/>
  <path class="fil0" d="M64.5 8c6.351,0 11.499,5.148 11.499,11.499 0,6.352 -5.148,11.5 -11.499,11.5 -6.352,0 -11.5,-5.148 -11.5,-11.5 0,-6.351 5.148,-11.499 11.5,-11.499zm-14.5 12l-2 0 0 4 3 0c-0.429,-1.262 -0.951,-2.605 -1,-4zm32 21l32 0 0 5 -32 0 0 -5zm-0.001 8l31 0 0 51 -31 0 0 -51zm6 19l6.001 0 0 12 -6.001 0 0 -12zm12 0l7 0 0 12 -7 0 0 -12zm0 -15l7 0 0 12 -7 0 0 -12zm-12 0l6.001 0 0 12 -6.001 0 0 -12zm-73.999 -12l32 0 0 5 -32 0 0 -5zm1 8l31 0 0 51 -31 0 0 -51zm6 4l7 0 0 12 -7 0 0 -12zm0 15l7 0 0 12 -7 0 0 -12zm13 0l6 0 0 12 -6 0 0 -12zm0 -15l6 0 0 12 -6 0 0 -12zm44 -33l2 0 0 4 -3 0c0.429,-1.262 0.951,-2.605 1,-4zm-29 8l3.752 0c2.635,3.635 6.915,5.999 11.748,5.999 4.833,0 7.866,-2.364 10.5,-5.999l4 0 0 72 -5 0 0 -23c-0.483,-4.957 -5.286,-8 -10,-8 -4.716,0 -9.514,3.042 -10,8l0 23 -5 0 0 -72zm18 21l6 0 0 12 -6 0 0 -12zm-12 0l6 0 0 12 -6 0 0 -12zm0 -14l6 0 0 11 -6 0 0 -11zm12 0l6 0 0 11 -6 0 0 -11zm-3 -23l2 5 5 0 -4 4 1 5 -4 -3.319 -4 3.319 1 -5 -4 -4 5 0 2 -5z"/>
 </g>
</svg>
