<?xml version="1.0" encoding="UTF-8"?>
<!DOCTYPE svg PUBLIC "-//W3C//DTD SVG 1.1//EN" "http://www.w3.org/Graphics/SVG/1.1/DTD/svg11.dtd">
<!-- Creator: CorelDRAW 2017 -->
<svg xmlns="http://www.w3.org/2000/svg" xml:space="preserve" width="128px" height="128px" version="1.1" style="shape-rendering:geometricPrecision; text-rendering:geometricPrecision; image-rendering:optimizeQuality; fill-rule:evenodd; clip-rule:evenodd"
viewBox="0 0 128 128"
 xmlns:xlink="http://www.w3.org/1999/xlink">
 <defs>
  <style type="text/css">
   <![CDATA[
    .fil0 {fill:#F5F2D6}
   ]]>
  </style>
 </defs>
 <g id="Camada_x0020_1">
  <metadata id="CorelCorpID_0Corel-Layer"/>
  <path id="pgJcwwpUS" class="fil0" d="M86.341 75.541c-1.475,-2.213 -0.996,-5.264 -3.635,-5.264 -0.875,0 -1.706,-0.56 -1.706,-1.277 0,-5.5 6,-11.5 6,-13 -0.148,-0.107 -4,0 -5.412,-1.405 -0.108,0 -1.251,1.337 -1.738,1.337 -0.061,0 -5.087,-3.89 -4.218,-2.71 0.644,0.887 1.811,3.707 2.346,5.701 0.388,1.446 0.753,5.081 0.522,5.227 -0.864,0.472 -4.447,-6.881 -7.148,-6.881 -0.016,0 2.802,6.299 3.648,7.231 1.423,1.532 0.96,2.02 0.096,1.595 -0.539,-0.254 -1.596,-1.095 -2.596,-1.095 -1.001,0 -1.246,1.479 -2,1.5 -0.746,-0.021 -4.416,-6.868 -4.63,-6.738 -0.65,0.485 1.018,7.738 0.63,7.738 -0.595,0 -2.12,-2.514 -5,-1 -2.245,-3.858 -1.193,-8.653 -1.5,-8.5 -2.037,1.062 -1.362,9.116 -3.916,9.116 -0.011,0 -0.901,-2.854 -0.912,-3.173 0,-1.812 2.067,-5.237 2.067,-5.762 0,-1.649 -3.686,4.282 -4.145,4.741 -0.182,0.183 -0.362,-1.965 -0.094,-3.922 0.742,-5.54 4.066,-6.593 3.996,-6.593 -1.932,0 -3.297,1.601 -4.486,2.857 -0.457,-1.082 -2.027,-1.113 -2.382,-0.803 -1.27,1.116 -4.279,1.017 -5.945,1.046 0.027,0.477 0.128,1.189 -0.134,1.592 -0.541,0.847 10.394,13.885 10.394,15.001 0,1.159 -3.82,1.423 -4.85,1.495 -0.858,-5.573 -4.665,-10.082 -8.145,-14.308 -0.377,-0.449 -0.766,-0.802 -0.887,-0.802 -0.918,0.041 -1.716,0.608 -2.561,-0.485 -2.5,-2 -1.608,-4.413 -2,-5 -0.328,-0.487 -3.805,-4 -4,-4 -0.218,0 -2.219,7.689 -3,8 -1.24,0.457 -8,-5.316 -8,-7 0,-0.004 5,-4 7,-4 0,-1 0,-2 1,-3 1,-1 3.884,-1.015 5,0 1.263,1.146 4.195,8 5,8 2.5,-1.5 3,1 4,2 0.34,0.121 2.979,0.133 4,0 2.305,-0.272 2.191,-1.95 3.164,-3.851 0.244,-0.488 2.738,-3.156 2.662,-3.27 -2.077,-1.909 -9.609,1.084 -9.87,0.802 -0.854,-0.853 -0.097,-3.874 0.316,-4.971 0.036,-0.146 -5.442,-1.978 -6.176,-3.647 -0.921,-2.074 1.987,-0.562 1.374,-1.569 -0.085,-0.127 -2.344,-1.019 -2.675,-1.92 -0.118,-0.296 0.414,-0.461 0.414,-0.62 0,-0.034 -5.209,-3.954 -5.209,-7.454 -0.351,-1.47 4,0.5 2,-2.5 -0.262,-0.327 -5,-2 -5,-3 0.332,-3.029 -0.296,-4.597 -3.024,-5.924 -2.096,-0.995 -4.723,-5.166 -3.976,-5.076 0.797,0.051 3.752,1 5,1 0.017,0 -3.88,-5.376 -5.315,-6.999 -0.79,-0.888 -0.156,-1.001 1.315,-1.001 4.984,0 10.96,4 11,4 0.801,0 -1.233,-2 1,-2 2.705,0 7,4 8,4 0.253,-2.22 5.146,1.401 6,2 3.339,2.339 4.377,4.855 4.377,9.011 0,1.461 0.624,3.979 0.623,3.989 -0.089,0.916 -3.793,1.231 -5.194,4.459 -4.741,11 11.654,12.644 13.505,3.368 0.426,-1.982 0.122,-5.047 -1.944,-6.115 -1.852,-0.992 -2.885,1.348 -3.367,0.288 -0.414,-0.9 0.133,-2.61 0.704,-3.388 0.462,-0.62 1.568,-1.301 2.711,-1.653 0.449,-0.136 4.975,-3.244 5.531,-1.787 0.073,0.195 2.864,0.162 3.294,0.389 3.31,1.805 4.865,7.206 3.271,7.804 -3.352,8.74 4.348,9.639 6.489,9.635 1,0 7.132,-1.012 7,-6 0,-6.887 -8,-4 -9,-8 0,-2 1.841,-1.924 3,-2 0,-5.78 4.328,-14 11,-14 0.771,0.179 1,1 2,1 0,-1.907 6.799,-3 8,-3 0,0.613 -0.5,0.5 0,1 1,0 3.68,-2.852 8,-3 0.948,-0.037 1.693,0.843 1.158,1.584 -0.864,1.167 -6.564,8.576 -6.564,9.543 -0.031,0.125 1.546,0.161 1.653,0.268 0.824,0.824 -3.934,4.41 -3.939,4.424 -0.267,0.747 2.51,-0.04 2.614,0.098 1.341,1.169 -4.606,4.415 -3.72,5.239 0.225,0.225 2.69,-0.1 2.492,0.462 -0.128,0.39 -4.176,2.956 -5.202,5.993 -0.341,1.021 0.172,2.058 0.072,2.224 -0.41,0.666 -2.735,-0.832 -2.735,-0.267 0,0.711 2.31,1.82 2.31,1.957 0,0.822 -2.319,0.4 -2.407,1.131 -0.152,1.225 3.254,2.269 -2.151,4.619 -1.177,0.5 -3.918,0.574 -3.393,1.58 0.353,0.677 0.326,4.901 -0.388,5.167 -0.188,0.07 -10.408,-1.699 -8.777,-0.839 0.571,0.304 2.991,2.541 3.087,2.857 0.05,0.145 0.231,0.571 0.414,0.96 0.182,0.377 0.401,1.057 0.486,1.52 0.432,2.34 3.99,2.48 4.99,0.48 0.849,-0.991 1,-2 3,0 0.508,0.557 1.018,-0.817 1.5,-1.5 0.311,-0.494 7.248,-9.074 8.5,-10.5 0.948,-1.094 1.682,-1.672 1.5,-2 -0.296,-0.556 -0.5,-2.5 1,-1.5 0.745,0.843 2.451,-0.789 2.121,2.414 0.898,0 1.379,-0.026 1.379,1.086 0,1.341 -2.601,3.126 -2.571,4.712 0.013,0.511 -0.036,0.729 -0.242,0.985 -1.074,1.234 -9.615,11.895 -9.677,12.423 -0.242,2 -0.799,1.698 -2.48,1.544 -0.671,0.748 -1.259,1.48 -1.86,2.286 0.409,6.218 -1.851,4.694 -2.212,7.573 -0.098,0.742 2.356,3.06 1.799,4.146 -0.183,0.34 -1.641,1.798 -2.128,2.127 -0.51,0.34 -0.936,0.255 -1.288,-0.255l0 0zm-11.674 38.459l37.666 0c2.017,0 3.667,1.65 3.667,3.667l0 3.666c0,2.017 -1.65,3.667 -3.667,3.667l-37.666 0c-2.017,0 -3.667,-1.65 -3.667,-3.667l0 -3.666c0,-2.017 1.65,-3.667 3.667,-3.667zm0 -17l37.666 0c2.017,0 3.667,1.65 3.667,3.667l0 3.667c0,2.016 -1.65,3.666 -3.667,3.666l-37.666 0c-2.017,0 -3.667,-1.65 -3.667,-3.666l0 -3.667c0,-2.017 1.65,-3.667 3.667,-3.667zm0 -17l37.666 0c2.017,0 3.667,1.65 3.667,3.667l0 3.666c0,2.017 -1.65,3.667 -3.667,3.667l-37.666 0c-2.017,0 -3.667,-1.65 -3.667,-3.667l0 -3.666c0,-2.017 1.65,-3.667 3.667,-3.667zm-59 34l37.666 0c2.017,0 3.667,1.65 3.667,3.667l0 3.666c0,2.017 -1.65,3.667 -3.667,3.667l-37.666 0c-2.017,0 -3.667,-1.65 -3.667,-3.667l0 -3.666c0,-2.017 1.65,-3.667 3.667,-3.667zm0 -17l37.666 0c2.017,0 3.667,1.65 3.667,3.667l0 3.667c0,2.016 -1.65,3.666 -3.667,3.666l-37.666 0c-2.017,0 -3.667,-1.65 -3.667,-3.666l0 -3.667c0,-2.017 1.65,-3.667 3.667,-3.667zm0 -17l37.666 0c2.017,0 3.667,1.65 3.667,3.667l0 3.666c0,2.017 -1.65,3.667 -3.667,3.667l-37.666 0c-2.017,0 -3.667,-1.65 -3.667,-3.667l0 -3.666c0,-2.017 1.65,-3.667 3.667,-3.667zm72.333 -14c0.973,-0.802 1,-0.942 1,-2 0,-2.463 -2.525,1.142 -2.5,1.5 0.085,1.106 0.612,1.23 1.5,0.5z"/>
 </g>
</svg>
