<?xml version="1.0" encoding="UTF-8"?>
<!DOCTYPE svg PUBLIC "-//W3C//DTD SVG 1.1//EN" "http://www.w3.org/Graphics/SVG/1.1/DTD/svg11.dtd">
<!-- Creator: CorelDRAW 2017 -->
<svg xmlns="http://www.w3.org/2000/svg" xml:space="preserve" width="128px" height="128px" version="1.1" style="shape-rendering:geometricPrecision; text-rendering:geometricPrecision; image-rendering:optimizeQuality; fill-rule:evenodd; clip-rule:evenodd"
viewBox="0 0 128 128"
 xmlns:xlink="http://www.w3.org/1999/xlink">
 <defs>
  <style type="text/css">
   <![CDATA[
    .fil0 {fill:#F5F2D6}
   ]]>
  </style>
 </defs>
 <g id="Camada_x0020_1">
  <metadata id="CorelCorpID_0Corel-Layer"/>
  <path class="fil0" d="M14 28l100 0 0 7 -100 0 0 -7zm3 13l93.5 0 0 60.5 -22.5 0 0 -34.501c0,-1.099 -0.899,-1.999 -1.999,-1.999l-60.002 0c-1.1,0 -1.999,0.899 -1.999,1.999l0 34.501 -7 0 0 -60.5zm51 28l17 0 0 30 -17 0 0 -30zm-19 0l16 0 0 30 -16 0 0 -30zm-21 0l18 0 0 30 -18 0 0 -30z"/>
 </g>
</svg>
