<?xml version="1.0" encoding="UTF-8"?>
<!DOCTYPE svg PUBLIC "-//W3C//DTD SVG 1.1//EN" "http://www.w3.org/Graphics/SVG/1.1/DTD/svg11.dtd">
<!-- Creator: CorelDRAW 2017 -->
<svg xmlns="http://www.w3.org/2000/svg" xml:space="preserve" width="128px" height="128px" version="1.1" style="shape-rendering:geometricPrecision; text-rendering:geometricPrecision; image-rendering:optimizeQuality; fill-rule:evenodd; clip-rule:evenodd"
viewBox="0 0 128 128"
 xmlns:xlink="http://www.w3.org/1999/xlink">
 <defs>
  <style type="text/css">
   <![CDATA[
    .fil0 {fill:#0E0F0D}
    .fil1 {fill:#4F4F4F}
    .fil2 {fill:#F5F2D6}
   ]]>
  </style>
 </defs>
 <g id="Camada_x0020_1">
  <metadata id="CorelCorpID_0Corel-Layer"/>
  <polygon class="fil0" points="64,0 128,64 64,128 0,64 "/>
  <polygon class="fil1" points="64,11 117,64 64,117 11,64 "/>
  <path class="fil2" d="M64 20c2.718,0 4.92,3.304 4.92,7.38 0,4.077 -2.202,7.382 -4.92,7.382 -2.718,0 -4.92,-3.305 -4.92,-7.382 0,-4.076 2.202,-7.38 4.92,-7.38zm-14.762 41.825l3.28 0 2.871 -15.582 -0.41 15.582 -2.051 40.186 3.691 0 7.381 -32.805 6.971 32.805 4.101 0 -2.051 -40.186 -0.41 -16.401 2.871 16.401 3.28 0 -2.46 -22.963c-1.846,-1.486 -4.035,-2.248 -6.48,-2.46l-12.328 0c-2.679,0.263 -4.905,1.06 -6.615,2.46l-1.641 22.963z"/>
 </g>
</svg>
