<?xml version="1.0" encoding="UTF-8"?>
<!DOCTYPE svg PUBLIC "-//W3C//DTD SVG 1.1//EN" "http://www.w3.org/Graphics/SVG/1.1/DTD/svg11.dtd">
<!-- Creator: CorelDRAW 2017 -->
<svg xmlns="http://www.w3.org/2000/svg" xml:space="preserve" width="128px" height="128px" version="1.1" style="shape-rendering:geometricPrecision; text-rendering:geometricPrecision; image-rendering:optimizeQuality; fill-rule:evenodd; clip-rule:evenodd"
viewBox="0 0 128 128"
 xmlns:xlink="http://www.w3.org/1999/xlink">
 <defs>
  <style type="text/css">
   <![CDATA[
    .fil0 {fill:#F5F2D6}
   ]]>
  </style>
 </defs>
 <g id="Camada_x0020_1">
  <metadata id="CorelCorpID_0Corel-Layer"/>
  <path class="fil0" d="M64 14c3.314,0 6,4.029 6,9 0,4.97 -2.686,9 -6,9 -3.314,0 -6,-4.03 -6,-9 0,-4.971 2.686,-9 6,-9zm-18 51l4 0 3.5 -19 -0.5 19 -2.5 49 4.5 0 9 -40 8.5 40 5 0 -2.5 -49 -0.5 -20 3.5 20 4 0 -3 -28c-2.251,-1.813 -4.919,-2.742 -7.9,-3l-15.032 0c-3.267,0.321 -5.981,1.292 -8.068,3l-2 28z"/>
 </g>
</svg>
