<?xml version="1.0" encoding="UTF-8"?>
<!DOCTYPE svg PUBLIC "-//W3C//DTD SVG 1.1//EN" "http://www.w3.org/Graphics/SVG/1.1/DTD/svg11.dtd">
<!-- Creator: CorelDRAW 2017 -->
<svg xmlns="http://www.w3.org/2000/svg" xml:space="preserve" width="128px" height="128px" version="1.1" style="shape-rendering:geometricPrecision; text-rendering:geometricPrecision; image-rendering:optimizeQuality; fill-rule:evenodd; clip-rule:evenodd"
viewBox="0 0 128 128"
 xmlns:xlink="http://www.w3.org/1999/xlink">
 <defs>
  <style type="text/css">
   <![CDATA[
    .fil0 {fill:#F5F2D6}
   ]]>
  </style>
 </defs>
 <g id="Camada_x0020_1">
  <metadata id="CorelCorpID_0Corel-Layer"/>
  <path class="fil0" d="M64 62c1.933,0 4,-2.067 4,-4 0,-1.895 -1.5,-3.087 -1.5,-8 0,-4.419 -0.5,-8 -2.5,-8 -2,0 -2.478,3.61 -2.478,8.029 0,4.913 -1.522,6.076 -1.522,7.971 0,1.933 2.067,4 4,4zm12 25c1,7 6,11 16,11 8,0 15,-6 15.001,-12.023 -0.001,-3.977 -4.956,-13.867 -6.001,-16.977 -2,-6 -5.939,-9.113 -13.423,-9.113 -7.484,0 -12.577,5.145 -12.577,10.113 0.5,5 0.42,11.779 1,17zm16 -9c-6.627,0 -11,6 -11,10 0,4 4,7 11,7 5,0 11,-6.116 11,-9 0,-4.694 -4.373,-8 -11,-8zm-40 9c-1,7 -6,11 -16,11 -8,0 -15,-6 -15.001,-12.023 0.001,-3.977 4.956,-13.867 6.001,-16.977 2,-6 5.939,-9.113 13.423,-9.113 7.484,0 12.577,5.145 12.577,10.113 -0.5,5 -0.42,11.779 -1,17zm-16 -9c6.627,0 11,6 11,10 0,4 -4,7 -11,7 -5,0 -11,-6.116 -11,-9 0,-4.694 4.373,-8 11,-8zm15 -47c5.246,0 10,4.729 10,7.5 0,1.202 -0.746,2.577 -2.042,3.748 -0.986,5.918 -1.958,8.752 -1.958,17.752 0,2 6,5 5,8 0,5 -3,11 -6,12 0,-4 1.099,-5.463 1,-8 -0.332,-8.495 -5.34,-15.014 -16,-15 -4.999,0.007 -10,0 -13,3 6.055,-11.95 9,-22 14,-22 0,-3.717 3.754,-7 9,-7zm26 0c-5.246,0 -10,4.729 -10,7.5 0,1.202 0.746,2.577 2.042,3.748 0.986,5.918 1.958,8.752 1.958,17.752 0,2 -6,5 -5,8 0,5 3,11 6,12 0,-4 -1.099,-5.463 -1,-8 0.332,-8.495 5.34,-15.014 16,-15 4.999,0.007 10,0 13,3 -6.055,-11.95 -9,-22 -14,-22 0,-3.717 -3.754,-7 -9,-7z"/>
 </g>
</svg>
