<?xml version="1.0" encoding="UTF-8"?>
<!DOCTYPE svg PUBLIC "-//W3C//DTD SVG 1.1//EN" "http://www.w3.org/Graphics/SVG/1.1/DTD/svg11.dtd">
<!-- Creator: CorelDRAW 2017 -->
<svg xmlns="http://www.w3.org/2000/svg" xml:space="preserve" width="128px" height="128px" version="1.1" style="shape-rendering:geometricPrecision; text-rendering:geometricPrecision; image-rendering:optimizeQuality; fill-rule:evenodd; clip-rule:evenodd"
viewBox="0 0 128 128"
 xmlns:xlink="http://www.w3.org/1999/xlink">
 <defs>
  <style type="text/css">
   <![CDATA[
    .fil0 {fill:#F5F2D6}
   ]]>
  </style>
 </defs>
 <g id="Camada_x0020_1">
  <metadata id="CorelCorpID_0Corel-Layer"/>
  <path class="fil0" d="M28 40l75 0c6.05,0 11,4.95 11,11l0 11c0,6.05 -4.95,11 -11,11l-75 0c-6.05,0 -11,-4 -11,-11l0 -11c0,-7 4.95,-11 11,-11zm1 -10c22,0 44,0 66,0l6.5 7 -2.5 0 -3.998 -4.306 0 4.306 -2.001 0 0 -5 -14 0 0 5 -2 0 0 -5 -14 0 0 5 -2 0 0 -5 -14.001 0 0 5 -2 0 0 -5 -14 0 0 5 -2 0 0 -7zm65 57c1.657,0 3,1.343 3,3 0,1.657 -1.343,3 -3,3 -1.657,0 -3,-1.343 -3,-3 0,-1.657 1.343,-3 3,-3zm0 -5c4.419,0 8,3.581 8,8 0,4.419 -3.581,8 -8,8 -4.418,0 -8,-3.581 -8,-8 0,-4.419 3.582,-8 8,-8zm0 2.999c2.762,0 5,2.239 5,5.001 0,2.762 -2.238,5 -5,5 -2.762,0 -5,-2.238 -5,-5 0,-2.762 2.238,-5.001 5,-5.001zm-26 2.001c1.657,0 3,1.343 3,3 0,1.657 -1.343,3 -3,3 -1.657,0 -3,-1.343 -3,-3 0,-1.657 1.343,-3 3,-3zm0 -5c4.419,0 8,3.581 8,8 0,4.419 -3.581,8 -8,8 -4.419,0 -8,-3.581 -8,-8 0,-4.419 3.581,-8 8,-8zm0 2.999c2.762,0 5,2.239 5,5.001 0,2.762 -2.238,5 -5,5 -2.762,0 -5,-2.238 -5,-5 0,-2.762 2.238,-5.001 5,-5.001zm-32 -4.999l0 16 2 0 0 1 -7 0 0 -1 2 0 0 -16 -14 0 -5 -3.5 0 -2.5 5 3c30,0 60,0 90,0l0 3 -6.883 0 4.004 3.879c-0.065,1.528 -0.78,2.226 -2.121,2.121l-6 -6 -7.879 0 -6 6c-1.381,0.047 -2.128,-0.618 -2.121,-2.121l4.004 -3.879 -8.887 0 4.004 3.879c-0.052,1.412 -0.707,2.176 -2.121,2.121l-6 -6 -9 0 -6 6c-1.327,0.036 -2.017,-0.692 -2.121,-2.121l4.004 -3.879 -23.883 0z"/>
 </g>
</svg>
