<?xml version="1.0" encoding="UTF-8"?>
<!DOCTYPE svg PUBLIC "-//W3C//DTD SVG 1.1//EN" "http://www.w3.org/Graphics/SVG/1.1/DTD/svg11.dtd">
<!-- Creator: CorelDRAW 2017 -->
<svg xmlns="http://www.w3.org/2000/svg" xml:space="preserve" width="128px" height="128px" version="1.1" style="shape-rendering:geometricPrecision; text-rendering:geometricPrecision; image-rendering:optimizeQuality; fill-rule:evenodd; clip-rule:evenodd"
viewBox="0 0 128 128"
 xmlns:xlink="http://www.w3.org/1999/xlink">
 <defs>
  <style type="text/css">
   <![CDATA[
    .fil0 {fill:#F5F2D6}
   ]]>
  </style>
 </defs>
 <g id="Camada_x0020_1">
  <metadata id="CorelCorpID_0Corel-Layer"/>
  <path class="fil0" d="M64 1c34.794,0 63.001,28.206 63.001,63 0,34.794 -28.207,63 -63.001,63 -34.793,0 -63.001,-28.206 -63.001,-63 0,-34.794 28.208,-63 63.001,-63zm0 50.001c7.179,0 12.999,5.819 12.999,12.999 0,7.18 -5.82,12.999 -12.999,12.999 -7.179,0 -12.999,-5.819 -12.999,-12.999 0,-7.18 5.82,-12.999 12.999,-12.999zm0 -22.001c19.331,0 35.001,15.671 35.001,35 0,19.329 -15.67,35 -35.001,35 -19.33,0 -35.001,-15.671 -35.001,-35 0,-19.329 15.671,-35 35.001,-35zm0 11.001c13.255,0 24.001,10.746 24.001,23.999 0,13.253 -10.746,23.999 -24.001,23.999 -13.254,0 -24,-10.746 -24,-23.999 0,-13.253 10.746,-23.999 24,-23.999zm0 -26.999c28.165,0 51.001,22.833 51.001,50.998 0,28.165 -22.836,50.998 -51.001,50.998 -28.165,0 -51.001,-22.833 -51.001,-50.998 0,-28.165 22.836,-50.998 51.001,-50.998z"/>
 </g>
</svg>
