<?xml version="1.0" encoding="UTF-8"?>
<!DOCTYPE svg PUBLIC "-//W3C//DTD SVG 1.1//EN" "http://www.w3.org/Graphics/SVG/1.1/DTD/svg11.dtd">
<!-- Creator: CorelDRAW 2017 -->
<svg xmlns="http://www.w3.org/2000/svg" xml:space="preserve" width="128px" height="128px" version="1.1" style="shape-rendering:geometricPrecision; text-rendering:geometricPrecision; image-rendering:optimizeQuality; fill-rule:evenodd; clip-rule:evenodd"
viewBox="0 0 128 128"
 xmlns:xlink="http://www.w3.org/1999/xlink">
 <defs>
  <style type="text/css">
   <![CDATA[
    .fil0 {fill:#F5F2D6}
   ]]>
  </style>
 </defs>
 <g id="Camada_x0020_1">
  <metadata id="CorelCorpID_0Corel-Layer"/>
  <path class="fil0" d="M42 57l7 0 15.001 10 14.999 -10 6 0 0 57 -4 0 0 -7 -16.999 -11 -17.001 11 0 7 -5 0c0,-18.391 0,-38.372 0,-57zm0 -36l44 0 0 33 -44 0 0 -33zm5 4l34 0 0 16 -34 0 0 -16zm-7 -11l48 0 0 3 -48 0 0 -3zm7 89l0 -18 13.5 8.5 -13.5 9.5zm0 -25l0 -17 14 8.5 -14 8.5zm34 -18l0 19 -14 -9.5 14 -9.5zm0 25l0 18 -13.5 -9.5 13.5 -8.5zm-2.655 -3.397l-14.344 9.397 -14.293 -9.397 14.293 -9.603 14.344 9.603z"/>
 </g>
</svg>
