<?xml version="1.0" encoding="UTF-8"?>
<!DOCTYPE svg PUBLIC "-//W3C//DTD SVG 1.1//EN" "http://www.w3.org/Graphics/SVG/1.1/DTD/svg11.dtd">
<!-- Creator: CorelDRAW 2017 -->
<svg xmlns="http://www.w3.org/2000/svg" xml:space="preserve" width="128px" height="128px" version="1.1" style="shape-rendering:geometricPrecision; text-rendering:geometricPrecision; image-rendering:optimizeQuality; fill-rule:evenodd; clip-rule:evenodd"
viewBox="0 0 128 128"
 xmlns:xlink="http://www.w3.org/1999/xlink">
 <defs>
  <style type="text/css">
   <![CDATA[
    .fil0 {fill:#F5F2D6}
   ]]>
  </style>
 </defs>
 <g id="Camada_x0020_1">
  <metadata id="CorelCorpID_0Corel-Layer"/>
  <path class="fil0" d="M37 105l14 0 0 7 -14 0 0 -7zm43.118 -7l33.882 0 -11.906 -28.98 4.906 -0.02 -15 -34 -1 -1 -1 1 -15 34 4.906 0.02 -6.906 14.98 7.118 14zm4.882 3l10 0 0 5 -10 0 0 -5zm-71 1l62 0 -16 -40 6 0 -20 -45 -1 -1 -1 1 -21 45 7 0 -16 40z"/>
 </g>
</svg>
