<?xml version="1.0" encoding="UTF-8"?>
<!DOCTYPE svg PUBLIC "-//W3C//DTD SVG 1.1//EN" "http://www.w3.org/Graphics/SVG/1.1/DTD/svg11.dtd">
<!-- Creator: CorelDRAW 2017 -->
<svg xmlns="http://www.w3.org/2000/svg" xml:space="preserve" width="128px" height="128px" version="1.1" style="shape-rendering:geometricPrecision; text-rendering:geometricPrecision; image-rendering:optimizeQuality; fill-rule:evenodd; clip-rule:evenodd"
viewBox="0 0 128 128"
 xmlns:xlink="http://www.w3.org/1999/xlink">
 <defs>
  <style type="text/css">
   <![CDATA[
    .fil0 {fill:#F5F2D6}
   ]]>
  </style>
 </defs>
 <g id="Camada_x0020_1">
  <metadata id="CorelCorpID_0Corel-Layer"/>
  <path class="fil0" d="M45 29l38 0 0 31 -38 0 0 -31zm18.336 70.016l23.442 7.292 2.222 7.692 5 0 -13 -45 -5 0 0.699 2.42 -12.699 4.096 -12.699 -4.096 0.699 -2.42 -5 0 -13 45 5 0 2.238 -7.746 22.098 -7.238zm6.642 -1.934l13.038 -3.795 2.493 8.627 -15.531 -4.832zm11.983 -7.448l-17.961 5.589 -17.961 -5.589 1.378 -4.769 16.583 -5.349 16.583 5.349 1.378 4.769zm-24.39 7.588l-15.079 4.692 2.487 -8.609 12.592 3.917zm0.229 -19.706l-9.109 2.939 1.553 -5.376 7.556 2.437zm12.4 0.001l7.556 -2.438 1.553 5.376 -9.109 -2.938zm-28.2 -14.517l44 0 0 2 -44 0 0 -2zm22 -49l-23 12 46 0 -23 -12z"/>
 </g>
</svg>
