<svg xmlns="http://www.w3.org/2000/svg" viewBox="0 0 26 26"><path d="M20 0c-.617 0-1.09.46-1.156 1.063a1.205 1.205 0 0 0-1.032-.032c-.601.274-.867.961-.593 1.563.093.207.261.379.437.5C15.61 5.473 15.996 11 11.594 11c-6.301 0-9.399-2.887-10-3.688C1.195 6.813 1 7 1 8c0 1.602 1.102 3.7 2.5 4-.8 0-1.313.094-1.813.594-.3.3-.074.406.125.406.399.102.883.414 1.282.813-.899.199-1.207.48-1.406.78-.102.2-.083.212.218.313.5.2.887.594 1.188 1.094.8 1.398 2.199 3.906 5.5 3.906 6.601 0 7.219-6.5 7.219-6.5s.085 7.688-7.313 7.688c1.012.39 2.148.718 3.5.843V23.157c-1.219.38-1.844 1.344-1.844 1.344a1 1 0 1 0 1.688 1s.23-.46 1.062-.5c.074.008.145.008.219 0 .8.05 1.031.5 1.031.5a1 1 0 1 0 1.688-1s-.625-.965-1.844-1.344V22v-.063c3.188-.273 8-2.152 8-7.125 0-2.601-.688-3.8-.688-5.5 0-1.3.7-2.011 1-2.312.102-.102.883-.21 1.782.188 0-1.602-1.188-2.075-1.188-2.375 0-.665-.246-1.293-.656-1.782.152-.11.309-.23.406-.406.32-.582.157-1.27-.375-1.563-.343-.187-.761-.136-1.093.063A1.18 1.18 0 0 0 20 0zm1.594 4.188c.199 0 .406.207.406.406 0 .199-.207.406-.406.406-.2 0-.407-.207-.407-.406 0-.2.208-.407.407-.407z"/></svg>