<svg xmlns="http://www.w3.org/2000/svg" width="20.48" height="20.48" viewBox="0 0 542 542" shape-rendering="geometricPrecision" text-rendering="geometricPrecision" image-rendering="optimizeQuality" fill-rule="evenodd" clip-rule="evenodd"><defs><style>.fil1{fill:#f7aa31}</style></defs><g id="Camada_x0020_1"><g id="_2475894193200"><path d="M269 179l-6 6c-30 32-32 69-19 99 5 12 13 24 23 34s21 17 34 22c31 12 68 9 99-23 5-5 9-10 12-15 6-9 10-18 14-29l10 9c15 13 28 28 40 40l7 7c10 11 16 23 20 34 6 17 6 35 0 51-5 16-15 30-28 42-11 10-25 18-40 23-19 6-41 11-65 15s-51 6-78 6c-26 0-54-1-80-3-27-2-52-6-76-11-44-9-78-21-101-44-24-23-36-56-37-105-1-26 4-51 13-73 9-23 23-44 42-62 18-18 39-32 62-42s48-14 73-14c13 0 25 2 38 5s25 7 38 12l13 5-10 11zm-68 18c0-5-4-9-9-9h-2c-46 6-83 22-107 47-26 26-39 60-42 103v1c0 5 4 9 9 9s9-4 9-9c2-39 15-70 36-91 22-22 54-35 96-41l1-1c5 0 9-4 9-9z" fill="#f7aa31" fill-rule="nonzero"/><path class="fil1" d="M276 197c-28 29-28 78 1 107 15 15 34 24 55 24h1c21 0 40-8 55-23 8-8 14-18 18-28l2-6c23-60 33-95 69-123-14-14-28-28-41-42-31 35-83 53-125 70l-6 2c-11 4-21 11-28 19zm19 77c0-5 4-9 9-9 3 0 5 1 7 3 6 6 12 10 18 11 3 1 7 1 10 0s7-3 10-7c10-10 18-28 26-55 1-4 5-8 9-8 5 0 9 4 9 9 0 1 0 2-1 3-8 29-18 50-29 62-6 6-12 10-18 12-7 2-13 2-21 0s-17-8-26-16c-2-2-3-4-3-7l1 2zM446 91c16 16 30 31 46 47 11-7 24-13 39-20 5-2 9-7 10-13s-1-11-5-16c-3-3-8-5-12-5-5 0-9 2-12 5-6 6-14 6-20 0-3-3-4-6-4-10s1-7 4-10 5-8 5-12c0-5-2-9-5-12-4-4-10-6-16-5s-10 5-13 10l-19 39z"/></g></g></svg>