<?xml version="1.0" encoding="UTF-8"?>
<!DOCTYPE svg PUBLIC "-//W3C//DTD SVG 1.1//EN" "http://www.w3.org/Graphics/SVG/1.1/DTD/svg11.dtd">
<!-- Creator: CorelDRAW 2017 -->
<svg xmlns="http://www.w3.org/2000/svg" xml:space="preserve" width="14.81mm" height="13.8197mm" version="1.1" style="shape-rendering:geometricPrecision; text-rendering:geometricPrecision; image-rendering:optimizeQuality; fill-rule:evenodd; clip-rule:evenodd"
viewBox="0 0 1481 1382"
 xmlns:xlink="http://www.w3.org/1999/xlink">
 <defs>
  <style type="text/css">
   <![CDATA[
    .fil0 {fill:#65CBFC;fill-rule:nonzero}
   ]]>
  </style>
 </defs>
 <g id="Camada_x0020_1">
  <metadata id="CorelCorpID_0Corel-Layer"/>
  <path class="fil0" d="M1234 29c10,0 4,-15 13,-17 20,-2 40,-1 60,-1 5,1 11,-1 15,3 3,4 3,9 4,14 15,1 26,1 41,1 4,0 5,4 6,7 9,24 10,51 1,75 -1,3 -3,7 -7,8 -12,1 -7,1 -19,1 -1,34 1,68 -1,102 -5,2 -12,-2 -15,3 -2,5 -3,10 -5,14 -27,0 -55,-1 -82,1 -2,6 2,17 -5,21l-219 0c-21,0 -41,5 -62,9 -85,23 -76,131 -100,169 -12,19 -48,41 -69,41l-255 3c-15,29 -24,64 -33,95 -10,34 -14,67 -18,102 -3,51 0,118 -1,169 0,7 -5,12 -13,12l-234 0c-8,1 2,-24 -5,-24 -3,2 -74,0 -74,-14 -2,-51 19,-147 35,-189 13,-39 29,-77 41,-116 8,-23 17,-46 26,-68 9,-22 19,-43 24,-67 4,-18 7,-37 6,-56 -1,-14 -7,-28 -18,-36 -32,-24 -68,-4 -97,-13 -4,-1 -7,-5 -6,-10 0,-8 0,-16 0,-24 0,-4 5,-7 8,-7 13,-3 27,-3 39,-9 54,-26 39,-137 43,-170 3,-18 36,4 25,-16 -4,-6 -4,-14 -1,-21 3,-7 9,-12 16,-16 6,-4 14,-5 20,-1 8,5 25,24 33,29 14,5 803,-2 884,-2zm56 847l0 -69 -82 -13c-5,-19 -12,-38 -23,-54l48 -68 -49 -49 -67 48c-17,-10 -35,-18 -55,-23l-14 -82 -69 0 -13 81c-20,5 -38,12 -55,23l-67 -48 -49 49 47 67c-10,17 -18,35 -23,55l-81 13 0 69 81 14c5,20 13,38 23,55l-48 67 49 49 68 -47c17,10 35,18 55,23l14 81 69 0 14 -82c19,-5 38,-13 55,-23l68 48 49 -49 -49 -67c10,-17 18,-35 22,-54l82 -14zm-276 62c-53,0 -96,-43 -96,-96 0,-53 43,-96 96,-96 53,0 96,43 96,96 0,53 -43,96 -96,96zm294 14l173 0 0 430 -1481 0 0 -430 173 0 0 257 1136 0 0 -257zm-696 -674c-17,-1 -45,11 -57,17 -35,16 -33,151 -11,151l230 0c20,0 35,-11 51,-25 32,-32 18,-110 -8,-129 -14,-11 -33,-14 -51,-14l-155 1z"/>
 </g>
</svg>
