<?xml version="1.0" encoding="UTF-8"?>
<!DOCTYPE svg PUBLIC "-//W3C//DTD SVG 1.1//EN" "http://www.w3.org/Graphics/SVG/1.1/DTD/svg11.dtd">
<!-- Creator: CorelDRAW 2017 -->
<svg xmlns="http://www.w3.org/2000/svg" xml:space="preserve" width="14.81mm" height="16.2523mm" version="1.1" style="shape-rendering:geometricPrecision; text-rendering:geometricPrecision; image-rendering:optimizeQuality; fill-rule:evenodd; clip-rule:evenodd"
viewBox="0 0 1481 1625"
 xmlns:xlink="http://www.w3.org/1999/xlink">
 <defs>
  <style type="text/css">
   <![CDATA[
    .fil0 {fill:#55D309}
   ]]>
  </style>
 </defs>
 <g id="Camada_x0020_1">
  <metadata id="CorelCorpID_0Corel-Layer"/>
  <path class="fil0" d="M1308 1195l173 0 0 430 -1481 0 0 -430 173 0 0 257 1136 0 0 -257zm-1178 -980c-30,-44 40,-218 92,-159l496 577 80 -78c-18,-96 -47,-116 16,-182 118,-123 235,-246 353,-369 16,-17 56,24 37,40l-235 271c-18,25 20,63 41,44l265 -268c22,-26 70,22 44,44l-268 265c-19,21 19,59 44,41l271 -235c16,-19 57,21 40,37 -123,118 -246,235 -369,353 -67,64 -87,34 -182,16l-80 87 348 406c45,56 -81,147 -117,96l-348 -493c-173,-1 -159,18 -260,-122l-270 -373zm164 927l245 -252 67 68 -212 270c-36,41 -141,-43 -101,-86z"/>
 </g>
</svg>
