<?xml version="1.0" encoding="UTF-8"?>
<!DOCTYPE svg PUBLIC "-//W3C//DTD SVG 1.1//EN" "http://www.w3.org/Graphics/SVG/1.1/DTD/svg11.dtd">
<!-- Creator: CorelDRAW 2017 -->
<svg xmlns="http://www.w3.org/2000/svg" xml:space="preserve" width="14.81mm" height="15.5486mm" version="1.1" style="shape-rendering:geometricPrecision; text-rendering:geometricPrecision; image-rendering:optimizeQuality; fill-rule:evenodd; clip-rule:evenodd"
viewBox="0 0 1481 1555"
 xmlns:xlink="http://www.w3.org/1999/xlink">
 <defs>
  <style type="text/css">
   <![CDATA[
    .fil0 {fill:#55D309}
   ]]>
  </style>
 </defs>
 <g id="Camada_x0020_1">
  <metadata id="CorelCorpID_0Corel-Layer"/>
  <path class="fil0" d="M1161 761c0,-340 -351,-539 -351,-761 -310,187 -522,520 -522,761 0,209 218,437 437,437 219,0 437,-207 437,-437zm-269 -24c38,-1 78,-55 99,-100 155,124 -18,420 -266,418 -198,-1 -409,-318 -198,-509 19,90 23,208 110,208 92,-1 100,-164 71,-214 -29,-49 -134,-168 37,-257 -35,171 44,199 89,274 29,50 50,114 57,180z"/>
  <polygon class="fil0" points="1308,1125 1481,1125 1481,1555 0,1555 0,1125 173,1125 173,1382 1308,1382 "/>
 </g>
</svg>
