<?xml version="1.0" encoding="UTF-8"?>
<!DOCTYPE svg PUBLIC "-//W3C//DTD SVG 1.1//EN" "http://www.w3.org/Graphics/SVG/1.1/DTD/svg11.dtd">
<!-- Creator: CorelDRAW 2017 -->
<svg xmlns="http://www.w3.org/2000/svg" xml:space="preserve" width="14.81mm" height="16.6067mm" version="1.1" style="shape-rendering:geometricPrecision; text-rendering:geometricPrecision; image-rendering:optimizeQuality; fill-rule:evenodd; clip-rule:evenodd"
viewBox="0 0 1481 1661"
 xmlns:xlink="http://www.w3.org/1999/xlink">
 <defs>
  <style type="text/css">
   <![CDATA[
    .fil0 {fill:#55D309}
   ]]>
  </style>
 </defs>
 <g id="Camada_x0020_1">
  <metadata id="CorelCorpID_0Corel-Layer"/>
  <path class="fil0" d="M1308 1231l173 0 0 430 -1481 0 0 -430 173 0 0 257 1136 0 0 -257zm-575 -403c97,0 176,-79 176,-176 0,-97 -79,-176 -176,-176 -97,0 -176,79 -176,176 0,97 79,176 176,176zm7 384l0 90c-370,0 -658,-288 -658,-658l90 0c0,320 248,568 568,568zm0 -175l0 86c-271,0 -479,-208 -479,-479l86 0c0,223 170,393 393,393zm465 -379l-86 0c0,-223 -170,-393 -393,-393l0 -86c271,0 479,208 479,479zm179 0l-90 0c0,-320 -248,-568 -568,-568l0 -90c370,0 658,288 658,658z"/>
 </g>
</svg>
